<svg width="1440" height="940" viewBox="0 0 1440 940" fill="none" xmlns="http://www.w3.org/2000/svg">
<path fill-rule="evenodd" clip-rule="evenodd" d="M219 332C219 320.402 209.598 311 198 311C186.402 311 177 320.402 177 332C177 334.871 177.576 337.608 178.619 340.1C182.945 351.912 198.11 360 198.11 360C198.11 360 216.739 350.065 218.593 336.136C218.86 334.799 219 333.416 219 332Z" fill="white"/>
<path fill-rule="evenodd" clip-rule="evenodd" d="M215.651 335.785L215.632 335.881L215.619 335.979C214.843 341.876 210.443 347.28 205.695 351.428C203.381 353.449 201.113 355.062 199.42 356.169C198.928 356.491 198.487 356.769 198.11 357C197.86 356.846 197.581 356.672 197.278 356.478C195.861 355.571 193.929 354.243 191.872 352.564C187.68 349.142 183.318 344.538 181.436 339.344L181.413 339.279L181.387 339.216C180.494 337.06 180 334.691 180 332.197C180 322.147 188.059 314 198 314C207.941 314 216 322.147 216 332.197C216 333.428 215.88 334.628 215.651 335.785Z" fill="#F75751"/>
<path d="M206 332C206 327.582 202.418 324 198 324C193.582 324 190 327.582 190 332C190 336.418 193.582 340 198 340C202.418 340 206 336.418 206 332Z" fill="white"/>
<path fill-rule="evenodd" clip-rule="evenodd" d="M261 417C261 405.402 251.598 396 240 396C228.402 396 219 405.402 219 417C219 419.871 219.576 422.608 220.619 425.1C224.945 436.912 240.11 445 240.11 445C240.11 445 258.739 435.065 260.593 421.136C260.86 419.799 261 418.416 261 417Z" fill="white"/>
<path fill-rule="evenodd" clip-rule="evenodd" d="M257.651 420.785L257.632 420.881L257.619 420.979C256.843 426.876 252.443 432.28 247.695 436.428C245.381 438.449 243.113 440.062 241.42 441.169C240.928 441.491 240.487 441.769 240.11 442C239.86 441.846 239.581 441.672 239.278 441.478C237.861 440.571 235.929 439.243 233.872 437.564C229.68 434.142 225.318 429.538 223.436 424.344L223.413 424.279L223.387 424.216C222.494 422.06 222 419.691 222 417.197C222 407.147 230.059 399 240 399C249.941 399 258 407.147 258 417.197C258 418.428 257.88 419.628 257.651 420.785Z" fill="#F75751"/>
<path d="M248 417C248 412.582 244.418 409 240 409C235.582 409 232 412.582 232 417C232 421.418 235.582 425 240 425C244.418 425 248 421.418 248 417Z" fill="white"/>
<path fill-rule="evenodd" clip-rule="evenodd" d="M488 673C488 661.402 478.598 652 467 652C455.402 652 446 661.402 446 673C446 675.871 446.576 678.608 447.619 681.1C451.945 692.912 467.11 701 467.11 701C467.11 701 485.739 691.065 487.593 677.136C487.86 675.799 488 674.416 488 673Z" fill="white"/>
<path fill-rule="evenodd" clip-rule="evenodd" d="M484.651 676.785L484.632 676.881L484.619 676.979C483.843 682.876 479.443 688.28 474.695 692.428C472.381 694.449 470.113 696.062 468.42 697.169C467.928 697.491 467.487 697.769 467.11 698C466.86 697.846 466.581 697.672 466.278 697.478C464.861 696.571 462.929 695.243 460.872 693.564C456.68 690.142 452.318 685.538 450.436 680.344L450.413 680.279L450.387 680.216C449.494 678.06 449 675.691 449 673.197C449 663.147 457.059 655 467 655C476.941 655 485 663.147 485 673.197C485 674.428 484.88 675.628 484.651 676.785Z" fill="#F75751"/>
<path d="M475 673C475 668.582 471.418 665 467 665C462.582 665 459 668.582 459 673C459 677.418 462.582 681 467 681C471.418 681 475 677.418 475 673Z" fill="white"/>
<path fill-rule="evenodd" clip-rule="evenodd" d="M658 430C658 418.402 648.598 409 637 409C625.402 409 616 418.402 616 430C616 432.871 616.576 435.608 617.619 438.1C621.945 449.912 637.11 458 637.11 458C637.11 458 655.739 448.065 657.593 434.136C657.86 432.799 658 431.416 658 430Z" fill="white"/>
<path fill-rule="evenodd" clip-rule="evenodd" d="M654.651 433.785L654.632 433.881L654.619 433.979C653.843 439.876 649.443 445.28 644.695 449.428C642.381 451.449 640.113 453.062 638.42 454.169C637.928 454.491 637.487 454.769 637.11 455C636.86 454.846 636.581 454.672 636.278 454.478C634.861 453.571 632.929 452.243 630.872 450.564C626.68 447.142 622.318 442.538 620.436 437.344L620.413 437.279L620.387 437.216C619.494 435.06 619 432.691 619 430.197C619 420.147 627.059 412 637 412C646.941 412 655 420.147 655 430.197C655 431.428 654.88 432.628 654.651 433.785Z" fill="#F75751"/>
<path d="M645 430C645 425.582 641.418 422 637 422C632.582 422 629 425.582 629 430C629 434.418 632.582 438 637 438C641.418 438 645 434.418 645 430Z" fill="white"/>
<path fill-rule="evenodd" clip-rule="evenodd" d="M391 508C391 496.402 381.598 487 370 487C358.402 487 349 496.402 349 508C349 510.871 349.576 513.608 350.619 516.1C354.945 527.912 370.11 536 370.11 536C370.11 536 388.739 526.065 390.593 512.136C390.86 510.799 391 509.416 391 508Z" fill="white"/>
<path fill-rule="evenodd" clip-rule="evenodd" d="M387.651 511.785L387.632 511.881L387.619 511.979C386.843 517.876 382.443 523.28 377.695 527.428C375.381 529.449 373.113 531.062 371.42 532.169C370.928 532.491 370.487 532.769 370.11 533C369.86 532.846 369.581 532.672 369.278 532.478C367.861 531.571 365.929 530.243 363.872 528.564C359.68 525.142 355.318 520.538 353.436 515.344L353.413 515.279L353.387 515.216C352.494 513.06 352 510.691 352 508.197C352 498.147 360.059 490 370 490C379.941 490 388 498.147 388 508.197C388 509.428 387.88 510.628 387.651 511.785Z" fill="#F75751"/>
<path d="M378 508C378 503.582 374.418 500 370 500C365.582 500 362 503.582 362 508C362 512.418 365.582 516 370 516C374.418 516 378 512.418 378 508Z" fill="white"/>
<path fill-rule="evenodd" clip-rule="evenodd" d="M697 414C697 402.402 687.598 393 676 393C664.402 393 655 402.402 655 414C655 416.871 655.576 419.608 656.619 422.1C660.945 433.912 676.11 442 676.11 442C676.11 442 694.739 432.065 696.593 418.136C696.86 416.799 697 415.416 697 414Z" fill="white"/>
<path fill-rule="evenodd" clip-rule="evenodd" d="M693.651 417.785L693.632 417.881L693.619 417.979C692.843 423.876 688.443 429.28 683.695 433.428C681.381 435.449 679.113 437.062 677.42 438.169C676.928 438.491 676.487 438.769 676.11 439C675.86 438.846 675.581 438.672 675.278 438.478C673.861 437.571 671.929 436.243 669.872 434.564C665.68 431.142 661.318 426.538 659.436 421.344L659.413 421.279L659.387 421.216C658.494 419.06 658 416.691 658 414.197C658 404.147 666.059 396 676 396C685.941 396 694 404.147 694 414.197C694 415.428 693.88 416.628 693.651 417.785Z" fill="#F75751"/>
<path d="M684 414C684 409.582 680.418 406 676 406C671.582 406 668 409.582 668 414C668 418.418 671.582 422 676 422C680.418 422 684 418.418 684 414Z" fill="white"/>
<path fill-rule="evenodd" clip-rule="evenodd" d="M726 389C726 377.402 716.598 368 705 368C693.402 368 684 377.402 684 389C684 391.871 684.576 394.608 685.619 397.1C689.945 408.912 705.11 417 705.11 417C705.11 417 723.739 407.065 725.593 393.136C725.86 391.799 726 390.416 726 389Z" fill="white"/>
<path fill-rule="evenodd" clip-rule="evenodd" d="M722.651 392.785L722.632 392.881L722.619 392.979C721.843 398.876 717.443 404.28 712.695 408.428C710.381 410.449 708.113 412.062 706.42 413.169C705.928 413.491 705.487 413.769 705.11 414C704.86 413.846 704.581 413.672 704.278 413.478C702.861 412.571 700.929 411.243 698.872 409.564C694.68 406.142 690.318 401.538 688.436 396.344L688.413 396.279L688.387 396.216C687.494 394.06 687 391.691 687 389.197C687 379.147 695.059 371 705 371C714.941 371 723 379.147 723 389.197C723 390.428 722.88 391.628 722.651 392.785Z" fill="#F75751"/>
<path d="M713 389C713 384.582 709.418 381 705 381C700.582 381 697 384.582 697 389C697 393.418 700.582 397 705 397C709.418 397 713 393.418 713 389Z" fill="white"/>
<path fill-rule="evenodd" clip-rule="evenodd" d="M687 353C687 341.402 677.598 332 666 332C654.402 332 645 341.402 645 353C645 355.871 645.576 358.608 646.619 361.1C650.945 372.912 666.11 381 666.11 381C666.11 381 684.739 371.065 686.593 357.136C686.86 355.799 687 354.416 687 353Z" fill="white"/>
<path fill-rule="evenodd" clip-rule="evenodd" d="M683.651 356.785L683.632 356.881L683.619 356.979C682.843 362.876 678.443 368.28 673.695 372.428C671.381 374.449 669.113 376.062 667.42 377.169C666.928 377.491 666.487 377.769 666.11 378C665.86 377.846 665.581 377.672 665.278 377.478C663.861 376.571 661.929 375.243 659.872 373.564C655.68 370.142 651.318 365.538 649.436 360.344L649.413 360.279L649.387 360.216C648.494 358.06 648 355.691 648 353.197C648 343.147 656.059 335 666 335C675.941 335 684 343.147 684 353.197C684 354.428 683.88 355.628 683.651 356.785Z" fill="#F75751"/>
<path d="M674 353C674 348.582 670.418 345 666 345C661.582 345 658 348.582 658 353C658 357.418 661.582 361 666 361C670.418 361 674 357.418 674 353Z" fill="white"/>
<path fill-rule="evenodd" clip-rule="evenodd" d="M459 722C459 710.402 449.598 701 438 701C426.402 701 417 710.402 417 722C417 724.871 417.576 727.608 418.619 730.1C422.945 741.912 438.11 750 438.11 750C438.11 750 456.739 740.065 458.593 726.136C458.86 724.799 459 723.416 459 722Z" fill="white"/>
<path fill-rule="evenodd" clip-rule="evenodd" d="M455.651 725.785L455.632 725.881L455.619 725.979C454.843 731.876 450.443 737.28 445.695 741.428C443.381 743.449 441.113 745.062 439.42 746.169C438.928 746.491 438.487 746.769 438.11 747C437.86 746.846 437.581 746.672 437.278 746.478C435.861 745.571 433.929 744.243 431.872 742.564C427.68 739.142 423.318 734.538 421.436 729.344L421.413 729.279L421.387 729.216C420.494 727.06 420 724.691 420 722.197C420 712.147 428.059 704 438 704C447.941 704 456 712.147 456 722.197C456 723.428 455.88 724.628 455.651 725.785Z" fill="#F75751"/>
<path d="M446 722C446 717.582 442.418 714 438 714C433.582 714 430 717.582 430 722C430 726.418 433.582 730 438 730C442.418 730 446 726.418 446 722Z" fill="white"/>
</svg>
