<svg width="1248" height="822" viewBox="0 0 1248 822" fill="none" xmlns="http://www.w3.org/2000/svg">
<g filter="url(#filter0_d_6831_632)">
<g filter="url(#filter1_d_6831_632)">
<g clip-path="url(#clip0_6831_632)">
<rect width="16" height="12" transform="translate(416 594.5)" fill="white"/>
<path fill-rule="evenodd" clip-rule="evenodd" d="M416 594.5V606.5H432V594.5H416Z" fill="#009933"/>
<mask id="mask0_6831_632" style="mask-type:luminance" maskUnits="userSpaceOnUse" x="416" y="594" width="16" height="13">
<path fill-rule="evenodd" clip-rule="evenodd" d="M416 594.5V606.5H432V594.5H416Z" fill="white"/>
</mask>
<g mask="url(#mask0_6831_632)">
<g filter="url(#filter2_d_6831_632)">
<path fill-rule="evenodd" clip-rule="evenodd" d="M423.963 596.352L430.064 600.604L423.88 604.586L417.904 600.521L423.963 596.352Z" fill="#FFD221"/>
<path fill-rule="evenodd" clip-rule="evenodd" d="M423.963 596.352L430.064 600.604L423.88 604.586L417.904 600.521L423.963 596.352Z" fill="url(#paint0_linear_6831_632)"/>
</g>
<path fill-rule="evenodd" clip-rule="evenodd" d="M424 603.1C425.381 603.1 426.5 601.981 426.5 600.6C426.5 599.219 425.381 598.1 424 598.1C422.619 598.1 421.5 599.219 421.5 600.6C421.5 601.981 422.619 603.1 424 603.1Z" fill="#2E42A5"/>
<mask id="mask1_6831_632" style="mask-type:luminance" maskUnits="userSpaceOnUse" x="421" y="598" width="6" height="6">
<path fill-rule="evenodd" clip-rule="evenodd" d="M424 603.1C425.381 603.1 426.5 601.981 426.5 600.6C426.5 599.219 425.381 598.1 424 598.1C422.619 598.1 421.5 599.219 421.5 600.6C421.5 601.981 422.619 603.1 424 603.1Z" fill="white"/>
</mask>
<g mask="url(#mask1_6831_632)">
<path fill-rule="evenodd" clip-rule="evenodd" d="M423.19 601.785L423.078 601.844L423.1 601.719L423.009 601.631L423.134 601.613L423.19 601.5L423.246 601.613L423.371 601.631L423.28 601.719L423.302 601.844L423.19 601.785Z" fill="#F7FCFF"/>
<path fill-rule="evenodd" clip-rule="evenodd" d="M424.19 601.785L424.078 601.844L424.1 601.719L424.009 601.631L424.134 601.613L424.19 601.5L424.246 601.613L424.371 601.631L424.28 601.719L424.302 601.844L424.19 601.785Z" fill="#F7FCFF"/>
<path fill-rule="evenodd" clip-rule="evenodd" d="M424.19 602.385L424.078 602.444L424.1 602.319L424.009 602.231L424.134 602.213L424.19 602.1L424.246 602.213L424.371 602.231L424.28 602.319L424.302 602.444L424.19 602.385Z" fill="#F7FCFF"/>
<path fill-rule="evenodd" clip-rule="evenodd" d="M423.69 600.285L423.578 600.344L423.6 600.219L423.509 600.131L423.634 600.113L423.69 600L423.746 600.113L423.871 600.131L423.78 600.219L423.802 600.344L423.69 600.285Z" fill="#F7FCFF"/>
<path fill-rule="evenodd" clip-rule="evenodd" d="M423.69 601.285L423.578 601.344L423.6 601.219L423.509 601.131L423.634 601.113L423.69 601L423.746 601.113L423.871 601.131L423.78 601.219L423.802 601.344L423.69 601.285Z" fill="#F7FCFF"/>
<path fill-rule="evenodd" clip-rule="evenodd" d="M422.99 600.785L422.878 600.844L422.899 600.719L422.809 600.631L422.934 600.613L422.99 600.5L423.046 600.613L423.171 600.631L423.08 600.719L423.101 600.844L422.99 600.785Z" fill="#F7FCFF"/>
<path fill-rule="evenodd" clip-rule="evenodd" d="M422.29 601.185L422.178 601.244L422.199 601.119L422.109 601.031L422.234 601.013L422.29 600.9L422.345 601.013L422.47 601.031L422.38 601.119L422.401 601.244L422.29 601.185Z" fill="#F7FCFF"/>
<path fill-rule="evenodd" clip-rule="evenodd" d="M424.59 599.485L424.479 599.544L424.5 599.42L424.41 599.331L424.535 599.313L424.59 599.2L424.646 599.313L424.771 599.331L424.681 599.42L424.702 599.544L424.59 599.485Z" fill="#F7FCFF"/>
<path d="M420.963 599.999L421.038 599.001C423.437 599.182 425.331 599.971 426.695 601.374L425.978 602.071C424.795 600.855 423.132 600.162 420.963 599.999Z" fill="#F7FCFF"/>
</g>
</g>
</g>
<path d="M440.562 605V596.273H444.347C445.011 596.273 445.57 596.362 446.021 596.541C446.476 596.72 446.818 596.973 447.048 597.3C447.281 597.626 447.398 598.011 447.398 598.455C447.398 598.776 447.327 599.068 447.185 599.332C447.045 599.597 446.849 599.818 446.597 599.997C446.344 600.173 446.048 600.295 445.71 600.364V600.449C446.085 600.463 446.426 600.558 446.733 600.734C447.04 600.908 447.284 601.148 447.466 601.455C447.648 601.759 447.739 602.116 447.739 602.528C447.739 603.006 447.614 603.43 447.364 603.803C447.116 604.175 446.764 604.467 446.307 604.68C445.849 604.893 445.304 605 444.67 605H440.562ZM442.932 603.108H444.04C444.438 603.108 444.736 603.034 444.935 602.886C445.134 602.736 445.233 602.514 445.233 602.222C445.233 602.017 445.186 601.844 445.092 601.702C444.999 601.56 444.865 601.452 444.692 601.378C444.521 601.304 444.315 601.267 444.074 601.267H442.932V603.108ZM442.932 599.801H443.903C444.111 599.801 444.294 599.768 444.453 599.703C444.612 599.638 444.736 599.544 444.824 599.422C444.915 599.297 444.96 599.145 444.96 598.966C444.96 598.696 444.864 598.49 444.67 598.348C444.477 598.203 444.233 598.131 443.938 598.131H442.932V599.801ZM448.612 605V598.455H450.896V599.699H450.964C451.084 599.239 451.273 598.902 451.531 598.689C451.793 598.476 452.098 598.369 452.447 598.369C452.55 598.369 452.651 598.378 452.75 598.395C452.852 598.409 452.95 598.43 453.044 598.459V600.466C452.928 600.426 452.784 600.396 452.614 600.376C452.443 600.357 452.297 600.347 452.175 600.347C451.945 600.347 451.737 600.399 451.553 600.504C451.371 600.607 451.227 600.751 451.122 600.939C451.017 601.124 450.964 601.341 450.964 601.591V605H448.612ZM455.335 605.102C454.917 605.102 454.548 605.034 454.227 604.898C453.908 604.759 453.658 604.548 453.477 604.267C453.295 603.986 453.204 603.628 453.204 603.193C453.204 602.835 453.265 602.53 453.387 602.277C453.509 602.021 453.68 601.812 453.898 601.651C454.117 601.489 454.371 601.365 454.661 601.28C454.954 601.195 455.269 601.139 455.607 601.114C455.974 601.085 456.268 601.051 456.489 601.011C456.714 600.969 456.876 600.911 456.975 600.837C457.075 600.76 457.124 600.659 457.124 600.534V600.517C457.124 600.347 457.059 600.216 456.928 600.125C456.798 600.034 456.63 599.989 456.425 599.989C456.201 599.989 456.018 600.038 455.876 600.138C455.737 600.234 455.653 600.384 455.624 600.585H453.46C453.488 600.187 453.614 599.821 453.839 599.486C454.066 599.148 454.397 598.878 454.832 598.676C455.266 598.472 455.809 598.369 456.46 598.369C456.928 598.369 457.349 598.425 457.721 598.536C458.093 598.643 458.41 598.795 458.671 598.991C458.933 599.185 459.131 599.412 459.268 599.673C459.407 599.932 459.477 600.213 459.477 600.517V605H457.278V604.08H457.227C457.096 604.324 456.937 604.521 456.749 604.672C456.565 604.822 456.353 604.932 456.114 605C455.879 605.068 455.619 605.102 455.335 605.102ZM456.102 603.619C456.281 603.619 456.448 603.582 456.604 603.509C456.763 603.435 456.893 603.328 456.992 603.189C457.092 603.05 457.141 602.881 457.141 602.682V602.136C457.079 602.162 457.012 602.186 456.941 602.209C456.873 602.232 456.799 602.253 456.719 602.273C456.643 602.293 456.56 602.311 456.472 602.328C456.387 602.345 456.298 602.361 456.204 602.375C456.022 602.403 455.873 602.45 455.756 602.516C455.643 602.578 455.558 602.656 455.501 602.75C455.447 602.841 455.42 602.943 455.42 603.057C455.42 603.239 455.484 603.378 455.612 603.474C455.739 603.571 455.903 603.619 456.102 603.619ZM466.583 600.585H464.419C464.407 600.452 464.36 600.337 464.278 600.24C464.196 600.143 464.089 600.07 463.958 600.018C463.831 599.964 463.689 599.938 463.532 599.938C463.331 599.938 463.157 599.974 463.012 600.048C462.868 600.122 462.797 600.227 462.799 600.364C462.797 600.46 462.838 600.55 462.923 600.632C463.011 600.714 463.18 600.778 463.43 600.824L464.76 601.062C465.43 601.185 465.929 601.391 466.255 601.68C466.585 601.967 466.751 602.352 466.754 602.835C466.751 603.301 466.612 603.706 466.336 604.05C466.064 604.391 465.69 604.655 465.216 604.842C464.744 605.027 464.206 605.119 463.6 605.119C462.6 605.119 461.818 604.915 461.252 604.506C460.69 604.097 460.376 603.557 460.311 602.886H462.646C462.677 603.094 462.779 603.254 462.953 603.368C463.129 603.479 463.35 603.534 463.618 603.534C463.833 603.534 464.011 603.497 464.15 603.423C464.292 603.349 464.365 603.244 464.368 603.108C464.365 602.983 464.302 602.884 464.18 602.81C464.061 602.736 463.873 602.676 463.618 602.631L462.458 602.426C461.791 602.31 461.291 602.088 460.958 601.761C460.626 601.435 460.461 601.014 460.464 600.5C460.461 600.045 460.581 599.661 460.822 599.345C461.066 599.027 461.414 598.786 461.866 598.621C462.321 598.453 462.859 598.369 463.481 598.369C464.427 598.369 465.173 598.565 465.718 598.957C466.267 599.349 466.555 599.892 466.583 600.585ZM467.655 605V598.455H470.007V605H467.655ZM468.831 597.773C468.513 597.773 468.24 597.668 468.013 597.457C467.786 597.247 467.672 596.994 467.672 596.699C467.672 596.403 467.786 596.151 468.013 595.94C468.24 595.73 468.513 595.625 468.831 595.625C469.152 595.625 469.425 595.73 469.65 595.94C469.877 596.151 469.99 596.403 469.99 596.699C469.99 596.994 469.877 597.247 469.65 597.457C469.425 597.668 469.152 597.773 468.831 597.773ZM473.558 596.273V605H471.206V596.273H473.558Z" fill="white"/>
</g>
<g filter="url(#filter3_d_6831_632)">
<g clip-path="url(#clip1_6831_632)">
<rect width="16" height="12" transform="translate(216 415.5)" fill="white"/>
<path fill-rule="evenodd" clip-rule="evenodd" d="M214 413.5H234V428.5H214V413.5Z" fill="#E31D1C"/>
<path fill-rule="evenodd" clip-rule="evenodd" d="M214 414.75V416H234V414.75H214ZM214 417.25V418.5H234V417.25H214ZM214 421V419.75H234V421H214ZM214 422.25V423.5H234V422.25H214ZM214 426V424.75H234V426H214ZM214 428.5V427.25H234V428.5H214Z" fill="#F7FCFF"/>
<rect x="214" y="413.5" width="11.25" height="8.75" fill="#2E42A5"/>
<path fill-rule="evenodd" clip-rule="evenodd" d="M215.3 416.217L215.963 415.756L216.476 416.126H216.186L216.774 416.646L216.575 417.376H216.264L215.962 416.706L215.704 417.376H214.936L215.524 417.896L215.3 418.717L215.963 418.256L216.476 418.626H216.186L216.774 419.146L216.575 419.876H216.264L215.962 419.206L215.704 419.876H214.936L215.524 420.396L215.3 421.217L215.963 420.756L216.604 421.217L216.404 420.396L216.919 419.876H216.682L217.213 419.506L217.726 419.876H217.436L218.024 420.396L217.8 421.217L218.463 420.756L219.104 421.217L218.904 420.396L219.419 419.876H219.182L219.713 419.506L220.226 419.876H219.936L220.524 420.396L220.3 421.217L220.963 420.756L221.604 421.217L221.404 420.396L221.919 419.876H221.682L222.213 419.506L222.726 419.876H222.436L223.024 420.396L222.8 421.217L223.463 420.756L224.104 421.217L223.904 420.396L224.419 419.876H223.764L223.462 419.206L223.204 419.876H222.831L222.654 419.146L223.169 418.626H222.932L223.463 418.256L224.104 418.717L223.904 417.896L224.419 417.376H223.764L223.462 416.706L223.204 417.376H222.831L222.654 416.646L223.169 416.126H222.932L223.463 415.756L224.104 416.217L223.904 415.396L224.419 414.876H223.764L223.462 414.206L223.204 414.876H222.436L223.024 415.396L222.825 416.126H222.514L222.212 415.456L221.954 416.126H221.581L221.404 415.396L221.919 414.876H221.264L220.962 414.206L220.704 414.876H219.936L220.524 415.396L220.325 416.126H220.014L219.712 415.456L219.454 416.126H219.081L218.904 415.396L219.419 414.876H218.764L218.462 414.206L218.204 414.876H217.436L218.024 415.396L217.825 416.126H217.514L217.212 415.456L216.954 416.126H216.581L216.404 415.396L216.919 414.876H216.264L215.962 414.206L215.704 414.876H214.936L215.524 415.396L215.3 416.217ZM222.825 418.626L223.024 417.896L222.436 417.376H222.726L222.213 417.006L221.682 417.376H221.919L221.404 417.896L221.581 418.626H221.954L222.212 417.956L222.514 418.626H222.825ZM221.476 418.626L220.963 418.256L220.432 418.626H220.669L220.154 419.146L220.331 419.876H220.704L220.962 419.206L221.264 419.876H221.575L221.774 419.146L221.186 418.626H221.476ZM219.274 419.146L219.075 419.876H218.764L218.462 419.206L218.204 419.876H217.831L217.654 419.146L218.169 418.626H217.932L218.463 418.256L218.976 418.626H218.686L219.274 419.146ZM219.454 418.626H219.081L218.904 417.896L219.419 417.376H219.182L219.713 417.006L220.226 417.376H219.936L220.524 417.896L220.325 418.626H220.014L219.712 417.956L219.454 418.626ZM217.825 418.626L218.024 417.896L217.436 417.376H217.726L217.213 417.006L216.682 417.376H216.919L216.404 417.896L216.581 418.626H216.954L217.212 417.956L217.514 418.626H217.825ZM221.774 416.646L221.575 417.376H221.264L220.962 416.706L220.704 417.376H220.331L220.154 416.646L220.669 416.126H220.432L220.963 415.756L221.476 416.126H221.186L221.774 416.646ZM218.976 416.126L218.463 415.756L217.932 416.126H218.169L217.654 416.646L217.831 417.376H218.204L218.462 416.706L218.764 417.376H219.075L219.274 416.646L218.686 416.126H218.976Z" fill="#F7FCFF"/>
</g>
<path d="M240.562 426V417.273H246.852V419.182H242.932V420.682H246.528V422.591H242.932V424.091H246.835V426H240.562ZM253.192 417.273H255.561V422.864C255.561 423.528 255.402 424.104 255.084 424.589C254.769 425.072 254.328 425.446 253.763 425.71C253.198 425.972 252.542 426.102 251.794 426.102C251.042 426.102 250.382 425.972 249.817 425.71C249.252 425.446 248.811 425.072 248.496 424.589C248.184 424.104 248.027 423.528 248.027 422.864V417.273H250.397V422.659C250.397 422.929 250.456 423.17 250.576 423.384C250.695 423.594 250.86 423.759 251.07 423.878C251.283 423.997 251.525 424.057 251.794 424.057C252.067 424.057 252.309 423.997 252.519 423.878C252.729 423.759 252.894 423.594 253.013 423.384C253.132 423.17 253.192 422.929 253.192 422.659V417.273ZM258.955 426H256.398L259.278 417.273H262.517L265.398 426H262.841L260.932 419.676H260.864L258.955 426ZM258.477 422.557H263.284V424.33H258.477V422.557Z" fill="white"/>
</g>
<g filter="url(#filter4_d_6831_632)">
<g clip-path="url(#clip2_6831_632)">
<rect width="16" height="12" transform="translate(171 325.5)" fill="white"/>
<path fill-rule="evenodd" clip-rule="evenodd" d="M174 323.5H184V338.5H174V323.5Z" fill="#F7FCFF"/>
<path fill-rule="evenodd" clip-rule="evenodd" d="M177.956 328.752L178.983 327.25L179 336H178.572L178.835 333.835C178.835 333.835 175.952 334.364 176.191 334.097C176.429 333.83 176.566 333.34 176.566 333.34L174 331.592C174 331.592 174.405 331.587 174.734 331.387C175.063 331.187 174.405 330.002 174.405 330.002L175.7 330.194L176.191 329.65L177.168 330.695H177.607L177.168 328.302L177.956 328.752ZM179 336V327.25L180.044 328.752L180.832 328.302L180.393 330.695H180.832L181.809 329.65L182.3 330.194L183.595 330.002C183.595 330.002 182.937 331.187 183.266 331.387C183.595 331.587 184 331.592 184 331.592L181.434 333.34C181.434 333.34 181.571 333.83 181.809 334.097C182.048 334.364 179.165 333.835 179.165 333.835L179.428 336H179Z" fill="#E31D1C"/>
<path fill-rule="evenodd" clip-rule="evenodd" d="M184 323.5H189V338.5H184V323.5Z" fill="#E31D1C"/>
<path fill-rule="evenodd" clip-rule="evenodd" d="M169 323.5H174V338.5H169V323.5Z" fill="#E31D1C"/>
</g>
<path d="M203.71 330.545H201.307C201.29 330.347 201.244 330.166 201.17 330.004C201.099 329.842 201 329.703 200.872 329.587C200.747 329.467 200.595 329.376 200.416 329.314C200.237 329.249 200.034 329.216 199.807 329.216C199.409 329.216 199.072 329.312 198.797 329.506C198.524 329.699 198.317 329.976 198.175 330.337C198.036 330.697 197.966 331.131 197.966 331.636C197.966 332.17 198.037 332.618 198.179 332.979C198.324 333.337 198.533 333.607 198.805 333.788C199.078 333.967 199.406 334.057 199.79 334.057C200.009 334.057 200.205 334.03 200.378 333.976C200.551 333.919 200.702 333.838 200.83 333.733C200.957 333.628 201.061 333.501 201.141 333.354C201.223 333.203 201.278 333.034 201.307 332.847L203.71 332.864C203.682 333.233 203.578 333.609 203.399 333.993C203.22 334.374 202.966 334.726 202.636 335.05C202.31 335.371 201.905 335.629 201.422 335.825C200.939 336.021 200.378 336.119 199.739 336.119C198.938 336.119 198.219 335.947 197.582 335.604C196.949 335.26 196.447 334.754 196.078 334.087C195.712 333.419 195.528 332.602 195.528 331.636C195.528 330.665 195.716 329.847 196.091 329.182C196.466 328.514 196.972 328.01 197.608 327.669C198.244 327.325 198.955 327.153 199.739 327.153C200.29 327.153 200.797 327.229 201.26 327.379C201.723 327.53 202.129 327.75 202.479 328.04C202.828 328.327 203.109 328.68 203.322 329.101C203.536 329.521 203.665 330.003 203.71 330.545ZM206.643 336.102C206.225 336.102 205.856 336.034 205.535 335.898C205.217 335.759 204.967 335.548 204.785 335.267C204.603 334.986 204.512 334.628 204.512 334.193C204.512 333.835 204.574 333.53 204.696 333.277C204.818 333.021 204.988 332.812 205.207 332.651C205.426 332.489 205.68 332.365 205.97 332.28C206.262 332.195 206.578 332.139 206.916 332.114C207.282 332.085 207.576 332.051 207.798 332.011C208.022 331.969 208.184 331.911 208.284 331.837C208.383 331.76 208.433 331.659 208.433 331.534V331.517C208.433 331.347 208.368 331.216 208.237 331.125C208.106 331.034 207.939 330.989 207.734 330.989C207.51 330.989 207.326 331.038 207.184 331.138C207.045 331.234 206.961 331.384 206.933 331.585H204.768C204.797 331.187 204.923 330.821 205.147 330.486C205.375 330.148 205.706 329.878 206.14 329.676C206.575 329.472 207.118 329.369 207.768 329.369C208.237 329.369 208.657 329.425 209.029 329.536C209.402 329.643 209.718 329.795 209.98 329.991C210.241 330.185 210.44 330.412 210.576 330.673C210.716 330.932 210.785 331.213 210.785 331.517V336H208.586V335.08H208.535C208.404 335.324 208.245 335.521 208.058 335.672C207.873 335.822 207.662 335.932 207.423 336C207.187 336.068 206.927 336.102 206.643 336.102ZM207.41 334.619C207.589 334.619 207.757 334.582 207.913 334.509C208.072 334.435 208.201 334.328 208.301 334.189C208.4 334.05 208.45 333.881 208.45 333.682V333.136C208.387 333.162 208.321 333.186 208.25 333.209C208.181 333.232 208.108 333.253 208.028 333.273C207.951 333.293 207.869 333.311 207.781 333.328C207.696 333.345 207.606 333.361 207.512 333.375C207.331 333.403 207.181 333.45 207.065 333.516C206.951 333.578 206.866 333.656 206.809 333.75C206.755 333.841 206.728 333.943 206.728 334.057C206.728 334.239 206.792 334.378 206.92 334.474C207.048 334.571 207.211 334.619 207.41 334.619ZM214.261 332.318V336H211.909V329.455H214.142V330.699H214.21C214.352 330.284 214.602 329.959 214.96 329.723C215.321 329.487 215.741 329.369 216.222 329.369C216.685 329.369 217.087 329.476 217.428 329.689C217.771 329.899 218.037 330.189 218.224 330.558C218.415 330.928 218.509 331.349 218.506 331.824V336H216.153V332.318C216.156 331.994 216.074 331.74 215.906 331.555C215.741 331.371 215.511 331.278 215.216 331.278C215.023 331.278 214.854 331.321 214.709 331.406C214.567 331.489 214.457 331.608 214.381 331.764C214.304 331.918 214.264 332.102 214.261 332.318ZM221.491 336.102C221.073 336.102 220.704 336.034 220.383 335.898C220.065 335.759 219.815 335.548 219.633 335.267C219.451 334.986 219.36 334.628 219.36 334.193C219.36 333.835 219.421 333.53 219.543 333.277C219.665 333.021 219.836 332.812 220.055 332.651C220.273 332.489 220.528 332.365 220.817 332.28C221.11 332.195 221.425 332.139 221.763 332.114C222.13 332.085 222.424 332.051 222.646 332.011C222.87 331.969 223.032 331.911 223.131 331.837C223.231 331.76 223.281 331.659 223.281 331.534V331.517C223.281 331.347 223.215 331.216 223.085 331.125C222.954 331.034 222.786 330.989 222.582 330.989C222.357 330.989 222.174 331.038 222.032 331.138C221.893 331.234 221.809 331.384 221.781 331.585H219.616C219.644 331.187 219.771 330.821 219.995 330.486C220.222 330.148 220.553 329.878 220.988 329.676C221.423 329.472 221.965 329.369 222.616 329.369C223.085 329.369 223.505 329.425 223.877 329.536C224.249 329.643 224.566 329.795 224.827 329.991C225.089 330.185 225.288 330.412 225.424 330.673C225.563 330.932 225.633 331.213 225.633 331.517V336H223.434V335.08H223.383C223.252 335.324 223.093 335.521 222.906 335.672C222.721 335.822 222.509 335.932 222.271 336C222.035 336.068 221.775 336.102 221.491 336.102ZM222.258 334.619C222.437 334.619 222.604 334.582 222.761 334.509C222.92 334.435 223.049 334.328 223.148 334.189C223.248 334.05 223.298 333.881 223.298 333.682V333.136C223.235 333.162 223.168 333.186 223.097 333.209C223.029 333.232 222.955 333.253 222.876 333.273C222.799 333.293 222.717 333.311 222.629 333.328C222.543 333.345 222.454 333.361 222.36 333.375C222.178 333.403 222.029 333.45 221.913 333.516C221.799 333.578 221.714 333.656 221.657 333.75C221.603 333.841 221.576 333.943 221.576 334.057C221.576 334.239 221.64 334.378 221.768 334.474C221.896 334.571 222.059 334.619 222.258 334.619ZM229.126 336.085C228.66 336.085 228.231 335.963 227.839 335.719C227.45 335.474 227.137 335.104 226.902 334.607C226.669 334.109 226.552 333.483 226.552 332.727C226.552 331.937 226.674 331.295 226.919 330.801C227.166 330.307 227.484 329.945 227.873 329.714C228.265 329.484 228.677 329.369 229.109 329.369C229.433 329.369 229.717 329.426 229.961 329.54C230.206 329.651 230.41 329.8 230.575 329.987C230.74 330.172 230.865 330.375 230.95 330.597H230.984V327.273H233.336V336H231.001V334.926H230.95C230.859 335.148 230.728 335.347 230.558 335.523C230.39 335.696 230.186 335.834 229.944 335.936C229.706 336.036 229.433 336.085 229.126 336.085ZM229.995 334.278C230.211 334.278 230.396 334.216 230.549 334.091C230.706 333.963 230.825 333.784 230.907 333.554C230.993 333.321 231.035 333.045 231.035 332.727C231.035 332.403 230.993 332.126 230.907 331.896C230.825 331.663 230.706 331.486 230.549 331.364C230.396 331.239 230.211 331.176 229.995 331.176C229.779 331.176 229.595 331.239 229.441 331.364C229.291 331.486 229.174 331.663 229.092 331.896C229.012 332.126 228.973 332.403 228.973 332.727C228.973 333.051 229.012 333.33 229.092 333.562C229.174 333.793 229.291 333.97 229.441 334.095C229.595 334.217 229.779 334.278 229.995 334.278ZM236.315 336.102C235.897 336.102 235.528 336.034 235.207 335.898C234.889 335.759 234.639 335.548 234.457 335.267C234.275 334.986 234.184 334.628 234.184 334.193C234.184 333.835 234.245 333.53 234.368 333.277C234.49 333.021 234.66 332.812 234.879 332.651C235.098 332.489 235.352 332.365 235.642 332.28C235.934 332.195 236.25 332.139 236.588 332.114C236.954 332.085 237.248 332.051 237.47 332.011C237.694 331.969 237.856 331.911 237.956 331.837C238.055 331.76 238.105 331.659 238.105 331.534V331.517C238.105 331.347 238.039 331.216 237.909 331.125C237.778 331.034 237.61 330.989 237.406 330.989C237.181 330.989 236.998 331.038 236.856 331.138C236.717 331.234 236.633 331.384 236.605 331.585H234.44C234.468 331.187 234.595 330.821 234.819 330.486C235.047 330.148 235.377 329.878 235.812 329.676C236.247 329.472 236.789 329.369 237.44 329.369C237.909 329.369 238.329 329.425 238.701 329.536C239.074 329.643 239.39 329.795 239.652 329.991C239.913 330.185 240.112 330.412 240.248 330.673C240.387 330.932 240.457 331.213 240.457 331.517V336H238.258V335.08H238.207C238.076 335.324 237.917 335.521 237.73 335.672C237.545 335.822 237.333 335.932 237.095 336C236.859 336.068 236.599 336.102 236.315 336.102ZM237.082 334.619C237.261 334.619 237.429 334.582 237.585 334.509C237.744 334.435 237.873 334.328 237.973 334.189C238.072 334.05 238.122 333.881 238.122 333.682V333.136C238.059 333.162 237.993 333.186 237.922 333.209C237.853 333.232 237.779 333.253 237.7 333.273C237.623 333.293 237.541 333.311 237.453 333.328C237.368 333.345 237.278 333.361 237.184 333.375C237.002 333.403 236.853 333.45 236.737 333.516C236.623 333.578 236.538 333.656 236.481 333.75C236.427 333.841 236.4 333.943 236.4 334.057C236.4 334.239 236.464 334.378 236.592 334.474C236.72 334.571 236.883 334.619 237.082 334.619ZM236.724 328.636L237.542 326.727H239.554L238.275 328.636H236.724Z" fill="white"/>
</g>
<g filter="url(#filter5_d_6831_632)">
<g clip-path="url(#clip3_6831_632)">
<rect width="16" height="12" transform="translate(570 417.5)" fill="white"/>
<path fill-rule="evenodd" clip-rule="evenodd" d="M574 417.5H586V429.5H574V417.5Z" fill="#EF0000"/>
<path fill-rule="evenodd" clip-rule="evenodd" d="M570 417.5H576V429.5H570V417.5Z" fill="#2F8D00"/>
<mask id="mask2_6831_632" style="mask-type:luminance" maskUnits="userSpaceOnUse" x="572" y="419" width="8" height="9">
<path fill-rule="evenodd" clip-rule="evenodd" d="M575.953 427.403C573.823 427.403 572.096 425.656 572.096 423.5C572.096 421.344 573.823 419.596 575.953 419.596C578.083 419.596 579.81 421.344 579.81 423.5C579.81 425.656 578.083 427.403 575.953 427.403Z" fill="white"/>
</mask>
<g mask="url(#mask2_6831_632)">
<path fill-rule="evenodd" clip-rule="evenodd" d="M575.715 419.5H576.215V420.849H575.715V419.5Z" fill="#FFE017"/>
<path fill-rule="evenodd" clip-rule="evenodd" d="M575.715 426.247H576.215V427.5H575.715V426.247Z" fill="#FFE017"/>
<path d="M572.157 423.702L572.018 423.343C573.56 422.727 574.724 422.33 575.514 422.151C576.674 421.888 577.947 421.694 579.335 421.568L579.369 421.952C577.997 422.077 576.74 422.268 575.598 422.527C574.831 422.701 573.683 423.092 572.157 423.702Z" fill="#FFE017"/>
<path d="M579.571 421.332L579.458 421.7C578.292 421.332 577.342 421.173 576.612 421.222L576.587 420.838C577.371 420.785 578.364 420.951 579.571 421.332Z" fill="#FFE017"/>
<path d="M579.975 423.39L579.759 423.708C579.165 423.295 578.433 423.088 577.558 423.088V422.702C578.506 422.702 579.314 422.931 579.975 423.39Z" fill="#FFE017"/>
<path d="M579.651 423.505L579.75 423.877C578.468 424.224 577.265 424.421 576.141 424.468C575.008 424.514 573.688 424.317 572.18 423.876L572.285 423.506C573.757 423.936 575.037 424.127 576.125 424.082C577.221 424.037 578.396 423.845 579.651 423.505Z" fill="#FFE017"/>
<path d="M579.506 425.318L578.904 425.935C577.76 424.792 576.752 423.974 575.888 423.483C575.009 422.984 573.862 422.476 572.45 421.963L572.74 421.147C574.193 421.675 575.382 422.201 576.308 422.727C577.248 423.261 578.312 424.125 579.506 425.318Z" fill="#FFE017"/>
<path d="M572.73 425.667L572.502 425.358C572.534 425.334 572.591 425.294 572.669 425.243C572.798 425.159 572.941 425.076 573.096 424.997C573.521 424.782 573.947 424.647 574.354 424.635C574.374 424.634 574.394 424.634 574.414 424.634V425.019C574.398 425.019 574.382 425.02 574.366 425.02C574.023 425.03 573.646 425.149 573.267 425.342C573.125 425.414 572.993 425.491 572.875 425.568C572.833 425.595 572.797 425.619 572.766 425.641C572.747 425.654 572.735 425.663 572.73 425.667Z" fill="#FFE017"/>
<path d="M572.906 425.801L573.002 425.428C574.272 425.762 575.251 425.929 575.935 425.929C576.616 425.929 577.629 425.732 578.968 425.338L579.075 425.708C577.704 426.112 576.659 426.315 575.935 426.315C575.213 426.315 574.205 426.143 572.906 425.801Z" fill="#FFE017"/>
<path d="M572.412 422.347L573.016 421.731L573.899 422.618L573.296 423.234L572.412 422.347Z" fill="#FFE017"/>
<path d="M577.418 425.424L577.867 424.685L579.269 425.557L578.82 426.296L577.418 425.424Z" fill="#FFE017"/>
</g>
<path fill-rule="evenodd" clip-rule="evenodd" d="M572.096 423.5C572.096 425.656 573.823 427.403 575.953 427.403C578.083 427.403 579.81 425.656 579.81 423.5C579.81 421.344 578.083 419.596 575.953 419.596C573.823 419.596 572.096 421.344 572.096 423.5ZM579.334 423.548C579.334 425.411 577.841 426.921 576 426.921C574.16 426.921 572.667 425.411 572.667 423.548C572.667 421.685 574.16 420.175 576 420.175C577.841 420.175 579.334 421.685 579.334 423.548Z" fill="#F9E813"/>
<path d="M573.829 421.093V424.223C574.035 425.462 574.729 426.082 575.912 426.082C577.094 426.082 577.788 425.462 577.994 424.223V421.093H573.829Z" fill="white"/>
<path d="M573.043 420.5H578.58V424.211L578.575 424.237C578.308 425.72 577.36 426.5 575.811 426.5C574.263 426.5 573.315 425.72 573.048 424.237L573.043 424.211V420.5Z" fill="#C51918"/>
<path fill-rule="evenodd" clip-rule="evenodd" d="M574.524 421.453H573.624V422.353H574.524V421.453ZM578.024 421.453H577.124V422.353H578.024V421.453Z" fill="#F9E813"/>
<path fill-rule="evenodd" clip-rule="evenodd" d="M573.624 423.453H574.524V424.353H573.624V423.453ZM577.174 423.467H578.074V424.367H577.174V423.467ZM577.187 424.925H576.287V425.825H577.187V424.925Z" fill="#F9E813"/>
<path fill-rule="evenodd" clip-rule="evenodd" d="M574.324 424.92H575.224V425.82H574.324V424.92Z" fill="#F9E813"/>
<path d="M574.427 421.855H577.397V424.076C577.397 424.076 577.176 425.223 575.912 425.223C574.647 425.223 574.427 424.076 574.427 424.076V421.855Z" fill="#F7FCFF"/>
<path d="M575.619 422.103H576.279V422.583C576.279 422.583 576.23 422.832 575.949 422.832C575.668 422.832 575.619 422.583 575.619 422.583V422.103Z" fill="#013399"/>
<path d="M575.619 423.163H576.279V423.643C576.279 423.643 576.23 423.892 575.949 423.892C575.668 423.892 575.619 423.643 575.619 423.643V423.163Z" fill="#013399"/>
<path d="M576.477 423.163H577.137V423.643C577.137 423.643 577.088 423.892 576.807 423.892C576.526 423.892 576.477 423.643 576.477 423.643V423.163Z" fill="#013399"/>
<path d="M574.763 423.163H575.423V423.643C575.423 423.643 575.374 423.892 575.093 423.892C574.812 423.892 574.763 423.643 574.763 423.643V423.163Z" fill="#013399"/>
<path d="M575.619 424.223H576.279V424.703C576.279 424.703 576.23 424.952 575.949 424.952C575.668 424.952 575.619 424.703 575.619 424.703V424.223Z" fill="#013399"/>
</g>
<path d="M594.562 428V419.273H598.33C598.977 419.273 599.544 419.401 600.03 419.656C600.516 419.912 600.893 420.271 601.163 420.734C601.433 421.197 601.568 421.739 601.568 422.358C601.568 422.983 601.429 423.524 601.151 423.982C600.875 424.439 600.487 424.791 599.987 425.038C599.49 425.286 598.909 425.409 598.244 425.409H595.994V423.568H597.767C598.045 423.568 598.283 423.52 598.479 423.423C598.678 423.324 598.83 423.183 598.935 423.001C599.043 422.82 599.097 422.605 599.097 422.358C599.097 422.108 599.043 421.895 598.935 421.719C598.83 421.54 598.678 421.403 598.479 421.31C598.283 421.213 598.045 421.165 597.767 421.165H596.932V428H594.562ZM605.484 428.119C604.774 428.119 604.166 427.979 603.661 427.697C603.155 427.413 602.767 427.018 602.497 426.513C602.227 426.004 602.092 425.415 602.092 424.744C602.092 424.074 602.227 423.486 602.497 422.98C602.767 422.472 603.155 422.077 603.661 421.795C604.166 421.511 604.774 421.369 605.484 421.369C606.195 421.369 606.803 421.511 607.308 421.795C607.814 422.077 608.202 422.472 608.472 422.98C608.741 423.486 608.876 424.074 608.876 424.744C608.876 425.415 608.741 426.004 608.472 426.513C608.202 427.018 607.814 427.413 607.308 427.697C606.803 427.979 606.195 428.119 605.484 428.119ZM605.501 426.381C605.7 426.381 605.872 426.314 606.017 426.18C606.162 426.047 606.274 425.857 606.354 425.609C606.433 425.362 606.473 425.068 606.473 424.727C606.473 424.384 606.433 424.089 606.354 423.845C606.274 423.598 606.162 423.408 606.017 423.274C605.872 423.141 605.7 423.074 605.501 423.074C605.291 423.074 605.111 423.141 604.96 423.274C604.81 423.408 604.695 423.598 604.615 423.845C604.536 424.089 604.496 424.384 604.496 424.727C604.496 425.068 604.536 425.362 604.615 425.609C604.695 425.857 604.81 426.047 604.96 426.18C605.111 426.314 605.291 426.381 605.501 426.381ZM609.831 428V421.455H612.115V422.699H612.183C612.303 422.239 612.491 421.902 612.75 421.689C613.011 421.476 613.317 421.369 613.666 421.369C613.768 421.369 613.869 421.378 613.969 421.395C614.071 421.409 614.169 421.43 614.263 421.459V423.466C614.146 423.426 614.003 423.396 613.832 423.376C613.662 423.357 613.516 423.347 613.393 423.347C613.163 423.347 612.956 423.399 612.771 423.504C612.589 423.607 612.446 423.751 612.341 423.939C612.236 424.124 612.183 424.341 612.183 424.591V428H609.831ZM619.207 421.455V423.159H614.895V421.455H619.207ZM615.73 419.886H618.082V425.895C618.082 425.986 618.098 426.062 618.129 426.125C618.16 426.185 618.208 426.23 618.274 426.261C618.339 426.29 618.423 426.304 618.525 426.304C618.596 426.304 618.679 426.295 618.772 426.278C618.869 426.261 618.94 426.247 618.985 426.236L619.326 427.889C619.221 427.92 619.071 427.959 618.875 428.004C618.681 428.05 618.451 428.08 618.184 428.094C617.645 428.122 617.191 428.067 616.825 427.928C616.458 427.786 616.183 427.562 615.998 427.259C615.814 426.955 615.724 426.574 615.73 426.116V419.886ZM624.411 425.136V421.455H626.763V428H624.531V426.756H624.462C624.32 427.173 624.072 427.5 623.717 427.736C623.362 427.969 622.94 428.085 622.451 428.085C621.994 428.085 621.593 427.98 621.249 427.77C620.908 427.56 620.643 427.27 620.452 426.901C620.265 426.531 620.17 426.108 620.167 425.631V421.455H622.519V425.136C622.522 425.46 622.604 425.714 622.766 425.899C622.931 426.084 623.161 426.176 623.457 426.176C623.653 426.176 623.822 426.135 623.964 426.053C624.109 425.967 624.219 425.848 624.296 425.695C624.376 425.538 624.414 425.352 624.411 425.136ZM631.113 430.591C630.457 430.591 629.895 430.497 629.426 430.31C628.96 430.125 628.598 429.869 628.339 429.543C628.083 429.219 627.94 428.847 627.909 428.426H630.176C630.199 428.565 630.255 428.678 630.346 428.763C630.437 428.848 630.554 428.909 630.696 428.946C630.841 428.986 631.002 429.006 631.181 429.006C631.485 429.006 631.737 428.932 631.936 428.784C632.137 428.636 632.238 428.369 632.238 427.983V426.875H632.17C632.085 427.097 631.954 427.286 631.778 427.442C631.602 427.595 631.39 427.713 631.143 427.795C630.896 427.875 630.625 427.915 630.329 427.915C629.863 427.915 629.434 427.807 629.042 427.591C628.653 427.375 628.341 427.033 628.105 426.564C627.872 426.095 627.755 425.483 627.755 424.727C627.755 423.937 627.877 423.295 628.122 422.801C628.369 422.307 628.687 421.945 629.076 421.714C629.468 421.484 629.88 421.369 630.312 421.369C630.636 421.369 630.92 421.426 631.164 421.54C631.409 421.651 631.613 421.8 631.778 421.987C631.943 422.172 632.068 422.375 632.153 422.597H632.204V421.455H634.556V427.983C634.556 428.537 634.413 429.007 634.126 429.393C633.842 429.783 633.441 430.08 632.924 430.284C632.407 430.489 631.804 430.591 631.113 430.591ZM631.199 426.244C631.414 426.244 631.599 426.185 631.752 426.065C631.909 425.943 632.028 425.77 632.11 425.545C632.196 425.318 632.238 425.045 632.238 424.727C632.238 424.403 632.196 424.126 632.11 423.896C632.028 423.663 631.909 423.486 631.752 423.364C631.599 423.239 631.414 423.176 631.199 423.176C630.983 423.176 630.798 423.239 630.645 423.364C630.494 423.486 630.377 423.663 630.295 423.896C630.216 424.126 630.176 424.403 630.176 424.727C630.176 425.051 630.216 425.327 630.295 425.554C630.377 425.778 630.494 425.95 630.645 426.07C630.798 426.186 630.983 426.244 631.199 426.244ZM637.577 428.102C637.159 428.102 636.79 428.034 636.469 427.898C636.151 427.759 635.901 427.548 635.719 427.267C635.537 426.986 635.446 426.628 635.446 426.193C635.446 425.835 635.507 425.53 635.629 425.277C635.751 425.021 635.922 424.812 636.141 424.651C636.359 424.489 636.614 424.365 636.903 424.28C637.196 424.195 637.511 424.139 637.849 424.114C638.216 424.085 638.51 424.051 638.732 424.011C638.956 423.969 639.118 423.911 639.217 423.837C639.317 423.76 639.366 423.659 639.366 423.534V423.517C639.366 423.347 639.301 423.216 639.17 423.125C639.04 423.034 638.872 422.989 638.668 422.989C638.443 422.989 638.26 423.038 638.118 423.138C637.979 423.234 637.895 423.384 637.866 423.585H635.702C635.73 423.187 635.857 422.821 636.081 422.486C636.308 422.148 636.639 421.878 637.074 421.676C637.509 421.472 638.051 421.369 638.702 421.369C639.17 421.369 639.591 421.425 639.963 421.536C640.335 421.643 640.652 421.795 640.913 421.991C641.175 422.185 641.374 422.412 641.51 422.673C641.649 422.932 641.719 423.213 641.719 423.517V428H639.52V427.08H639.469C639.338 427.324 639.179 427.521 638.991 427.672C638.807 427.822 638.595 427.932 638.357 428C638.121 428.068 637.861 428.102 637.577 428.102ZM638.344 426.619C638.523 426.619 638.69 426.582 638.847 426.509C639.006 426.435 639.135 426.328 639.234 426.189C639.334 426.05 639.384 425.881 639.384 425.682V425.136C639.321 425.162 639.254 425.186 639.183 425.209C639.115 425.232 639.041 425.253 638.962 425.273C638.885 425.293 638.803 425.311 638.714 425.328C638.629 425.345 638.54 425.361 638.446 425.375C638.264 425.403 638.115 425.45 637.999 425.516C637.885 425.578 637.8 425.656 637.743 425.75C637.689 425.841 637.662 425.943 637.662 426.057C637.662 426.239 637.726 426.378 637.854 426.474C637.982 426.571 638.145 426.619 638.344 426.619ZM645.195 419.273V428H642.843V419.273H645.195Z" fill="white"/>
</g>
<g filter="url(#filter6_d_6831_632)">
<g clip-path="url(#clip4_6831_632)">
<rect width="16" height="12" transform="translate(635 359.5)" fill="white"/>
<path fill-rule="evenodd" clip-rule="evenodd" d="M635 367.5H651V371.5H635V367.5Z" fill="#FFD018"/>
<path fill-rule="evenodd" clip-rule="evenodd" d="M635 363.5H651V367.5H635V363.5Z" fill="#E31D1C"/>
<path fill-rule="evenodd" clip-rule="evenodd" d="M635 359.5H651V363.5H635V359.5Z" fill="#272727"/>
</g>
<path d="M661.83 370H659.273L662.153 361.273H665.392L668.273 370H665.716L663.807 363.676H663.739L661.83 370ZM661.352 366.557H666.159V368.33H661.352V366.557ZM671.5 361.273V370H669.147V361.273H671.5ZM675.835 370.119C675.136 370.119 674.533 369.986 674.028 369.719C673.525 369.449 673.137 369.062 672.864 368.56C672.594 368.054 672.46 367.449 672.46 366.744C672.46 366.068 672.596 365.477 672.869 364.972C673.141 364.466 673.526 364.072 674.023 363.791C674.521 363.51 675.107 363.369 675.783 363.369C676.278 363.369 676.725 363.446 677.126 363.599C677.526 363.753 677.869 363.976 678.153 364.268C678.437 364.558 678.656 364.911 678.809 365.325C678.962 365.74 679.039 366.207 679.039 366.727V367.273H673.192V365.977H676.874C676.871 365.79 676.823 365.625 676.729 365.483C676.638 365.338 676.515 365.226 676.359 365.146C676.205 365.064 676.031 365.023 675.835 365.023C675.644 365.023 675.469 365.064 675.31 365.146C675.151 365.226 675.023 365.337 674.927 365.479C674.833 365.621 674.783 365.787 674.778 365.977V367.375C674.778 367.585 674.822 367.773 674.91 367.938C674.998 368.102 675.124 368.232 675.289 368.325C675.454 368.419 675.653 368.466 675.886 368.466C676.048 368.466 676.195 368.443 676.329 368.398C676.465 368.352 676.582 368.287 676.678 368.202C676.775 368.114 676.846 368.009 676.891 367.886H679.039C678.965 368.341 678.79 368.736 678.515 369.071C678.239 369.403 677.874 369.662 677.42 369.847C676.968 370.028 676.44 370.119 675.835 370.119ZM679.999 370V363.455H682.232V364.699H682.3C682.436 364.29 682.669 363.966 682.999 363.727C683.328 363.489 683.721 363.369 684.175 363.369C684.635 363.369 685.032 363.491 685.364 363.736C685.696 363.977 685.897 364.298 685.965 364.699H686.033C686.144 364.298 686.38 363.977 686.74 363.736C687.101 363.491 687.525 363.369 688.01 363.369C688.638 363.369 689.147 363.571 689.536 363.974C689.928 364.378 690.124 364.915 690.124 365.585V370H687.772V366.182C687.772 365.895 687.699 365.67 687.554 365.509C687.409 365.344 687.215 365.261 686.971 365.261C686.729 365.261 686.537 365.344 686.395 365.509C686.256 365.67 686.186 365.895 686.186 366.182V370H683.936V366.182C683.936 365.895 683.864 365.67 683.719 365.509C683.574 365.344 683.38 365.261 683.135 365.261C682.973 365.261 682.834 365.298 682.718 365.372C682.601 365.446 682.51 365.553 682.445 365.692C682.382 365.828 682.351 365.991 682.351 366.182V370H679.999ZM693.108 370.102C692.69 370.102 692.321 370.034 692 369.898C691.682 369.759 691.432 369.548 691.25 369.267C691.068 368.986 690.977 368.628 690.977 368.193C690.977 367.835 691.038 367.53 691.161 367.277C691.283 367.021 691.453 366.812 691.672 366.651C691.891 366.489 692.145 366.365 692.435 366.28C692.727 366.195 693.043 366.139 693.381 366.114C693.747 366.085 694.041 366.051 694.263 366.011C694.487 365.969 694.649 365.911 694.749 365.837C694.848 365.76 694.898 365.659 694.898 365.534V365.517C694.898 365.347 694.832 365.216 694.702 365.125C694.571 365.034 694.403 364.989 694.199 364.989C693.974 364.989 693.791 365.038 693.649 365.138C693.51 365.234 693.426 365.384 693.398 365.585H691.233C691.261 365.187 691.388 364.821 691.612 364.486C691.839 364.148 692.17 363.878 692.605 363.676C693.04 363.472 693.582 363.369 694.233 363.369C694.702 363.369 695.122 363.425 695.494 363.536C695.866 363.643 696.183 363.795 696.445 363.991C696.706 364.185 696.905 364.412 697.041 364.673C697.18 364.932 697.25 365.213 697.25 365.517V370H695.051V369.08H695C694.869 369.324 694.71 369.521 694.523 369.672C694.338 369.822 694.126 369.932 693.888 370C693.652 370.068 693.392 370.102 693.108 370.102ZM693.875 368.619C694.054 368.619 694.222 368.582 694.378 368.509C694.537 368.435 694.666 368.328 694.766 368.189C694.865 368.05 694.915 367.881 694.915 367.682V367.136C694.852 367.162 694.786 367.186 694.714 367.209C694.646 367.232 694.572 367.253 694.493 367.273C694.416 367.293 694.334 367.311 694.246 367.328C694.161 367.345 694.071 367.361 693.977 367.375C693.795 367.403 693.646 367.45 693.53 367.516C693.416 367.578 693.331 367.656 693.274 367.75C693.22 367.841 693.193 367.943 693.193 368.057C693.193 368.239 693.257 368.378 693.385 368.474C693.513 368.571 693.676 368.619 693.875 368.619ZM700.726 366.318V370H698.374V363.455H700.607V364.699H700.675C700.817 364.284 701.067 363.959 701.425 363.723C701.786 363.487 702.206 363.369 702.686 363.369C703.15 363.369 703.551 363.476 703.892 363.689C704.236 363.899 704.502 364.189 704.689 364.558C704.88 364.928 704.973 365.349 704.971 365.824V370H702.618V366.318C702.621 365.994 702.539 365.74 702.371 365.555C702.206 365.371 701.976 365.278 701.681 365.278C701.488 365.278 701.319 365.321 701.174 365.406C701.032 365.489 700.922 365.608 700.846 365.764C700.769 365.918 700.729 366.102 700.726 366.318ZM708.484 366.318V370H706.132V361.273H708.399V364.699H708.467C708.615 364.281 708.86 363.956 709.204 363.723C709.548 363.487 709.961 363.369 710.444 363.369C710.907 363.369 711.309 363.474 711.65 363.685C711.994 363.895 712.26 364.185 712.447 364.554C712.637 364.923 712.731 365.347 712.728 365.824V370H710.376V366.318C710.379 365.994 710.298 365.74 710.133 365.555C709.971 365.371 709.74 365.278 709.439 365.278C709.248 365.278 709.081 365.321 708.936 365.406C708.794 365.489 708.683 365.608 708.603 365.764C708.527 365.918 708.487 366.102 708.484 366.318ZM715.713 370.102C715.296 370.102 714.926 370.034 714.605 369.898C714.287 369.759 714.037 369.548 713.855 369.267C713.674 368.986 713.583 368.628 713.583 368.193C713.583 367.835 713.644 367.53 713.766 367.277C713.888 367.021 714.059 366.812 714.277 366.651C714.496 366.489 714.75 366.365 715.04 366.28C715.333 366.195 715.648 366.139 715.986 366.114C716.353 366.085 716.647 366.051 716.868 366.011C717.093 365.969 717.255 365.911 717.354 365.837C717.453 365.76 717.503 365.659 717.503 365.534V365.517C717.503 365.347 717.438 365.216 717.307 365.125C717.176 365.034 717.009 364.989 716.804 364.989C716.58 364.989 716.397 365.038 716.255 365.138C716.115 365.234 716.032 365.384 716.003 365.585H713.838C713.867 365.187 713.993 364.821 714.218 364.486C714.445 364.148 714.776 363.878 715.211 363.676C715.645 363.472 716.188 363.369 716.838 363.369C717.307 363.369 717.728 363.425 718.1 363.536C718.472 363.643 718.789 363.795 719.05 363.991C719.311 364.185 719.51 364.412 719.647 364.673C719.786 364.932 719.855 365.213 719.855 365.517V370H717.657V369.08H717.605C717.475 369.324 717.316 369.521 717.128 369.672C716.944 369.822 716.732 369.932 716.493 370C716.257 370.068 715.998 370.102 715.713 370.102ZM716.48 368.619C716.659 368.619 716.827 368.582 716.983 368.509C717.142 368.435 717.272 368.328 717.371 368.189C717.471 368.05 717.52 367.881 717.52 367.682V367.136C717.458 367.162 717.391 367.186 717.32 367.209C717.252 367.232 717.178 367.253 717.098 367.273C717.022 367.293 716.939 367.311 716.851 367.328C716.766 367.345 716.676 367.361 716.583 367.375C716.401 367.403 716.252 367.45 716.135 367.516C716.022 367.578 715.936 367.656 715.88 367.75C715.826 367.841 715.799 367.943 715.799 368.057C715.799 368.239 715.863 368.378 715.99 368.474C716.118 368.571 716.282 368.619 716.48 368.619Z" fill="white"/>
</g>
<g filter="url(#filter7_d_6831_632)">
<g clip-path="url(#clip5_6831_632)">
<rect width="16" height="12" transform="translate(587 332.5)" fill="white"/>
<rect x="587" y="332.5" width="16" height="12" fill="#F7FCFF"/>
<path fill-rule="evenodd" clip-rule="evenodd" d="M595.875 332.5H594.097V337.5H587V339.5H594.097V344.5H595.875V339.5H603V337.5H595.875V332.5Z" fill="#F50302"/>
</g>
<path d="M613.932 334.273V343H611.562V334.273H613.932ZM617.441 339.318V343H615.089V336.455H617.322V337.699H617.39C617.532 337.284 617.782 336.959 618.14 336.723C618.501 336.487 618.921 336.369 619.401 336.369C619.864 336.369 620.266 336.476 620.607 336.689C620.951 336.899 621.217 337.189 621.404 337.558C621.594 337.928 621.688 338.349 621.685 338.824V343H619.333V339.318C619.336 338.994 619.254 338.74 619.086 338.555C618.921 338.371 618.691 338.278 618.396 338.278C618.202 338.278 618.033 338.321 617.888 338.406C617.746 338.489 617.637 338.608 617.56 338.764C617.484 338.918 617.444 339.102 617.441 339.318ZM626 345.591C625.344 345.591 624.781 345.497 624.312 345.31C623.847 345.125 623.484 344.869 623.226 344.543C622.97 344.219 622.827 343.847 622.795 343.426H625.062C625.085 343.565 625.142 343.678 625.233 343.763C625.324 343.848 625.44 343.909 625.582 343.946C625.727 343.986 625.889 344.006 626.068 344.006C626.372 344.006 626.624 343.932 626.822 343.784C627.024 343.636 627.125 343.369 627.125 342.983V341.875H627.057C626.972 342.097 626.841 342.286 626.665 342.442C626.489 342.595 626.277 342.713 626.03 342.795C625.783 342.875 625.511 342.915 625.216 342.915C624.75 342.915 624.321 342.807 623.929 342.591C623.54 342.375 623.227 342.033 622.991 341.564C622.759 341.095 622.642 340.483 622.642 339.727C622.642 338.937 622.764 338.295 623.009 337.801C623.256 337.307 623.574 336.945 623.963 336.714C624.355 336.484 624.767 336.369 625.199 336.369C625.523 336.369 625.807 336.426 626.051 336.54C626.295 336.651 626.5 336.8 626.665 336.987C626.83 337.172 626.955 337.375 627.04 337.597H627.091V336.455H629.443V342.983C629.443 343.537 629.3 344.007 629.013 344.393C628.729 344.783 628.328 345.08 627.811 345.284C627.294 345.489 626.69 345.591 626 345.591ZM626.085 341.244C626.301 341.244 626.486 341.185 626.639 341.065C626.795 340.943 626.915 340.77 626.997 340.545C627.082 340.318 627.125 340.045 627.125 339.727C627.125 339.403 627.082 339.126 626.997 338.896C626.915 338.663 626.795 338.486 626.639 338.364C626.486 338.239 626.301 338.176 626.085 338.176C625.869 338.176 625.685 338.239 625.531 338.364C625.381 338.486 625.264 338.663 625.182 338.896C625.102 339.126 625.062 339.403 625.062 339.727C625.062 340.051 625.102 340.327 625.182 340.554C625.264 340.778 625.381 340.95 625.531 341.07C625.685 341.186 625.869 341.244 626.085 341.244ZM632.992 334.273V343H630.64V334.273H632.992ZM636.014 343.102C635.597 343.102 635.227 343.034 634.906 342.898C634.588 342.759 634.338 342.548 634.156 342.267C633.974 341.986 633.884 341.628 633.884 341.193C633.884 340.835 633.945 340.53 634.067 340.277C634.189 340.021 634.359 339.812 634.578 339.651C634.797 339.489 635.051 339.365 635.341 339.28C635.634 339.195 635.949 339.139 636.287 339.114C636.653 339.085 636.947 339.051 637.169 339.011C637.393 338.969 637.555 338.911 637.655 338.837C637.754 338.76 637.804 338.659 637.804 338.534V338.517C637.804 338.347 637.739 338.216 637.608 338.125C637.477 338.034 637.31 337.989 637.105 337.989C636.881 337.989 636.697 338.038 636.555 338.138C636.416 338.234 636.332 338.384 636.304 338.585H634.139C634.168 338.187 634.294 337.821 634.518 337.486C634.746 337.148 635.077 336.878 635.511 336.676C635.946 336.472 636.489 336.369 637.139 336.369C637.608 336.369 638.028 336.425 638.401 336.536C638.773 336.643 639.089 336.795 639.351 336.991C639.612 337.185 639.811 337.412 639.947 337.673C640.087 337.932 640.156 338.213 640.156 338.517V343H637.957V342.08H637.906C637.776 342.324 637.616 342.521 637.429 342.672C637.244 342.822 637.033 342.932 636.794 343C636.558 343.068 636.298 343.102 636.014 343.102ZM636.781 341.619C636.96 341.619 637.128 341.582 637.284 341.509C637.443 341.435 637.572 341.328 637.672 341.189C637.771 341.05 637.821 340.881 637.821 340.682V340.136C637.759 340.162 637.692 340.186 637.621 340.209C637.553 340.232 637.479 340.253 637.399 340.273C637.322 340.293 637.24 340.311 637.152 340.328C637.067 340.345 636.977 340.361 636.884 340.375C636.702 340.403 636.553 340.45 636.436 340.516C636.322 340.578 636.237 340.656 636.18 340.75C636.126 340.841 636.099 340.943 636.099 341.057C636.099 341.239 636.163 341.378 636.291 341.474C636.419 341.571 636.582 341.619 636.781 341.619ZM645.184 336.455V338.159H640.871V336.455H645.184ZM641.706 334.886H644.059V340.895C644.059 340.986 644.074 341.062 644.105 341.125C644.137 341.185 644.185 341.23 644.25 341.261C644.316 341.29 644.4 341.304 644.502 341.304C644.573 341.304 644.655 341.295 644.749 341.278C644.846 341.261 644.917 341.247 644.962 341.236L645.303 342.889C645.198 342.92 645.047 342.959 644.851 343.004C644.658 343.05 644.428 343.08 644.161 343.094C643.621 343.122 643.168 343.067 642.801 342.928C642.435 342.786 642.159 342.562 641.975 342.259C641.79 341.955 641.701 341.574 641.706 341.116V334.886ZM649.21 343.119C648.511 343.119 647.908 342.986 647.403 342.719C646.9 342.449 646.512 342.062 646.239 341.56C645.969 341.054 645.835 340.449 645.835 339.744C645.835 339.068 645.971 338.477 646.244 337.972C646.516 337.466 646.901 337.072 647.398 336.791C647.896 336.51 648.482 336.369 649.158 336.369C649.653 336.369 650.1 336.446 650.501 336.599C650.901 336.753 651.244 336.976 651.528 337.268C651.812 337.558 652.031 337.911 652.184 338.325C652.337 338.74 652.414 339.207 652.414 339.727V340.273H646.567V338.977H650.249C650.246 338.79 650.198 338.625 650.104 338.483C650.013 338.338 649.89 338.226 649.734 338.146C649.58 338.064 649.406 338.023 649.21 338.023C649.019 338.023 648.844 338.064 648.685 338.146C648.526 338.226 648.398 338.337 648.302 338.479C648.208 338.621 648.158 338.787 648.153 338.977V340.375C648.153 340.585 648.197 340.773 648.285 340.938C648.373 341.102 648.499 341.232 648.664 341.325C648.829 341.419 649.028 341.466 649.261 341.466C649.423 341.466 649.57 341.443 649.704 341.398C649.84 341.352 649.957 341.287 650.053 341.202C650.15 341.114 650.221 341.009 650.266 340.886H652.414C652.34 341.341 652.165 341.736 651.89 342.071C651.614 342.403 651.249 342.662 650.795 342.847C650.343 343.028 649.815 343.119 649.21 343.119ZM653.374 343V336.455H655.658V337.699H655.726C655.846 337.239 656.034 336.902 656.293 336.689C656.554 336.476 656.86 336.369 657.209 336.369C657.311 336.369 657.412 336.378 657.512 336.395C657.614 336.409 657.712 336.43 657.806 336.459V338.466C657.689 338.426 657.546 338.396 657.375 338.376C657.205 338.357 657.059 338.347 656.936 338.347C656.706 338.347 656.499 338.399 656.314 338.504C656.132 338.607 655.989 338.751 655.884 338.939C655.779 339.124 655.726 339.341 655.726 339.591V343H653.374ZM658.577 343V336.455H660.861V337.699H660.929C661.049 337.239 661.238 336.902 661.496 336.689C661.757 336.476 662.063 336.369 662.412 336.369C662.515 336.369 662.615 336.378 662.715 336.395C662.817 336.409 662.915 336.43 663.009 336.459V338.466C662.892 338.426 662.749 338.396 662.578 338.376C662.408 338.357 662.262 338.347 662.14 338.347C661.909 338.347 661.702 338.399 661.517 338.504C661.336 338.607 661.192 338.751 661.087 338.939C660.982 339.124 660.929 339.341 660.929 339.591V343H658.577ZM665.299 343.102C664.882 343.102 664.512 343.034 664.191 342.898C663.873 342.759 663.623 342.548 663.441 342.267C663.26 341.986 663.169 341.628 663.169 341.193C663.169 340.835 663.23 340.53 663.352 340.277C663.474 340.021 663.645 339.812 663.863 339.651C664.082 339.489 664.336 339.365 664.626 339.28C664.919 339.195 665.234 339.139 665.572 339.114C665.939 339.085 666.233 339.051 666.454 339.011C666.679 338.969 666.841 338.911 666.94 338.837C667.039 338.76 667.089 338.659 667.089 338.534V338.517C667.089 338.347 667.024 338.216 666.893 338.125C666.762 338.034 666.595 337.989 666.39 337.989C666.166 337.989 665.983 338.038 665.841 338.138C665.701 338.234 665.618 338.384 665.589 338.585H663.424C663.453 338.187 663.579 337.821 663.804 337.486C664.031 337.148 664.362 336.878 664.797 336.676C665.231 336.472 665.774 336.369 666.424 336.369C666.893 336.369 667.314 336.425 667.686 336.536C668.058 336.643 668.375 336.795 668.636 336.991C668.897 337.185 669.096 337.412 669.233 337.673C669.372 337.932 669.441 338.213 669.441 338.517V343H667.243V342.08H667.191C667.061 342.324 666.902 342.521 666.714 342.672C666.529 342.822 666.318 342.932 666.079 343C665.843 343.068 665.583 343.102 665.299 343.102ZM666.066 341.619C666.245 341.619 666.413 341.582 666.569 341.509C666.728 341.435 666.858 341.328 666.957 341.189C667.056 341.05 667.106 340.881 667.106 340.682V340.136C667.044 340.162 666.977 340.186 666.906 340.209C666.838 340.232 666.764 340.253 666.684 340.273C666.608 340.293 666.525 340.311 666.437 340.328C666.352 340.345 666.262 340.361 666.169 340.375C665.987 340.403 665.838 340.45 665.721 340.516C665.608 340.578 665.522 340.656 665.466 340.75C665.412 340.841 665.385 340.943 665.385 341.057C665.385 341.239 665.449 341.378 665.576 341.474C665.704 341.571 665.868 341.619 666.066 341.619Z" fill="white"/>
</g>
<g filter="url(#filter8_d_6831_632)">
<g clip-path="url(#clip6_6831_632)">
<rect width="16" height="12" transform="translate(625 389.5)" fill="white"/>
<path fill-rule="evenodd" clip-rule="evenodd" d="M625 389.5V401.5H641V389.5H625Z" fill="#E31D1C"/>
<mask id="mask3_6831_632" style="mask-type:luminance" maskUnits="userSpaceOnUse" x="625" y="389" width="16" height="13">
<path fill-rule="evenodd" clip-rule="evenodd" d="M625 389.5V401.5H641V389.5H625Z" fill="white"/>
</mask>
<g mask="url(#mask3_6831_632)">
<path fill-rule="evenodd" clip-rule="evenodd" d="M634 392.5H632V394.5H630V396.5H632V398.5H634V396.5H636V394.5H634V392.5Z" fill="#F1F9FF"/>
</g>
</g>
<path d="M654.267 394C654.244 393.716 654.138 393.494 653.947 393.335C653.76 393.176 653.474 393.097 653.091 393.097C652.847 393.097 652.646 393.126 652.49 393.186C652.337 393.243 652.223 393.321 652.149 393.42C652.075 393.52 652.037 393.634 652.034 393.761C652.028 393.866 652.047 393.962 652.089 394.047C652.135 394.129 652.206 394.205 652.303 394.273C652.399 394.338 652.523 394.398 652.673 394.452C652.824 394.506 653.003 394.554 653.21 394.597L653.926 394.75C654.409 394.852 654.822 394.987 655.166 395.155C655.51 395.322 655.791 395.52 656.01 395.747C656.229 395.972 656.389 396.224 656.491 396.506C656.597 396.787 656.651 397.094 656.653 397.426C656.651 398 656.507 398.486 656.223 398.884C655.939 399.281 655.533 399.584 655.004 399.791C654.479 399.999 653.847 400.102 653.108 400.102C652.349 400.102 651.688 399.99 651.122 399.766C650.56 399.541 650.122 399.196 649.81 398.73C649.5 398.261 649.344 397.662 649.341 396.932H651.591C651.605 397.199 651.672 397.423 651.791 397.605C651.911 397.787 652.078 397.925 652.294 398.018C652.513 398.112 652.773 398.159 653.074 398.159C653.327 398.159 653.538 398.128 653.709 398.065C653.879 398.003 654.009 397.916 654.097 397.805C654.185 397.695 654.23 397.568 654.233 397.426C654.23 397.293 654.186 397.176 654.101 397.077C654.018 396.974 653.882 396.884 653.692 396.804C653.501 396.722 653.244 396.645 652.92 396.574L652.051 396.386C651.278 396.219 650.669 395.939 650.223 395.547C649.78 395.152 649.56 394.614 649.562 393.932C649.56 393.378 649.707 392.893 650.006 392.479C650.307 392.061 650.723 391.736 651.254 391.503C651.788 391.27 652.401 391.153 653.091 391.153C653.795 391.153 654.405 391.271 654.919 391.507C655.433 391.743 655.83 392.075 656.108 392.504C656.389 392.93 656.531 393.429 656.534 394H654.267ZM661.833 397.136V393.455H664.185V400H661.952V398.756H661.884C661.742 399.173 661.494 399.5 661.138 399.736C660.783 399.969 660.362 400.085 659.873 400.085C659.415 400.085 659.015 399.98 658.671 399.77C658.33 399.56 658.065 399.27 657.874 398.901C657.687 398.531 657.592 398.108 657.589 397.631V393.455H659.941V397.136C659.944 397.46 660.026 397.714 660.188 397.899C660.353 398.084 660.583 398.176 660.879 398.176C661.075 398.176 661.244 398.135 661.386 398.053C661.531 397.967 661.641 397.848 661.718 397.695C661.798 397.538 661.836 397.352 661.833 397.136ZM665.382 400V393.455H667.734V400H665.382ZM665.774 392.636L666.592 390.727H668.603L667.325 392.636H665.774ZM672.086 400.119C671.376 400.119 670.768 399.979 670.262 399.697C669.756 399.413 669.369 399.018 669.099 398.513C668.829 398.004 668.694 397.415 668.694 396.744C668.694 396.074 668.829 395.486 669.099 394.98C669.369 394.472 669.756 394.077 670.262 393.795C670.768 393.511 671.376 393.369 672.086 393.369C672.728 393.369 673.283 393.486 673.752 393.719C674.224 393.949 674.589 394.276 674.847 394.699C675.106 395.119 675.237 395.614 675.239 396.182H673.058C673.026 395.838 672.927 395.577 672.759 395.398C672.594 395.216 672.381 395.125 672.12 395.125C671.915 395.125 671.737 395.185 671.583 395.304C671.43 395.42 671.31 395.598 671.225 395.837C671.14 396.072 671.097 396.369 671.097 396.727C671.097 397.085 671.14 397.384 671.225 397.622C671.31 397.858 671.43 398.036 671.583 398.155C671.737 398.271 671.915 398.33 672.12 398.33C672.293 398.33 672.447 398.29 672.58 398.21C672.714 398.128 672.822 398.009 672.904 397.852C672.989 397.693 673.04 397.5 673.058 397.273H675.239C675.231 397.849 675.099 398.352 674.843 398.781C674.587 399.207 674.225 399.537 673.756 399.77C673.29 400.003 672.734 400.119 672.086 400.119ZM671.694 399.966H672.529L672.461 400.358C672.799 400.409 673.062 400.528 673.249 400.716C673.437 400.903 673.532 401.136 673.535 401.415C673.54 401.875 673.315 402.237 672.857 402.501C672.403 402.766 671.776 402.898 670.978 402.898V401.994C671.398 401.994 671.719 401.949 671.941 401.858C672.163 401.77 672.279 401.639 672.29 401.466C672.302 401.307 672.239 401.175 672.103 401.07C671.969 400.967 671.765 400.895 671.489 400.852L671.694 399.966ZM678.034 400.102C677.616 400.102 677.247 400.034 676.926 399.898C676.608 399.759 676.358 399.548 676.176 399.267C675.994 398.986 675.903 398.628 675.903 398.193C675.903 397.835 675.964 397.53 676.086 397.277C676.208 397.021 676.379 396.812 676.598 396.651C676.816 396.489 677.071 396.365 677.36 396.28C677.653 396.195 677.968 396.139 678.306 396.114C678.673 396.085 678.967 396.051 679.189 396.011C679.413 395.969 679.575 395.911 679.674 395.837C679.774 395.76 679.824 395.659 679.824 395.534V395.517C679.824 395.347 679.758 395.216 679.627 395.125C679.497 395.034 679.329 394.989 679.125 394.989C678.9 394.989 678.717 395.038 678.575 395.138C678.436 395.234 678.352 395.384 678.324 395.585H676.159C676.187 395.187 676.314 394.821 676.538 394.486C676.765 394.148 677.096 393.878 677.531 393.676C677.966 393.472 678.508 393.369 679.159 393.369C679.627 393.369 680.048 393.425 680.42 393.536C680.792 393.643 681.109 393.795 681.37 393.991C681.632 394.185 681.831 394.412 681.967 394.673C682.106 394.932 682.176 395.213 682.176 395.517V400H679.977V399.08H679.926C679.795 399.324 679.636 399.521 679.449 399.672C679.264 399.822 679.052 399.932 678.814 400C678.578 400.068 678.318 400.102 678.034 400.102ZM678.801 398.619C678.98 398.619 679.147 398.582 679.304 398.509C679.463 398.435 679.592 398.328 679.691 398.189C679.791 398.05 679.841 397.881 679.841 397.682V397.136C679.778 397.162 679.711 397.186 679.64 397.209C679.572 397.232 679.498 397.253 679.419 397.273C679.342 397.293 679.26 397.311 679.172 397.328C679.086 397.345 678.997 397.361 678.903 397.375C678.721 397.403 678.572 397.45 678.456 397.516C678.342 397.578 678.257 397.656 678.2 397.75C678.146 397.841 678.119 397.943 678.119 398.057C678.119 398.239 678.183 398.378 678.311 398.474C678.439 398.571 678.602 398.619 678.801 398.619Z" fill="white"/>
</g>
<g filter="url(#filter9_d_6831_632)">
<g clip-path="url(#clip7_6831_632)">
<rect width="16" height="12" transform="translate(384 511.5)" fill="white"/>
<path fill-rule="evenodd" clip-rule="evenodd" d="M395 511.5H400V523.5H395V511.5Z" fill="#2E42A5"/>
<path fill-rule="evenodd" clip-rule="evenodd" d="M389 511.5H395V523.5H389V511.5Z" fill="#FECA00"/>
<path fill-rule="evenodd" clip-rule="evenodd" d="M384 511.5H389V523.5H384V511.5Z" fill="#2E42A5"/>
<path fill-rule="evenodd" clip-rule="evenodd" d="M393.217 519.136C393.533 518.482 393.898 517.288 393.898 517.288L394.175 516.465L393.078 516.863L393.337 517.014C393.337 517.014 392.885 517.918 392.657 518.36C392.429 518.803 392.406 518.51 392.406 518.51L392.445 515.426L392.697 515.358L392.069 514.152L391.268 515.375L391.621 515.384C391.621 515.384 391.592 518.638 391.543 518.51C391.515 518.438 391.443 518.662 391.407 518.575C391.185 518.03 390.88 516.974 390.88 516.974L391.058 516.807L389.864 516.562L390.221 517.296C390.221 517.296 390.535 518.604 390.88 519.243C390.958 519.445 391.334 519.531 391.334 519.531C391.334 519.531 391.517 519.345 391.562 519.531C391.608 519.717 391.562 520.469 391.562 520.469H392.406C392.406 520.469 392.347 519.76 392.406 519.531C392.466 519.302 392.65 519.531 392.65 519.531C392.65 519.531 393.139 519.339 393.217 519.136Z" fill="black"/>
</g>
<path d="M408.562 522V513.273H412.347C413.011 513.273 413.57 513.362 414.021 513.541C414.476 513.72 414.818 513.973 415.048 514.3C415.281 514.626 415.398 515.011 415.398 515.455C415.398 515.776 415.327 516.068 415.185 516.332C415.045 516.597 414.849 516.818 414.597 516.997C414.344 517.173 414.048 517.295 413.71 517.364V517.449C414.085 517.463 414.426 517.558 414.733 517.734C415.04 517.908 415.284 518.148 415.466 518.455C415.648 518.759 415.739 519.116 415.739 519.528C415.739 520.006 415.614 520.43 415.364 520.803C415.116 521.175 414.764 521.467 414.307 521.68C413.849 521.893 413.304 522 412.67 522H408.562ZM410.932 520.108H412.04C412.438 520.108 412.736 520.034 412.935 519.886C413.134 519.736 413.233 519.514 413.233 519.222C413.233 519.017 413.186 518.844 413.092 518.702C412.999 518.56 412.865 518.452 412.692 518.378C412.521 518.304 412.315 518.267 412.074 518.267H410.932V520.108ZM410.932 516.801H411.903C412.111 516.801 412.294 516.768 412.453 516.703C412.612 516.638 412.736 516.544 412.824 516.422C412.915 516.297 412.96 516.145 412.96 515.966C412.96 515.696 412.864 515.49 412.67 515.348C412.477 515.203 412.233 515.131 411.938 515.131H410.932V516.801ZM418.436 522.102C418.018 522.102 417.649 522.034 417.328 521.898C417.01 521.759 416.76 521.548 416.578 521.267C416.396 520.986 416.305 520.628 416.305 520.193C416.305 519.835 416.366 519.53 416.489 519.277C416.611 519.021 416.781 518.812 417 518.651C417.219 518.489 417.473 518.365 417.763 518.28C418.055 518.195 418.371 518.139 418.709 518.114C419.075 518.085 419.369 518.051 419.591 518.011C419.815 517.969 419.977 517.911 420.077 517.837C420.176 517.76 420.226 517.659 420.226 517.534V517.517C420.226 517.347 420.161 517.216 420.03 517.125C419.899 517.034 419.732 516.989 419.527 516.989C419.303 516.989 419.119 517.038 418.977 517.138C418.838 517.234 418.754 517.384 418.726 517.585H416.561C416.589 517.187 416.716 516.821 416.94 516.486C417.168 516.148 417.499 515.878 417.933 515.676C418.368 515.472 418.911 515.369 419.561 515.369C420.03 515.369 420.45 515.425 420.822 515.536C421.195 515.643 421.511 515.795 421.773 515.991C422.034 516.185 422.233 516.412 422.369 516.673C422.509 516.932 422.578 517.213 422.578 517.517V522H420.379V521.08H420.328C420.197 521.324 420.038 521.521 419.851 521.672C419.666 521.822 419.455 521.932 419.216 522C418.98 522.068 418.72 522.102 418.436 522.102ZM419.203 520.619C419.382 520.619 419.55 520.582 419.706 520.509C419.865 520.435 419.994 520.328 420.094 520.189C420.193 520.05 420.243 519.881 420.243 519.682V519.136C420.18 519.162 420.114 519.186 420.043 519.209C419.974 519.232 419.901 519.253 419.821 519.273C419.744 519.293 419.662 519.311 419.574 519.328C419.489 519.345 419.399 519.361 419.305 519.375C419.124 519.403 418.974 519.45 418.858 519.516C418.744 519.578 418.659 519.656 418.602 519.75C418.548 519.841 418.521 519.943 418.521 520.057C418.521 520.239 418.585 520.378 418.713 520.474C418.841 520.571 419.004 520.619 419.203 520.619ZM423.702 522V515.455H425.986V516.699H426.054C426.174 516.239 426.363 515.902 426.621 515.689C426.882 515.476 427.188 515.369 427.537 515.369C427.64 515.369 427.74 515.378 427.84 515.395C427.942 515.409 428.04 515.43 428.134 515.459V517.466C428.017 517.426 427.874 517.396 427.703 517.376C427.533 517.357 427.387 517.347 427.265 517.347C427.034 517.347 426.827 517.399 426.642 517.504C426.461 517.607 426.317 517.751 426.212 517.939C426.107 518.124 426.054 518.341 426.054 518.591V522H423.702ZM428.871 522V513.273H431.223V516.597H431.257C431.343 516.375 431.468 516.172 431.632 515.987C431.797 515.8 432.002 515.651 432.246 515.54C432.49 515.426 432.775 515.369 433.098 515.369C433.53 515.369 433.941 515.484 434.33 515.714C434.722 515.945 435.04 516.307 435.284 516.801C435.532 517.295 435.655 517.937 435.655 518.727C435.655 519.483 435.537 520.109 435.301 520.607C435.069 521.104 434.756 521.474 434.364 521.719C433.975 521.963 433.547 522.085 433.081 522.085C432.775 522.085 432.5 522.036 432.259 521.936C432.02 521.834 431.816 521.696 431.645 521.523C431.478 521.347 431.348 521.148 431.257 520.926H431.206V522H428.871ZM431.172 518.727C431.172 519.045 431.213 519.321 431.296 519.554C431.381 519.784 431.5 519.963 431.654 520.091C431.81 520.216 431.996 520.278 432.212 520.278C432.428 520.278 432.611 520.217 432.762 520.095C432.915 519.97 433.032 519.793 433.111 519.562C433.194 519.33 433.235 519.051 433.235 518.727C433.235 518.403 433.194 518.126 433.111 517.896C433.032 517.663 432.915 517.486 432.762 517.364C432.611 517.239 432.428 517.176 432.212 517.176C431.996 517.176 431.81 517.239 431.654 517.364C431.5 517.486 431.381 517.663 431.296 517.896C431.213 518.126 431.172 518.403 431.172 518.727ZM438.463 522.102C438.046 522.102 437.676 522.034 437.355 521.898C437.037 521.759 436.787 521.548 436.605 521.267C436.424 520.986 436.333 520.628 436.333 520.193C436.333 519.835 436.394 519.53 436.516 519.277C436.638 519.021 436.809 518.812 437.027 518.651C437.246 518.489 437.5 518.365 437.79 518.28C438.083 518.195 438.398 518.139 438.736 518.114C439.103 518.085 439.397 518.051 439.618 518.011C439.843 517.969 440.005 517.911 440.104 517.837C440.203 517.76 440.253 517.659 440.253 517.534V517.517C440.253 517.347 440.188 517.216 440.057 517.125C439.926 517.034 439.759 516.989 439.554 516.989C439.33 516.989 439.147 517.038 439.005 517.138C438.865 517.234 438.782 517.384 438.753 517.585H436.588C436.617 517.187 436.743 516.821 436.968 516.486C437.195 516.148 437.526 515.878 437.961 515.676C438.395 515.472 438.938 515.369 439.588 515.369C440.057 515.369 440.478 515.425 440.85 515.536C441.222 515.643 441.539 515.795 441.8 515.991C442.061 516.185 442.26 516.412 442.397 516.673C442.536 516.932 442.605 517.213 442.605 517.517V522H440.407V521.08H440.355C440.225 521.324 440.066 521.521 439.878 521.672C439.694 521.822 439.482 521.932 439.243 522C439.007 522.068 438.748 522.102 438.463 522.102ZM439.23 520.619C439.409 520.619 439.577 520.582 439.733 520.509C439.892 520.435 440.022 520.328 440.121 520.189C440.221 520.05 440.27 519.881 440.27 519.682V519.136C440.208 519.162 440.141 519.186 440.07 519.209C440.002 519.232 439.928 519.253 439.848 519.273C439.772 519.293 439.689 519.311 439.601 519.328C439.516 519.345 439.426 519.361 439.333 519.375C439.151 519.403 439.002 519.45 438.885 519.516C438.772 519.578 438.686 519.656 438.63 519.75C438.576 519.841 438.549 519.943 438.549 520.057C438.549 520.239 438.613 520.378 438.74 520.474C438.868 520.571 439.032 520.619 439.23 520.619ZM446.099 522.085C445.633 522.085 445.204 521.963 444.812 521.719C444.423 521.474 444.11 521.104 443.874 520.607C443.641 520.109 443.525 519.483 443.525 518.727C443.525 517.937 443.647 517.295 443.891 516.801C444.138 516.307 444.457 515.945 444.846 515.714C445.238 515.484 445.65 515.369 446.082 515.369C446.406 515.369 446.69 515.426 446.934 515.54C447.178 515.651 447.383 515.8 447.548 515.987C447.712 516.172 447.837 516.375 447.923 516.597H447.957V513.273H450.309V522H447.974V520.926H447.923C447.832 521.148 447.701 521.347 447.531 521.523C447.363 521.696 447.158 521.834 446.917 521.936C446.678 522.036 446.406 522.085 446.099 522.085ZM446.968 520.278C447.184 520.278 447.369 520.216 447.522 520.091C447.678 519.963 447.798 519.784 447.88 519.554C447.965 519.321 448.008 519.045 448.008 518.727C448.008 518.403 447.965 518.126 447.88 517.896C447.798 517.663 447.678 517.486 447.522 517.364C447.369 517.239 447.184 517.176 446.968 517.176C446.752 517.176 446.567 517.239 446.414 517.364C446.263 517.486 446.147 517.663 446.065 517.896C445.985 518.126 445.945 518.403 445.945 518.727C445.945 519.051 445.985 519.33 446.065 519.562C446.147 519.793 446.263 519.97 446.414 520.095C446.567 520.217 446.752 520.278 446.968 520.278ZM454.617 522.119C453.907 522.119 453.299 521.979 452.793 521.697C452.288 521.413 451.9 521.018 451.63 520.513C451.36 520.004 451.225 519.415 451.225 518.744C451.225 518.074 451.36 517.486 451.63 516.98C451.9 516.472 452.288 516.077 452.793 515.795C453.299 515.511 453.907 515.369 454.617 515.369C455.327 515.369 455.935 515.511 456.441 515.795C456.947 516.077 457.335 516.472 457.604 516.98C457.874 517.486 458.009 518.074 458.009 518.744C458.009 519.415 457.874 520.004 457.604 520.513C457.335 521.018 456.947 521.413 456.441 521.697C455.935 521.979 455.327 522.119 454.617 522.119ZM454.634 520.381C454.833 520.381 455.005 520.314 455.15 520.18C455.295 520.047 455.407 519.857 455.487 519.609C455.566 519.362 455.606 519.068 455.606 518.727C455.606 518.384 455.566 518.089 455.487 517.845C455.407 517.598 455.295 517.408 455.15 517.274C455.005 517.141 454.833 517.074 454.634 517.074C454.424 517.074 454.244 517.141 454.093 517.274C453.942 517.408 453.827 517.598 453.748 517.845C453.668 518.089 453.629 518.384 453.629 518.727C453.629 519.068 453.668 519.362 453.748 519.609C453.827 519.857 453.942 520.047 454.093 520.18C454.244 520.314 454.424 520.381 454.634 520.381ZM464.947 517.585H462.782C462.771 517.452 462.724 517.337 462.641 517.24C462.559 517.143 462.452 517.07 462.322 517.018C462.194 516.964 462.052 516.938 461.896 516.938C461.694 516.938 461.521 516.974 461.376 517.048C461.231 517.122 461.16 517.227 461.163 517.364C461.16 517.46 461.201 517.55 461.286 517.632C461.374 517.714 461.543 517.778 461.793 517.824L463.123 518.062C463.793 518.185 464.292 518.391 464.619 518.68C464.948 518.967 465.114 519.352 465.117 519.835C465.114 520.301 464.975 520.706 464.7 521.05C464.427 521.391 464.053 521.655 463.579 521.842C463.107 522.027 462.569 522.119 461.964 522.119C460.964 522.119 460.181 521.915 459.616 521.506C459.053 521.097 458.739 520.557 458.674 519.886H461.009C461.04 520.094 461.143 520.254 461.316 520.368C461.492 520.479 461.714 520.534 461.981 520.534C462.197 520.534 462.374 520.497 462.513 520.423C462.656 520.349 462.728 520.244 462.731 520.108C462.728 519.983 462.665 519.884 462.543 519.81C462.424 519.736 462.237 519.676 461.981 519.631L460.822 519.426C460.154 519.31 459.654 519.088 459.322 518.761C458.989 518.435 458.825 518.014 458.827 517.5C458.825 517.045 458.944 516.661 459.185 516.345C459.43 516.027 459.778 515.786 460.229 515.621C460.684 515.453 461.222 515.369 461.844 515.369C462.79 515.369 463.536 515.565 464.082 515.957C464.63 516.349 464.918 516.892 464.947 517.585Z" fill="white"/>
</g>
<g filter="url(#filter10_d_6831_632)">
<g clip-path="url(#clip8_6831_632)">
<rect width="16" height="12" transform="translate(396 696.5)" fill="white"/>
<path fill-rule="evenodd" clip-rule="evenodd" d="M394 694.5V709.5H414V694.5H394Z" fill="#F7FCFF"/>
<mask id="mask4_6831_632" style="mask-type:luminance" maskUnits="userSpaceOnUse" x="394" y="694" width="20" height="16">
<path fill-rule="evenodd" clip-rule="evenodd" d="M394 694.5V709.5H414V694.5H394Z" fill="white"/>
</mask>
<g mask="url(#mask4_6831_632)">
<rect x="394" y="697" width="20" height="1.25" fill="#2E42A5"/>
<rect x="394" y="699.5" width="20" height="1.25" fill="#2E42A5"/>
<rect x="394" y="702" width="20" height="1.25" fill="#2E42A5"/>
<rect x="394" y="704.5" width="20" height="1.25" fill="#2E42A5"/>
<rect x="394" y="707" width="20" height="1.25" fill="#2E42A5"/>
<rect x="394" y="694.5" width="10" height="8.75" fill="#F7FCFF"/>
<path fill-rule="evenodd" clip-rule="evenodd" d="M399.767 701.398C399.767 701.398 399.129 702.723 398.567 702.994C398.81 702.387 398.899 701.148 398.899 701.148C398.899 701.148 397.441 701.725 396.93 701.62C397.545 701.19 398.399 700.394 398.399 700.394C398.399 700.394 396.512 699.777 396.559 699.515C397.41 699.668 398.581 699.501 398.581 699.501C398.581 699.501 397.258 697.914 397.392 697.796C397.594 697.992 399.18 698.821 399.18 698.821C399.18 698.821 399.295 697.409 399.636 696.933C399.677 697.269 400.156 698.79 400.156 698.79C400.156 698.79 401.119 697.827 401.654 697.827C401.419 698.118 400.863 699.396 400.863 699.396C400.863 699.396 402.249 699.375 402.775 699.634C402.137 699.725 401.019 700.286 401.019 700.286C401.019 700.286 402.475 701.39 402.343 701.62C401.561 701.238 400.657 701.11 400.657 701.11C400.657 701.11 400.907 702.647 400.705 702.994C400.508 702.483 399.767 701.398 399.767 701.398Z" fill="#FFD018" stroke="#F19900" stroke-opacity="0.98" stroke-width="0.5"/>
<path fill-rule="evenodd" clip-rule="evenodd" d="M399.684 700.683C400.029 700.683 400.309 700.403 400.309 700.058C400.309 699.712 400.029 699.433 399.684 699.433C399.338 699.433 399.059 699.712 399.059 700.058C399.059 700.403 399.338 700.683 399.684 700.683Z" fill="#FFD018" stroke="#F19900" stroke-opacity="0.98" stroke-width="0.5"/>
</g>
</g>
<path d="M425.727 698.273H428.097V703.864C428.097 704.528 427.938 705.104 427.619 705.589C427.304 706.072 426.864 706.446 426.298 706.71C425.733 706.972 425.077 707.102 424.33 707.102C423.577 707.102 422.918 706.972 422.352 706.71C421.787 706.446 421.347 706.072 421.031 705.589C420.719 705.104 420.562 704.528 420.562 703.864V698.273H422.932V703.659C422.932 703.929 422.991 704.17 423.111 704.384C423.23 704.594 423.395 704.759 423.605 704.878C423.818 704.997 424.06 705.057 424.33 705.057C424.602 705.057 424.844 704.997 425.054 704.878C425.264 704.759 425.429 704.594 425.548 704.384C425.668 704.17 425.727 703.929 425.727 703.659V698.273ZM429.257 707V700.455H431.541V701.699H431.609C431.728 701.239 431.917 700.902 432.176 700.689C432.437 700.476 432.743 700.369 433.092 700.369C433.194 700.369 433.295 700.378 433.395 700.395C433.497 700.409 433.595 700.43 433.689 700.459V702.466C433.572 702.426 433.429 702.396 433.258 702.376C433.088 702.357 432.941 702.347 432.819 702.347C432.589 702.347 432.382 702.399 432.197 702.504C432.015 702.607 431.872 702.751 431.767 702.939C431.662 703.124 431.609 703.341 431.609 703.591V707H429.257ZM438.704 704.136V700.455H441.056V707H438.824V705.756H438.755C438.613 706.173 438.365 706.5 438.01 706.736C437.654 706.969 437.233 707.085 436.744 707.085C436.287 707.085 435.886 706.98 435.542 706.77C435.201 706.56 434.936 706.27 434.745 705.901C434.558 705.531 434.463 705.108 434.46 704.631V700.455H436.812V704.136C436.815 704.46 436.897 704.714 437.059 704.899C437.224 705.084 437.454 705.176 437.75 705.176C437.946 705.176 438.115 705.135 438.257 705.053C438.402 704.967 438.512 704.848 438.589 704.695C438.669 704.538 438.707 704.352 438.704 704.136ZM445.406 709.591C444.75 709.591 444.188 709.497 443.719 709.31C443.253 709.125 442.891 708.869 442.632 708.543C442.376 708.219 442.233 707.847 442.202 707.426H444.469C444.491 707.565 444.548 707.678 444.639 707.763C444.73 707.848 444.847 707.909 444.989 707.946C445.134 707.986 445.295 708.006 445.474 708.006C445.778 708.006 446.03 707.932 446.229 707.784C446.43 707.636 446.531 707.369 446.531 706.983V705.875H446.463C446.378 706.097 446.247 706.286 446.071 706.442C445.895 706.595 445.683 706.713 445.436 706.795C445.189 706.875 444.918 706.915 444.622 706.915C444.156 706.915 443.727 706.807 443.335 706.591C442.946 706.375 442.634 706.033 442.398 705.564C442.165 705.095 442.048 704.483 442.048 703.727C442.048 702.937 442.17 702.295 442.415 701.801C442.662 701.307 442.98 700.945 443.369 700.714C443.761 700.484 444.173 700.369 444.605 700.369C444.929 700.369 445.213 700.426 445.457 700.54C445.702 700.651 445.906 700.8 446.071 700.987C446.236 701.172 446.361 701.375 446.446 701.597H446.497V700.455H448.849V706.983C448.849 707.537 448.706 708.007 448.419 708.393C448.135 708.783 447.734 709.08 447.217 709.284C446.7 709.489 446.097 709.591 445.406 709.591ZM445.491 705.244C445.707 705.244 445.892 705.185 446.045 705.065C446.202 704.943 446.321 704.77 446.403 704.545C446.489 704.318 446.531 704.045 446.531 703.727C446.531 703.403 446.489 703.126 446.403 702.896C446.321 702.663 446.202 702.486 446.045 702.364C445.892 702.239 445.707 702.176 445.491 702.176C445.276 702.176 445.091 702.239 444.938 702.364C444.787 702.486 444.67 702.663 444.588 702.896C444.509 703.126 444.469 703.403 444.469 703.727C444.469 704.051 444.509 704.327 444.588 704.554C444.67 704.778 444.787 704.95 444.938 705.07C445.091 705.186 445.276 705.244 445.491 705.244ZM454.29 704.136V700.455H456.642V707H454.409V705.756H454.341C454.199 706.173 453.951 706.5 453.596 706.736C453.24 706.969 452.819 707.085 452.33 707.085C451.873 707.085 451.472 706.98 451.128 706.77C450.787 706.56 450.522 706.27 450.331 705.901C450.144 705.531 450.049 705.108 450.046 704.631V700.455H452.398V704.136C452.401 704.46 452.483 704.714 452.645 704.899C452.81 705.084 453.04 705.176 453.336 705.176C453.532 705.176 453.701 705.135 453.843 705.053C453.988 704.967 454.098 704.848 454.175 704.695C454.255 704.538 454.293 704.352 454.29 704.136ZM459.663 707.102C459.245 707.102 458.876 707.034 458.555 706.898C458.237 706.759 457.987 706.548 457.805 706.267C457.623 705.986 457.532 705.628 457.532 705.193C457.532 704.835 457.593 704.53 457.715 704.277C457.837 704.021 458.008 703.812 458.227 703.651C458.445 703.489 458.7 703.365 458.989 703.28C459.282 703.195 459.597 703.139 459.935 703.114C460.302 703.085 460.596 703.051 460.817 703.011C461.042 702.969 461.204 702.911 461.303 702.837C461.403 702.76 461.452 702.659 461.452 702.534V702.517C461.452 702.347 461.387 702.216 461.256 702.125C461.126 702.034 460.958 701.989 460.754 701.989C460.529 701.989 460.346 702.038 460.204 702.138C460.065 702.234 459.981 702.384 459.952 702.585H457.788C457.816 702.187 457.942 701.821 458.167 701.486C458.394 701.148 458.725 700.878 459.16 700.676C459.594 700.472 460.137 700.369 460.788 700.369C461.256 700.369 461.677 700.425 462.049 700.536C462.421 700.643 462.738 700.795 462.999 700.991C463.261 701.185 463.46 701.412 463.596 701.673C463.735 701.932 463.805 702.213 463.805 702.517V707H461.606V706.08H461.555C461.424 706.324 461.265 706.521 461.077 706.672C460.893 706.822 460.681 706.932 460.442 707C460.207 707.068 459.947 707.102 459.663 707.102ZM460.43 705.619C460.609 705.619 460.776 705.582 460.933 705.509C461.092 705.435 461.221 705.328 461.32 705.189C461.42 705.05 461.469 704.881 461.469 704.682V704.136C461.407 704.162 461.34 704.186 461.269 704.209C461.201 704.232 461.127 704.253 461.048 704.273C460.971 704.293 460.888 704.311 460.8 704.328C460.715 704.345 460.626 704.361 460.532 704.375C460.35 704.403 460.201 704.45 460.085 704.516C459.971 704.578 459.886 704.656 459.829 704.75C459.775 704.841 459.748 704.943 459.748 705.057C459.748 705.239 459.812 705.378 459.94 705.474C460.067 705.571 460.231 705.619 460.43 705.619ZM464.929 707V700.455H467.281V707H464.929ZM466.105 699.773C465.787 699.773 465.514 699.668 465.287 699.457C465.059 699.247 464.946 698.994 464.946 698.699C464.946 698.403 465.059 698.151 465.287 697.94C465.514 697.73 465.787 697.625 466.105 697.625C466.426 697.625 466.699 697.73 466.923 697.94C467.15 698.151 467.264 698.403 467.264 698.699C467.264 698.994 467.15 699.247 466.923 699.457C466.699 699.668 466.426 699.773 466.105 699.773Z" fill="white"/>
</g>
</g>
<defs>
<filter id="filter0_d_6831_632" x="-4" y="0" width="1256" height="830" filterUnits="userSpaceOnUse" color-interpolation-filters="sRGB">
<feFlood flood-opacity="0" result="BackgroundImageFix"/>
<feColorMatrix in="SourceAlpha" type="matrix" values="0 0 0 0 0 0 0 0 0 0 0 0 0 0 0 0 0 0 127 0" result="hardAlpha"/>
<feOffset dy="4"/>
<feGaussianBlur stdDeviation="2"/>
<feComposite in2="hardAlpha" operator="out"/>
<feColorMatrix type="matrix" values="0 0 0 0 0 0 0 0 0 0 0 0 0 0 0 0 0 0 0.25 0"/>
<feBlend mode="normal" in2="BackgroundImageFix" result="effect1_dropShadow_6831_632"/>
<feBlend mode="normal" in="SourceGraphic" in2="effect1_dropShadow_6831_632" result="shape"/>
</filter>
<filter id="filter1_d_6831_632" x="412" y="593" width="67" height="23" filterUnits="userSpaceOnUse" color-interpolation-filters="sRGB">
<feFlood flood-opacity="0" result="BackgroundImageFix"/>
<feColorMatrix in="SourceAlpha" type="matrix" values="0 0 0 0 0 0 0 0 0 0 0 0 0 0 0 0 0 0 127 0" result="hardAlpha"/>
<feOffset dy="4"/>
<feGaussianBlur stdDeviation="2"/>
<feComposite in2="hardAlpha" operator="out"/>
<feColorMatrix type="matrix" values="0 0 0 0 0 0 0 0 0 0 0 0 0 0 0 0 0 0 0.25 0"/>
<feBlend mode="normal" in2="BackgroundImageFix" result="effect1_dropShadow_6831_632"/>
<feBlend mode="normal" in="SourceGraphic" in2="effect1_dropShadow_6831_632" result="shape"/>
</filter>
<filter id="filter2_d_6831_632" x="417.904" y="596.352" width="12.1602" height="8.2334" filterUnits="userSpaceOnUse" color-interpolation-filters="sRGB">
<feFlood flood-opacity="0" result="BackgroundImageFix"/>
<feColorMatrix in="SourceAlpha" type="matrix" values="0 0 0 0 0 0 0 0 0 0 0 0 0 0 0 0 0 0 127 0" result="hardAlpha"/>
<feOffset/>
<feColorMatrix type="matrix" values="0 0 0 0 0.0313726 0 0 0 0 0.368627 0 0 0 0 0 0 0 0 0.28 0"/>
<feBlend mode="normal" in2="BackgroundImageFix" result="effect1_dropShadow_6831_632"/>
<feBlend mode="normal" in="SourceGraphic" in2="effect1_dropShadow_6831_632" result="shape"/>
</filter>
<filter id="filter3_d_6831_632" x="212" y="414" width="58" height="23" filterUnits="userSpaceOnUse" color-interpolation-filters="sRGB">
<feFlood flood-opacity="0" result="BackgroundImageFix"/>
<feColorMatrix in="SourceAlpha" type="matrix" values="0 0 0 0 0 0 0 0 0 0 0 0 0 0 0 0 0 0 127 0" result="hardAlpha"/>
<feOffset dy="4"/>
<feGaussianBlur stdDeviation="2"/>
<feComposite in2="hardAlpha" operator="out"/>
<feColorMatrix type="matrix" values="0 0 0 0 0 0 0 0 0 0 0 0 0 0 0 0 0 0 0.25 0"/>
<feBlend mode="normal" in2="BackgroundImageFix" result="effect1_dropShadow_6831_632"/>
<feBlend mode="normal" in="SourceGraphic" in2="effect1_dropShadow_6831_632" result="shape"/>
</filter>
<filter id="filter4_d_6831_632" x="167" y="324" width="78" height="23" filterUnits="userSpaceOnUse" color-interpolation-filters="sRGB">
<feFlood flood-opacity="0" result="BackgroundImageFix"/>
<feColorMatrix in="SourceAlpha" type="matrix" values="0 0 0 0 0 0 0 0 0 0 0 0 0 0 0 0 0 0 127 0" result="hardAlpha"/>
<feOffset dy="4"/>
<feGaussianBlur stdDeviation="2"/>
<feComposite in2="hardAlpha" operator="out"/>
<feColorMatrix type="matrix" values="0 0 0 0 0 0 0 0 0 0 0 0 0 0 0 0 0 0 0.25 0"/>
<feBlend mode="normal" in2="BackgroundImageFix" result="effect1_dropShadow_6831_632"/>
<feBlend mode="normal" in="SourceGraphic" in2="effect1_dropShadow_6831_632" result="shape"/>
</filter>
<filter id="filter5_d_6831_632" x="566" y="416" width="84" height="23" filterUnits="userSpaceOnUse" color-interpolation-filters="sRGB">
<feFlood flood-opacity="0" result="BackgroundImageFix"/>
<feColorMatrix in="SourceAlpha" type="matrix" values="0 0 0 0 0 0 0 0 0 0 0 0 0 0 0 0 0 0 127 0" result="hardAlpha"/>
<feOffset dy="4"/>
<feGaussianBlur stdDeviation="2"/>
<feComposite in2="hardAlpha" operator="out"/>
<feColorMatrix type="matrix" values="0 0 0 0 0 0 0 0 0 0 0 0 0 0 0 0 0 0 0.25 0"/>
<feBlend mode="normal" in2="BackgroundImageFix" result="effect1_dropShadow_6831_632"/>
<feBlend mode="normal" in="SourceGraphic" in2="effect1_dropShadow_6831_632" result="shape"/>
</filter>
<filter id="filter6_d_6831_632" x="631" y="358" width="94" height="23" filterUnits="userSpaceOnUse" color-interpolation-filters="sRGB">
<feFlood flood-opacity="0" result="BackgroundImageFix"/>
<feColorMatrix in="SourceAlpha" type="matrix" values="0 0 0 0 0 0 0 0 0 0 0 0 0 0 0 0 0 0 127 0" result="hardAlpha"/>
<feOffset dy="4"/>
<feGaussianBlur stdDeviation="2"/>
<feComposite in2="hardAlpha" operator="out"/>
<feColorMatrix type="matrix" values="0 0 0 0 0 0 0 0 0 0 0 0 0 0 0 0 0 0 0.25 0"/>
<feBlend mode="normal" in2="BackgroundImageFix" result="effect1_dropShadow_6831_632"/>
<feBlend mode="normal" in="SourceGraphic" in2="effect1_dropShadow_6831_632" result="shape"/>
</filter>
<filter id="filter7_d_6831_632" x="583" y="331" width="91" height="23" filterUnits="userSpaceOnUse" color-interpolation-filters="sRGB">
<feFlood flood-opacity="0" result="BackgroundImageFix"/>
<feColorMatrix in="SourceAlpha" type="matrix" values="0 0 0 0 0 0 0 0 0 0 0 0 0 0 0 0 0 0 127 0" result="hardAlpha"/>
<feOffset dy="4"/>
<feGaussianBlur stdDeviation="2"/>
<feComposite in2="hardAlpha" operator="out"/>
<feColorMatrix type="matrix" values="0 0 0 0 0 0 0 0 0 0 0 0 0 0 0 0 0 0 0.25 0"/>
<feBlend mode="normal" in2="BackgroundImageFix" result="effect1_dropShadow_6831_632"/>
<feBlend mode="normal" in="SourceGraphic" in2="effect1_dropShadow_6831_632" result="shape"/>
</filter>
<filter id="filter8_d_6831_632" x="621" y="388" width="66" height="23" filterUnits="userSpaceOnUse" color-interpolation-filters="sRGB">
<feFlood flood-opacity="0" result="BackgroundImageFix"/>
<feColorMatrix in="SourceAlpha" type="matrix" values="0 0 0 0 0 0 0 0 0 0 0 0 0 0 0 0 0 0 127 0" result="hardAlpha"/>
<feOffset dy="4"/>
<feGaussianBlur stdDeviation="2"/>
<feComposite in2="hardAlpha" operator="out"/>
<feColorMatrix type="matrix" values="0 0 0 0 0 0 0 0 0 0 0 0 0 0 0 0 0 0 0.25 0"/>
<feBlend mode="normal" in2="BackgroundImageFix" result="effect1_dropShadow_6831_632"/>
<feBlend mode="normal" in="SourceGraphic" in2="effect1_dropShadow_6831_632" result="shape"/>
</filter>
<filter id="filter9_d_6831_632" x="380" y="510" width="90" height="23" filterUnits="userSpaceOnUse" color-interpolation-filters="sRGB">
<feFlood flood-opacity="0" result="BackgroundImageFix"/>
<feColorMatrix in="SourceAlpha" type="matrix" values="0 0 0 0 0 0 0 0 0 0 0 0 0 0 0 0 0 0 127 0" result="hardAlpha"/>
<feOffset dy="4"/>
<feGaussianBlur stdDeviation="2"/>
<feComposite in2="hardAlpha" operator="out"/>
<feColorMatrix type="matrix" values="0 0 0 0 0 0 0 0 0 0 0 0 0 0 0 0 0 0 0.25 0"/>
<feBlend mode="normal" in2="BackgroundImageFix" result="effect1_dropShadow_6831_632"/>
<feBlend mode="normal" in="SourceGraphic" in2="effect1_dropShadow_6831_632" result="shape"/>
</filter>
<filter id="filter10_d_6831_632" x="392" y="695" width="80" height="23" filterUnits="userSpaceOnUse" color-interpolation-filters="sRGB">
<feFlood flood-opacity="0" result="BackgroundImageFix"/>
<feColorMatrix in="SourceAlpha" type="matrix" values="0 0 0 0 0 0 0 0 0 0 0 0 0 0 0 0 0 0 127 0" result="hardAlpha"/>
<feOffset dy="4"/>
<feGaussianBlur stdDeviation="2"/>
<feComposite in2="hardAlpha" operator="out"/>
<feColorMatrix type="matrix" values="0 0 0 0 0 0 0 0 0 0 0 0 0 0 0 0 0 0 0.25 0"/>
<feBlend mode="normal" in2="BackgroundImageFix" result="effect1_dropShadow_6831_632"/>
<feBlend mode="normal" in="SourceGraphic" in2="effect1_dropShadow_6831_632" result="shape"/>
</filter>
<linearGradient id="paint0_linear_6831_632" x1="432" y1="606.5" x2="432" y2="594.5" gradientUnits="userSpaceOnUse">
<stop stop-color="#FFC600"/>
<stop offset="1" stop-color="#FFDE42"/>
</linearGradient>
<clipPath id="clip0_6831_632">
<rect width="16" height="12" fill="white" transform="translate(416 594.5)"/>
</clipPath>
<clipPath id="clip1_6831_632">
<rect width="16" height="12" fill="white" transform="translate(216 415.5)"/>
</clipPath>
<clipPath id="clip2_6831_632">
<rect width="16" height="12" fill="white" transform="translate(171 325.5)"/>
</clipPath>
<clipPath id="clip3_6831_632">
<rect width="16" height="12" fill="white" transform="translate(570 417.5)"/>
</clipPath>
<clipPath id="clip4_6831_632">
<rect width="16" height="12" fill="white" transform="translate(635 359.5)"/>
</clipPath>
<clipPath id="clip5_6831_632">
<rect width="16" height="12" fill="white" transform="translate(587 332.5)"/>
</clipPath>
<clipPath id="clip6_6831_632">
<rect width="16" height="12" fill="white" transform="translate(625 389.5)"/>
</clipPath>
<clipPath id="clip7_6831_632">
<rect width="16" height="12" fill="white" transform="translate(384 511.5)"/>
</clipPath>
<clipPath id="clip8_6831_632">
<rect width="16" height="12" fill="white" transform="translate(396 696.5)"/>
</clipPath>
</defs>
</svg>
