<svg width="58" height="58" viewBox="0 0 58 58" fill="none" xmlns="http://www.w3.org/2000/svg">
<g id="SVG" filter="url(#filter0_d_6461_13994)">
<path id="Vector" d="M29 50.0001C25.7787 49.9997 22.5903 49.3523 19.624 48.0961C16.6418 46.832 13.9402 44.9883 11.676 42.6721C9.39382 40.3374 7.5897 37.5795 6.365 34.5531C5.13251 31.5106 4.49925 28.2587 4.5 24.9761H29V50.0001Z" fill="#1C3477"/>
<path id="Vector_2" d="M53.5 24.9761C53.5 28.2631 52.866 31.5161 51.635 34.5531C50.4103 37.5795 48.6062 40.3374 46.324 42.6721C44.0598 44.9884 41.3582 46.832 38.376 48.0961C35.4097 49.3523 32.2213 49.9997 29 50.0001V24.9761H53.5Z" fill="#2960F7"/>
<path id="Vector_3" d="M29 25.024C25.7787 25.0237 22.5903 24.3762 19.624 23.12C16.6418 21.8559 13.9402 20.0123 11.676 17.696C9.39371 15.3611 7.58958 12.6027 6.365 9.576C5.13264 6.53383 4.49938 3.2823 4.5 0L29 0V25.024Z" fill="#244EC4"/>
</g>
<defs>
<filter id="filter0_d_6461_13994" x="0" y="0" width="58" height="58" filterUnits="userSpaceOnUse" color-interpolation-filters="sRGB">
<feFlood flood-opacity="0" result="BackgroundImageFix"/>
<feColorMatrix in="SourceAlpha" type="matrix" values="0 0 0 0 0 0 0 0 0 0 0 0 0 0 0 0 0 0 127 0" result="hardAlpha"/>
<feOffset dy="4"/>
<feGaussianBlur stdDeviation="2"/>
<feComposite in2="hardAlpha" operator="out"/>
<feColorMatrix type="matrix" values="0 0 0 0 0 0 0 0 0 0 0 0 0 0 0 0 0 0 0.25 0"/>
<feBlend mode="normal" in2="BackgroundImageFix" result="effect1_dropShadow_6461_13994"/>
<feBlend mode="normal" in="SourceGraphic" in2="effect1_dropShadow_6461_13994" result="shape"/>
</filter>
</defs>
</svg>
