<svg width="42" height="60" viewBox="0 0 42 60" fill="none" xmlns="http://www.w3.org/2000/svg">
<g id="Brutalist Shape 105" filter="url(#filter0_d_6461_14088)">
<path id="Vector" d="M21 17.496C27.2875 17.496 32.792 20.9119 35.7223 26C37.1696 23.4974 38 20.5916 38 17.496C38 8.11442 30.3838 0.5 21 0.5C11.6162 0.5 4 8.11442 4 17.496C4 20.5916 4.83042 23.4974 6.27773 26C9.20795 20.9237 14.7125 17.496 21 17.496Z" fill="#2960F7"/>
<path id="Vector_2" d="M21 34.504C14.7125 34.504 9.20795 31.0881 6.27773 26C4.83042 28.5026 4 31.4084 4 34.504C4 43.8856 11.6162 51.5 21 51.5C30.3838 51.5 38 43.8856 38 34.504C38 31.4084 37.1696 28.5026 35.7223 26C32.792 31.0763 27.2875 34.504 21 34.504Z" fill="#1C3477"/>
</g>
<defs>
<filter id="filter0_d_6461_14088" x="0" y="0.5" width="42" height="59" filterUnits="userSpaceOnUse" color-interpolation-filters="sRGB">
<feFlood flood-opacity="0" result="BackgroundImageFix"/>
<feColorMatrix in="SourceAlpha" type="matrix" values="0 0 0 0 0 0 0 0 0 0 0 0 0 0 0 0 0 0 127 0" result="hardAlpha"/>
<feOffset dy="4"/>
<feGaussianBlur stdDeviation="2"/>
<feComposite in2="hardAlpha" operator="out"/>
<feColorMatrix type="matrix" values="0 0 0 0 0 0 0 0 0 0 0 0 0 0 0 0 0 0 0.25 0"/>
<feBlend mode="normal" in2="BackgroundImageFix" result="effect1_dropShadow_6461_14088"/>
<feBlend mode="normal" in="SourceGraphic" in2="effect1_dropShadow_6461_14088" result="shape"/>
</filter>
</defs>
</svg>
