<svg width="46" height="52" viewBox="0 0 46 52" fill="none" xmlns="http://www.w3.org/2000/svg">
<path fill-rule="evenodd" clip-rule="evenodd" d="M1.51283 23.64C0.797507 22.7202 0.418445 21.5886 0.296166 20.3965C0.118863 18.6053 0.534609 16.6447 1.28662 15.0714L1.59231 14.4723C2.25262 13.3165 3.1697 12.1789 4.25186 11.0836C5.3218 10.0065 6.55681 8.96566 7.85907 7.98535C9.82775 6.5028 12.0838 5.17152 14.2787 4.04599C17.3417 2.46661 20.3009 1.26846 22.2145 0.566512C22.5263 0.451538 22.8443 0.487845 23.1133 0.675434C23.3884 0.863023 23.5351 1.14743 23.5351 1.4742V12.5117C23.5351 12.9232 23.2845 13.2802 22.887 13.4254C21.8905 13.7764 20.8572 14.2182 19.7995 14.7023C18.6562 15.2287 17.5557 15.7794 16.4369 16.3361C14.7678 17.1651 13.0803 18.0668 11.454 19.0652C9.83997 20.0576 8.29927 21.1408 6.92975 22.3389C6.75245 22.4963 6.54458 22.702 6.31836 22.932C7.45555 23.0348 8.85563 22.823 10.0845 22.6355L10.6164 22.5507C12.2061 22.3147 13.9302 21.9577 15.7277 21.4676C17.409 21.0137 19.1759 20.4388 20.9979 19.743C25.3448 18.0607 29.8875 16.6145 33.7515 15.9428C37.0591 15.3739 39.9265 15.3618 41.8463 16.2453C42.8 16.675 43.5459 17.2982 44.1084 18.0486C45.0683 19.3496 45.4718 21.0198 45.4779 22.6839C45.4779 24.3116 45.1111 25.9576 44.518 27.2526C44.4508 27.4099 44.3774 27.5551 44.3041 27.7004C45.1172 28.6504 45.4718 29.8849 45.5146 31.2101C45.5635 32.9528 45.0622 34.859 44.3652 36.4202C44.194 36.7954 44.0045 37.1706 43.8088 37.5215C43.1546 38.6834 42.2314 39.821 41.1493 40.9163C40.0793 41.9934 38.8443 43.0342 37.5421 44.0145C35.5734 45.4971 33.3174 46.8223 31.1225 47.9539C28.0655 49.5272 25.1003 50.7254 23.1866 51.4334C22.8748 51.5484 22.5569 51.5121 22.2818 51.3245C22.0128 51.1369 21.8599 50.8525 21.8599 50.5257V39.4882C21.8599 39.0707 22.1167 38.7197 22.5141 38.5745C23.5107 38.2235 24.5439 37.7817 25.6016 37.2976C26.7816 36.747 27.8638 36.2145 28.9643 35.6638C30.6273 34.8348 32.3208 33.9331 33.9471 32.9347C35.5612 31.9423 37.0958 30.8591 38.4714 29.661C38.6548 29.4976 38.9177 29.2616 39.2173 28.9832C38.9238 28.9651 38.6242 28.959 38.3185 28.9651C35.8791 28.9772 33.1706 29.4855 31.9784 29.7578C29.8263 30.2479 27.7048 30.968 25.6628 31.6579C24.4094 32.0875 23.1744 32.5051 21.9577 32.856L19.1515 33.6972C17.3295 34.2539 15.6543 34.7622 14.1503 35.1374C12.524 35.5428 11.0628 35.8453 9.84609 36.0208C8.5744 36.2024 7.54114 36.2629 6.83193 36.1782C5.92707 36.1237 4.91217 35.9603 4.00731 35.6033C3.21861 35.3007 2.50329 34.8529 1.9836 34.2115C0.852532 32.8197 0.00881289 30.3992 0.228914 27.7851C0.338964 26.4175 0.736368 25.0015 1.51283 23.64ZM3.56711 22.2603C4.11736 21.6551 4.67984 21.05 5.279 20.5296C8.24424 17.9336 11.7903 15.9246 15.318 14.1697C17.1828 13.2378 19.0842 12.2817 21.0406 11.5132C21.0406 8.9112 21.0406 6.30916 21.0406 3.70711C16.9871 5.3349 12.7257 7.4589 9.37532 9.98832C7.37607 11.489 5.00999 13.5283 3.76886 15.7189C2.8151 17.4072 2.14257 20.5962 3.56711 22.2603ZM41.8952 27.0771C42.6105 25.9697 42.9529 24.0878 42.9712 23.0711C43.014 21.3465 42.531 19.4222 40.813 18.6477C38.8627 17.7642 35.2494 18.3149 33.2257 18.7203C29.4045 19.4827 25.5283 20.7898 21.9027 22.1937C18.4056 23.5371 14.6944 24.59 10.9833 25.1467C8.76393 25.4735 5.79868 26.0121 3.75664 24.8865C3.05965 26.0544 2.6867 27.3736 2.6867 28.7835C2.69282 30.1027 3.07188 31.7607 3.92783 32.8076C4.53922 33.5701 6.10438 33.8121 7.02146 33.8666L7.07037 33.8726H7.11317C8.7089 34.0542 11.9798 33.2796 13.5389 32.8923C16.1251 32.2388 18.6929 31.3916 21.2485 30.6413C24.6662 29.6368 27.9249 28.2994 31.4159 27.5007C34.1 26.8834 38.8505 26.1633 41.8952 27.0771ZM42.4515 29.4008C41.6873 30.139 40.8803 30.8712 40.1221 31.5369C37.1569 34.1328 33.6108 36.1419 30.0831 37.8967C28.2123 38.8286 26.3169 39.7787 24.3605 40.5472C24.3605 43.1492 24.3605 45.7513 24.3605 48.3533C28.414 46.7255 32.6754 44.6015 36.0258 42.0781C38.0251 40.5714 40.3912 38.5321 41.6262 36.3415C42.5005 34.7985 43.7966 31.1314 42.4515 29.4008Z" fill="#2960F7"/>
</svg>
