<svg width="226" height="52" viewBox="0 0 226 52" fill="none" xmlns="http://www.w3.org/2000/svg">
<g id="solutions-bi (1) 1" clip-path="url(#clip0_6481_2405)">
<g id="Camada_x0020_1">
<g id="_1867798780560" filter="url(#filter0_d_6481_2405)">
<g id="Group 1321314364">
<path id="Vector" d="M74.5188 17.7392H65.6169C64.1312 17.7392 63.6727 17.8239 63.4159 19.1552L63.3303 19.609C63.1836 20.317 63.4159 20.4864 64.333 20.6861C64.333 20.6861 69.8844 21.733 70.8565 21.9266C73.834 22.4955 74.3476 23.7118 73.6567 26.3501L73.0025 28.813C72.1405 32.353 70.1962 33.9081 65.3296 33.9081C61.0987 33.9081 55.4312 33.5148 55.4312 33.5148L56.3482 29.9446H65.7637C67.7079 29.9446 68.3926 29.6057 68.7656 28.105L69.0529 26.9431C69.1936 26.3743 69.1691 25.9205 68.3926 25.751C67.4205 25.5574 63.2692 24.7647 62.5844 24.6497C59.3502 24.0567 57.7789 23.7723 58.5798 20.4864L59.0078 18.7558C59.8943 15.2158 61.8997 13.7998 66.7358 13.7998C70.9972 13.7998 75.4359 14.1689 75.4359 14.1689L74.5188 17.7392Z" fill="white"/>
<path id="Vector_2" d="M86.3616 28.5606L87.8534 22.5275C88.1652 21.1357 87.7067 20.6274 86.3066 20.6274H83.5309C82.1553 20.6274 81.4399 21.1357 81.0976 22.5275L79.6119 28.5606C79.2695 29.9766 79.728 30.4546 81.0976 30.4546H83.8733C85.2795 30.4546 86.0193 29.9766 86.3616 28.5606ZM92.0904 22.6364L90.6291 28.5303C89.6265 32.5242 87.4254 33.9099 83.7021 33.9099H79.5569C75.8335 33.9099 74.3172 32.5242 75.3199 28.5303L76.775 22.6364C77.7777 18.6486 79.9848 17.2568 83.7021 17.2568H87.8534C91.5707 17.2568 93.0869 18.6486 92.0904 22.6364Z" fill="white"/>
<path id="Vector_3" d="M96.5532 33.7694H92.2612L97.4091 12.9229H101.701L96.5532 33.7694Z" fill="white"/>
<path id="Vector_4" d="M114.492 33.7693H110.231L110.543 32.5772C109.112 33.2005 107.168 33.9387 105.768 33.9387H104.991C101.39 33.9387 99.7882 33.031 100.76 29.0675L103.622 17.4854H107.914L105.168 28.5592C104.82 29.9751 105.278 30.3443 106.685 30.3443H107.339C108.427 30.3443 109.943 29.8299 111.288 29.5516L114.296 17.4854H118.558L114.492 33.7693Z" fill="white"/>
<path id="Vector_5" d="M120.532 17.4562H122.819L123.705 13.9404H128.003L127.086 17.4865H131.494L130.632 20.9962H126.224L124.28 28.9294C124.023 29.9763 124.249 30.3999 125.252 30.3999C125.509 30.3999 128.547 30.3454 128.547 30.3454L127.74 33.2863C127.74 33.2863 124.622 33.8854 122.794 33.8854C119.413 33.8854 119.217 31.8703 119.847 29.3772L121.932 20.9962H119.645L120.532 17.4562Z" fill="white"/>
<path id="Vector_6" d="M137.847 10.7998C138.935 10.7998 139.675 11.5381 139.675 12.5547C139.675 14.0009 138.244 15.187 136.758 15.187C135.725 15.187 134.985 14.4245 134.985 13.4321C134.985 11.9616 136.416 10.7998 137.847 10.7998ZM134.294 33.7704H130.002L134.038 17.4864H138.33L134.294 33.7704Z" fill="white"/>
<path id="Vector_7" d="M149.604 28.5606L151.096 22.5275C151.407 21.1357 150.949 20.6274 149.549 20.6274H146.773C145.397 20.6274 144.682 21.1357 144.34 22.5275L142.854 28.5606C142.512 29.9766 142.964 30.4546 144.34 30.4546H147.116C148.522 30.4546 149.261 29.9766 149.604 28.5606ZM155.333 22.6364L153.871 28.5303C152.869 32.5242 150.668 33.9099 146.944 33.9099H142.793C139.076 33.9099 137.559 32.5242 138.562 28.5303L140.017 22.6364C141.02 18.6486 143.227 17.2568 146.944 17.2568H151.096C154.813 17.2568 156.329 18.6486 155.333 22.6364Z" fill="white"/>
<path id="Vector_8" d="M159.508 17.4849H163.8L163.513 18.6467C164.913 18.0234 166.778 17.3154 168.178 17.3154H168.979C172.586 17.3154 174.188 18.2171 173.216 22.1564L170.324 33.7688H166.032L168.838 22.58C169.181 21.1943 168.667 20.7949 167.261 20.7949H166.607C165.518 20.7949 164.143 21.3032 162.767 21.6179L159.765 33.7688H155.473L159.508 17.4849Z" fill="white"/>
<path id="Vector_9" d="M189.241 20.7961H182.057C180.914 20.7961 180.425 20.7961 180.253 21.5041L180.137 22.0184C179.966 22.6962 180.198 22.7809 180.657 22.8656L184.833 23.6583C187.749 24.2272 189.412 24.4813 188.58 27.8216L188.293 28.9834C187.382 32.6626 185.089 33.9092 181.372 33.9092C176.793 33.9092 172.843 33.4614 172.843 33.4614L173.614 30.3692H181.458C183.17 30.3692 183.977 30.0606 184.258 28.9532L184.405 28.3904C184.545 27.8519 184.429 27.5674 183.2 27.3133L177.851 26.2906C175.961 25.8973 175.075 25.3285 175.705 22.7809L175.992 21.5888C176.903 17.9096 178.908 17.3408 182.632 17.3408C187.18 17.3408 190.042 17.595 190.042 17.595L189.241 20.7961Z" fill="white"/>
<path id="Vector_10" d="M211.905 19.5802C212.271 18.019 211.733 17.4562 210.015 17.4562H204.66L203.547 21.8192H208.842C210.529 21.8192 211.446 21.4198 211.733 20.2035L211.905 19.5802ZM201.487 30.2304H207.24C208.958 30.2304 209.844 29.4377 210.242 27.8765L210.443 27.0838C210.731 25.8372 210.04 25.3592 208.328 25.3592H202.685L201.487 30.2304ZM201.114 13.9404H211.843C215.567 13.9404 217.028 15.9555 216.282 18.9872L215.995 20.149C215.591 21.7587 214.362 22.7813 212.761 23.3199C214.222 23.9432 215.139 25.0747 214.766 26.8054L214.277 28.6994C213.531 31.7311 211.043 33.7704 207.325 33.7704H196.192L201.114 13.9404Z" fill="white"/>
<path id="Vector_11" d="M220.886 33.7704H216.478L221.4 13.9404H225.808L220.886 33.7704Z" fill="white"/>
</g>
<path id="Vector_12" fill-rule="evenodd" clip-rule="evenodd" d="M1.51283 23.64C0.797507 22.7202 0.418445 21.5886 0.296166 20.3965C0.118863 18.6053 0.534609 16.6447 1.28662 15.0714L1.59231 14.4723C2.25262 13.3165 3.1697 12.1789 4.25186 11.0836C5.3218 10.0065 6.55681 8.96566 7.85907 7.98535C9.82775 6.5028 12.0838 5.17152 14.2787 4.04599C17.3417 2.46661 20.3009 1.26846 22.2145 0.566512C22.5263 0.451538 22.8443 0.487845 23.1133 0.675434C23.3884 0.863023 23.5351 1.14743 23.5351 1.4742V12.5117C23.5351 12.9232 23.2845 13.2802 22.887 13.4254C21.8905 13.7764 20.8572 14.2182 19.7995 14.7023C18.6562 15.2287 17.5557 15.7794 16.4369 16.3361C14.7678 17.1651 13.0803 18.0668 11.454 19.0652C9.83997 20.0576 8.29927 21.1408 6.92975 22.3389C6.75245 22.4963 6.54458 22.702 6.31836 22.932C7.45555 23.0348 8.85563 22.823 10.0845 22.6355L10.6164 22.5507C12.2061 22.3147 13.9302 21.9577 15.7277 21.4676C17.409 21.0137 19.1759 20.4388 20.9979 19.743C25.3448 18.0607 29.8875 16.6145 33.7515 15.9428C37.0591 15.3739 39.9265 15.3618 41.8463 16.2453C42.8 16.675 43.5459 17.2982 44.1084 18.0486C45.0683 19.3496 45.4718 21.0198 45.4779 22.6839C45.4779 24.3116 45.1111 25.9576 44.518 27.2526C44.4508 27.4099 44.3774 27.5551 44.3041 27.7004C45.1172 28.6504 45.4718 29.8849 45.5146 31.2101C45.5635 32.9528 45.0622 34.859 44.3652 36.4202C44.194 36.7954 44.0045 37.1706 43.8088 37.5215C43.1546 38.6834 42.2314 39.821 41.1493 40.9163C40.0793 41.9934 38.8443 43.0342 37.5421 44.0145C35.5734 45.4971 33.3174 46.8223 31.1225 47.9539C28.0655 49.5272 25.1003 50.7254 23.1866 51.4334C22.8748 51.5484 22.5569 51.5121 22.2818 51.3245C22.0128 51.1369 21.8599 50.8525 21.8599 50.5257V39.4882C21.8599 39.0707 22.1167 38.7197 22.5141 38.5745C23.5107 38.2235 24.5439 37.7817 25.6016 37.2976C26.7816 36.747 27.8638 36.2145 28.9643 35.6638C30.6273 34.8348 32.3208 33.9331 33.9471 32.9347C35.5612 31.9423 37.0958 30.8591 38.4714 29.661C38.6548 29.4976 38.9177 29.2616 39.2173 28.9832C38.9238 28.9651 38.6242 28.959 38.3185 28.9651C35.8791 28.9772 33.1706 29.4855 31.9784 29.7578C29.8263 30.2479 27.7048 30.968 25.6628 31.6579C24.4094 32.0875 23.1744 32.5051 21.9577 32.856L19.1515 33.6972C17.3295 34.2539 15.6543 34.7622 14.1503 35.1374C12.524 35.5428 11.0628 35.8453 9.84609 36.0208C8.5744 36.2024 7.54114 36.2629 6.83193 36.1782C5.92707 36.1237 4.91217 35.9603 4.00731 35.6033C3.21861 35.3007 2.50329 34.8529 1.9836 34.2115C0.852532 32.8197 0.00881289 30.3992 0.228914 27.7851C0.338964 26.4175 0.736368 25.0015 1.51283 23.64ZM3.56711 22.2603C4.11736 21.6551 4.67984 21.05 5.279 20.5296C8.24424 17.9336 11.7903 15.9246 15.318 14.1697C17.1828 13.2378 19.0842 12.2817 21.0406 11.5132C21.0406 8.9112 21.0406 6.30916 21.0406 3.70711C16.9871 5.3349 12.7257 7.4589 9.37532 9.98832C7.37607 11.489 5.00999 13.5283 3.76886 15.7189C2.8151 17.4072 2.14257 20.5962 3.56711 22.2603ZM41.8952 27.0771C42.6105 25.9697 42.9529 24.0878 42.9712 23.0711C43.014 21.3465 42.531 19.4222 40.813 18.6477C38.8627 17.7642 35.2494 18.3149 33.2257 18.7203C29.4045 19.4827 25.5283 20.7898 21.9027 22.1937C18.4056 23.5371 14.6944 24.59 10.9833 25.1467C8.76393 25.4735 5.79868 26.0121 3.75664 24.8865C3.05965 26.0544 2.6867 27.3736 2.6867 28.7835C2.69282 30.1027 3.07188 31.7607 3.92783 32.8076C4.53922 33.5701 6.10438 33.8121 7.02146 33.8666L7.07037 33.8726H7.11317C8.7089 34.0542 11.9798 33.2796 13.5389 32.8923C16.1251 32.2388 18.6929 31.3916 21.2485 30.6413C24.6662 29.6368 27.9249 28.2994 31.4159 27.5007C34.1 26.8834 38.8505 26.1633 41.8952 27.0771ZM42.4515 29.4008C41.6873 30.139 40.8803 30.8712 40.1221 31.5369C37.1569 34.1328 33.6108 36.1419 30.0831 37.8967C28.2123 38.8286 26.3169 39.7787 24.3605 40.5472C24.3605 43.1492 24.3605 45.7513 24.3605 48.3533C28.414 46.7255 32.6754 44.6015 36.0258 42.0781C38.0251 40.5714 40.3912 38.5321 41.6262 36.3415C42.5005 34.7985 43.7966 31.1314 42.4515 29.4008Z" fill="#2960F7"/>
</g>
</g>
</g>
<defs>
<filter id="filter0_d_6481_2405" x="-3.80615" y="0.500977" width="233.614" height="58.998" filterUnits="userSpaceOnUse" color-interpolation-filters="sRGB">
<feFlood flood-opacity="0" result="BackgroundImageFix"/>
<feColorMatrix in="SourceAlpha" type="matrix" values="0 0 0 0 0 0 0 0 0 0 0 0 0 0 0 0 0 0 127 0" result="hardAlpha"/>
<feOffset dy="4"/>
<feGaussianBlur stdDeviation="2"/>
<feComposite in2="hardAlpha" operator="out"/>
<feColorMatrix type="matrix" values="0 0 0 0 0 0 0 0 0 0 0 0 0 0 0 0 0 0 0.25 0"/>
<feBlend mode="normal" in2="BackgroundImageFix" result="effect1_dropShadow_6481_2405"/>
<feBlend mode="normal" in="SourceGraphic" in2="effect1_dropShadow_6481_2405" result="shape"/>
</filter>
<clipPath id="clip0_6481_2405">
<rect width="226" height="51" fill="white" transform="translate(0 0.5)"/>
</clipPath>
</defs>
</svg>
