<svg width="38" height="33" viewBox="0 0 38 33" fill="none" xmlns="http://www.w3.org/2000/svg">
<path d="M12.78 25H5C4.66848 25 4.35054 24.8683 4.11612 24.6339C3.8817 24.3995 3.75 24.0815 3.75 23.75V2.5H1.25C0.918479 2.5 0.600537 2.3683 0.366116 2.13388C0.131696 1.89946 0 1.58152 0 1.25C0 0.918479 0.131696 0.600537 0.366116 0.366117C0.600537 0.131696 0.918479 0 1.25 0H36.25C36.5815 0 36.8995 0.131696 37.1339 0.366117C37.3683 0.600537 37.5 0.918479 37.5 1.25C37.5 1.58152 37.3683 1.89946 37.1339 2.13388C36.8995 2.3683 36.5815 2.5 36.25 2.5H33.75V23.75C33.75 24.0815 33.6183 24.3995 33.3839 24.6339C33.1495 24.8683 32.8315 25 32.5 25H24.735L29.065 32.5H26.18L21.85 25H15.665L11.335 32.5H8.45L12.78 25ZM31.25 2.5H6.25V22.5H31.25V2.5ZM12.135 15.885C12.0188 16.0012 11.8808 16.0934 11.729 16.1563C11.5771 16.2192 11.4144 16.2516 11.25 16.2516C11.0856 16.2516 10.9229 16.2192 10.771 16.1563C10.6192 16.0934 10.4812 16.0012 10.365 15.885C10.2488 15.7688 10.1566 15.6308 10.0937 15.479C10.0308 15.3271 9.99842 15.1644 9.99842 15C9.99842 14.8356 10.0308 14.6729 10.0937 14.521C10.1566 14.3692 10.2488 14.2312 10.365 14.115L16.1325 8.35L21.0325 12.025L25.275 6.72C25.3743 6.58311 25.5003 6.46779 25.6455 6.38102C25.7907 6.29426 25.9519 6.23785 26.1195 6.21521C26.2871 6.19258 26.4576 6.20419 26.6205 6.24934C26.7835 6.29449 26.9356 6.37224 27.0677 6.47788C27.1998 6.58353 27.309 6.71487 27.3888 6.86396C27.4686 7.01306 27.5174 7.1768 27.5321 7.34527C27.5468 7.51374 27.5272 7.68345 27.4744 7.84412C27.4216 8.00479 27.3368 8.15307 27.225 8.28L21.47 15.4775L16.3675 11.65L12.135 15.8825V15.885Z" fill="#F5F4F2"/>
</svg>
