<svg width="148" height="48" viewBox="0 0 148 48" fill="none" xmlns="http://www.w3.org/2000/svg">
<g id="Vector">
<path d="M38.2677 33.1051C36.3703 33.1051 34.7182 34.4548 34.7182 36.4873C34.7182 38.0809 35.9614 38.9752 36.3049 39.2842C34.6037 40.1622 32.8699 41.4956 32.8208 43.8372C32.8699 45.6583 34.1457 47.8861 37.4171 47.8861C39.1673 47.8861 40.623 47.1868 42.1278 45.6746C42.4223 46.1462 42.913 46.8454 43.2238 47.1706C43.649 47.5934 44.8104 47.8861 45.8899 47.8861C47.0185 47.8861 48.6706 47.4633 49.7828 46.26C49.8482 46.0324 49.6847 45.821 49.4557 45.7884C48.9813 46.1299 48.2453 46.4063 47.6237 46.4063C46.0044 46.4063 44.9576 45.4795 43.9925 43.9835C43.8453 43.7396 43.8126 43.5282 43.9599 43.3168C44.9576 41.9021 45.7755 40.6826 46.3152 39.772C47.1004 38.4549 47.5747 37.8045 48.7524 37.5605L49.7992 37.3329C49.9791 37.154 49.9137 36.78 49.7501 36.6987C49.2267 36.7475 47.1004 36.8288 45.939 36.8288H44.6796C44.4506 36.9264 44.4015 37.2679 44.6141 37.463L45.2684 37.5768C45.9063 37.6906 45.8246 37.9183 45.432 38.7801C44.7777 40.2273 43.9762 41.772 43.2402 42.7314C42.0461 40.8777 41.1792 39.837 39.429 38.7151C40.1978 38.2598 41.5718 37.7231 41.5718 36.0158C41.5718 34.4548 40.2959 33.1051 38.2677 33.1051ZM39.6253 41.8696C40.2959 42.6013 40.9338 43.4632 41.4736 44.325C41.7516 44.7477 41.7516 44.8778 41.4082 45.1868C40.7048 45.821 39.7725 46.2275 38.7584 46.2275C36.7792 46.2275 35.1926 44.8778 35.1926 42.9916C35.1926 41.8534 35.8142 40.6989 36.5829 40.1623C36.7629 40.0159 36.9918 39.8858 37.1063 39.8858C37.2208 39.8858 38.5621 40.6988 39.6253 41.8696ZM38.1695 33.9182C39.0364 33.9182 39.6089 34.7474 39.6089 35.9345C39.6089 36.8776 39.2818 37.6256 38.8565 38.0971C38.8074 38.1297 38.6929 38.211 38.6275 38.211C38.5784 38.211 38.3985 38.0971 38.2677 38.0159C37.2699 37.2841 36.7138 36.6012 36.7138 35.658C36.7138 34.6174 37.3844 33.9182 38.1695 33.9182Z" fill="white"/>
<path d="M58.9789 27.8202C57.654 27.8202 56.2964 27.7877 55.2496 27.7227C55.0042 27.8528 54.9715 28.3894 55.1842 28.6007L55.5767 28.6495C56.9998 28.8609 57.2615 28.9585 57.2615 32.1293V43.2679C57.2615 46.4387 56.9998 46.5362 55.5767 46.7151L54.9061 46.7964C54.7098 47.0078 54.7262 47.5444 54.9715 47.6744C56.3618 47.6094 57.7194 47.5769 59.0443 47.5769C60.3692 47.5769 61.7268 47.6094 63.6406 47.6744C63.8859 47.5444 63.9186 47.0078 63.706 46.7964L62.4465 46.65C61.0235 46.5362 60.7618 46.4386 60.7618 43.2678V39.0726C60.7618 38.3246 60.7781 38.2595 61.4815 38.2595H63.248C65.8814 38.2595 66.3558 38.3245 66.6338 39.5766L66.8628 40.7474C67.0428 40.9588 67.6152 40.9588 67.7788 40.7148C67.7462 39.788 67.6807 38.7148 67.6807 37.6091C67.6807 36.5033 67.7461 35.3976 67.7788 34.6171C67.6152 34.3732 67.0428 34.3732 66.8628 34.5845L66.6338 35.609C66.3558 36.861 65.8814 36.9261 63.248 36.9261H61.4815C60.7781 36.9261 60.7618 36.8611 60.7618 36.1131V30.747C60.7618 29.0722 60.7618 29.0234 62.0212 29.0234H63.5588C64.5238 29.0234 65.2762 29.0396 66.0777 29.2511C67.2227 29.56 67.7134 30.4218 68.0078 32.1617C68.3186 32.3406 68.8584 32.2755 68.9729 32.0479C68.9238 30.6332 68.9238 28.3892 68.9238 27.7226C68.2859 27.7876 66.6011 27.8201 64.671 27.8201L58.9789 27.8202Z" fill="white"/>
<path d="M74.3308 38.8292C74.3308 37.6096 74.3635 36.1787 74.4289 35.1868C74.3308 35.0404 74.1835 34.9754 74.0036 34.9429C73.1694 35.4469 71.6482 36.1136 70.0944 36.5689C69.9635 36.7153 69.9635 37.1218 70.0617 37.2519L70.4215 37.4633C71.174 37.9023 71.174 38.26 71.174 39.6097V44.0163C71.174 46.2278 71.0595 46.553 70.029 46.7156L69.4892 46.7968C69.2766 47.0082 69.3093 47.5448 69.5546 47.6749C70.6996 47.6099 71.7137 47.5774 72.7115 47.5774C73.8237 47.5774 74.8542 47.6099 75.9665 47.6749C76.1954 47.5448 76.2282 47.0082 76.0155 46.7968L75.4758 46.7156C74.4616 46.553 74.3308 46.2278 74.3308 44.0163L74.3308 38.8292ZM72.7442 31.4143C73.8892 31.4143 74.6743 30.6013 74.6743 29.5281C74.6743 28.4549 73.8892 27.6418 72.7442 27.6418C71.5992 27.6418 70.8141 28.4549 70.8141 29.5281C70.8141 30.6013 71.5992 31.4143 72.7442 31.4143Z" fill="white"/>
<path d="M85.1189 37.1054C85.3642 36.9428 85.4787 36.6826 85.5115 36.3248C85.5115 36.0159 85.446 35.7882 85.2661 35.6907H82.2891C81.7167 35.6907 81.7167 35.6093 81.7167 35.1216V33.3329C81.5695 33.089 81.1442 32.9914 80.8661 33.1703C80.4408 33.9833 79.7866 34.6175 79.2141 35.0403C78.5435 35.5118 77.8565 35.9021 76.8424 36.2923C76.5643 36.4712 76.6297 36.9428 76.9241 37.1054H77.9873C78.4616 37.1054 78.5271 37.1216 78.5271 38.1786V44.26C78.5271 46.3577 79.0341 48 81.8966 48C83.7285 48 85.1188 47.187 85.724 46.3577C85.7731 46.0162 85.5932 45.7885 85.3315 45.756C84.8408 46.0812 84.4809 46.2926 83.8757 46.2926C81.962 46.2926 81.6839 44.6178 81.6839 42.7315V38.1135C81.6839 37.1541 81.7166 37.1054 82.2564 37.1054H85.1189Z" fill="white"/>
<path d="M93.9995 35.3654C89.1579 35.3654 86.5899 38.5687 86.5899 42.0648C86.5899 43.8047 87.2769 45.3657 88.3401 46.3738C89.3542 47.3657 90.9244 47.9999 92.5274 47.9999C94.4248 47.9999 96.7311 47.1544 97.827 44.7315C97.7943 44.3738 97.4671 44.1624 97.1891 44.1949C96.5839 45.0567 95.8969 45.7885 93.9341 45.7885C91.2025 45.7885 89.6322 43.4794 89.6322 41.0566C89.6322 38.2435 91.4151 36.5687 93.1326 36.5687C94.2939 36.5687 95.2099 37.5118 95.8642 38.3899C96.0768 38.65 96.224 38.7151 96.4366 38.7151C96.682 38.7151 97.1891 38.2598 97.1891 37.3167C97.1891 36.6174 96.9764 36.1459 96.5839 35.7882C95.7497 35.4792 94.8664 35.3654 93.9995 35.3654Z" fill="white"/>
<path d="M103.783 30.7477C103.783 29.4631 103.816 27.6093 103.882 26.4061C103.816 26.2597 103.636 26.1459 103.456 26.1784C102.213 26.65 100.676 27.2841 99.5143 27.6094C99.3017 27.7069 99.3344 28.1785 99.5143 28.2923L99.9232 28.5687C100.594 28.959 100.627 29.1704 100.627 31.1704V44.0163C100.627 46.2278 100.496 46.553 99.4816 46.7156L98.811 46.7969C98.5983 47.0083 98.6311 47.5449 98.8764 47.6749C100.136 47.6099 101.166 47.5774 102.131 47.5774C103.244 47.5774 104.274 47.6099 105.321 47.6749C105.566 47.5449 105.599 47.0083 105.386 46.7969L104.928 46.7319C103.898 46.553 103.783 46.2278 103.783 44.0163V39.9999C103.783 38.8292 103.816 38.3901 104.143 38.0324C104.503 37.6422 105.206 37.1543 106.188 37.1543C107.971 37.1543 108.609 38.3576 108.609 39.7886V44.0163C108.609 46.2278 108.478 46.553 107.464 46.7319L107.006 46.7969C106.793 47.0083 106.826 47.5449 107.071 47.6749C108.118 47.6099 109.148 47.5774 110.146 47.5774C111.258 47.5774 112.273 47.6099 113.548 47.6749C113.843 47.5449 113.875 47.0083 113.597 46.7969L112.91 46.7156C111.88 46.553 111.765 46.2278 111.765 44.0163V39.5609C111.765 37.008 110.506 35.3657 107.905 35.3657C106.4 35.3657 105.108 36.0161 104.061 36.7966C103.849 36.7966 103.783 36.6503 103.783 36.2925L103.783 30.7477Z" fill="white"/>
<path d="M11.1686 14.071C12.0027 14.071 12.1009 14.071 12.3953 14.8841L13.8183 18.9492C14.2109 20.2338 14.1128 20.4127 13.0332 20.5428L12.3626 20.6241C12.1827 20.803 12.2154 21.3396 12.4607 21.5022C13.5076 21.4697 14.8325 21.4046 16.141 21.4046C17.6949 21.4046 18.8072 21.4372 20.0503 21.5022C20.2629 21.3396 20.2629 20.8355 20.0175 20.6241L19.5595 20.5428C18.0384 20.2664 17.8748 20.055 17.1878 18.0549L12.8533 5.50168C12.3626 4.16831 11.97 2.75364 11.4956 1.404C11.3811 1.25766 11.2176 1.16009 10.9886 1.16009C10.9232 1.16009 9.9254 2.3959 8.87857 2.60729C8.96039 3.11137 8.69864 3.82684 8.30608 4.78622L4.18417 15.4532C3.54627 17.063 3.07192 18.3151 2.69571 19.0956C2.25408 20.0875 1.92694 20.3639 1.04368 20.4777L0.144062 20.6241C-0.0685794 20.9005 -0.035868 21.3396 0.176807 21.5022C1.22364 21.4371 2.15597 21.4046 3.15374 21.4046C4.39685 21.4372 5.37826 21.4372 6.3433 21.5022C6.58866 21.3721 6.62137 20.8355 6.40871 20.6241L5.54181 20.4777C4.41319 20.3314 4.29869 20.2338 4.90389 18.4777L6.13065 14.8841C6.40871 14.071 6.376 14.071 7.16112 14.071H11.1686ZM7.63549 12.7214C6.91579 12.7214 6.83401 12.7214 7.16114 11.8596L8.42061 8.3473C8.96039 6.94888 9.20574 6.2009 9.32024 5.98951H9.38564C9.53285 6.2009 9.71277 6.77002 10.2362 8.3473L11.4957 11.9409C11.741 12.6564 11.6102 12.7214 10.776 12.7214H7.63549Z" fill="white"/>
<path d="M24.4409 4.57483C24.4409 3.29024 24.4737 1.43652 24.5391 0.233238C24.4737 0.0868932 24.2937 -0.0269325 24.1138 0.00558677C22.8707 0.477149 21.3168 1.11131 20.1718 1.43652C19.9592 1.53409 19.9919 2.00564 20.1718 2.11947L20.5971 2.3959C21.2514 2.78615 21.2841 2.99755 21.2841 4.9976V18.4939C21.2841 19.6159 21.186 21.1932 21.186 21.307C21.186 21.4046 21.3659 21.5184 21.4967 21.5184C21.5785 21.5184 21.6439 21.5184 21.7094 21.5022C21.8893 21.2908 22.1019 21.0144 22.4618 21.0144C22.8216 21.0144 24.2283 21.8274 26.4692 21.8274C30.4112 21.8274 33.6007 19.372 33.6007 15.1118C33.6007 11.7946 31.3762 9.19288 27.8432 9.19288C26.6491 9.19288 25.6513 9.58314 24.6863 10.1523C24.5064 10.1523 24.4409 10.0222 24.4409 9.61566V4.57483ZM24.4409 12.7865C24.4409 11.762 24.5064 11.3718 24.7681 11.1929C25.0134 11.014 25.6513 10.8027 26.2565 10.8027C28.3829 10.8027 30.2476 12.6889 30.2476 16.2012C30.2476 18.7379 29.1353 20.6241 27.1235 20.6241C26.2565 20.6241 25.5205 20.1851 25.1116 19.6159C24.6209 18.9818 24.4409 17.9248 24.4409 16.6077V12.7865Z" fill="white"/>
<path d="M44.0995 14.315C45.3099 14.315 45.9969 14.1849 46.1768 13.9247C46.3077 13.6808 46.3404 13.5019 46.3404 13.2255C46.3404 10.6238 44.0505 9.19286 41.826 9.19286C37.7858 9.19286 35.4632 12.4612 35.4632 15.8435C35.4632 19.2419 37.7858 21.8274 41.2698 21.8274C43.1181 21.8274 45.3427 20.933 46.3731 18.5265C46.3405 18.2663 45.9969 17.9573 45.7025 18.0549C45.0155 19.1606 44.0178 19.5509 42.8074 19.5509C40.1249 19.5509 38.2602 17.3882 38.2602 14.7052C38.2602 14.3475 38.3256 14.315 38.8981 14.315H44.0995ZM38.9308 13.1117C38.571 13.1117 38.5055 13.0303 38.5055 12.9003C38.5055 12.2661 39.4379 10.3311 41.4498 10.3311C42.7583 10.3311 43.4453 11.1929 43.4453 12.2661C43.4453 12.5425 43.3308 12.7865 43.1509 12.9003C42.9382 13.0304 42.5457 13.1117 41.6624 13.1117H38.9308Z" fill="white"/>
<path d="M48.9267 17.8435C48.9267 20.055 48.7958 20.3802 47.7817 20.5428L47.2419 20.6241C47.0293 20.8355 47.062 21.3721 47.291 21.5022C48.436 21.4372 49.4337 21.4046 50.4315 21.4046C51.5437 21.4046 52.5742 21.4372 54.3735 21.5022C54.6188 21.3721 54.6515 20.8355 54.4389 20.6241L53.2612 20.5103C52.2143 20.3802 52.0835 20.055 52.0835 17.8436V13.7459C52.0835 12.2662 52.2634 11.5832 52.9668 11.5832C53.1467 11.5832 53.6537 11.6482 54.4062 12.1523C54.6515 12.2987 54.9132 12.3962 55.224 12.3962C56.0255 12.3962 56.9087 11.8271 56.9087 10.6563C56.9087 9.87584 56.3035 9.19289 55.2403 9.19289C54.2262 9.19289 53.2285 10.0872 52.2961 10.7539C52.1162 10.7539 52.0017 10.5913 52.0017 10.3962C52.0017 10.1197 52.018 9.61567 52.0508 9.04655C52.0017 8.86767 51.8218 8.77011 51.6419 8.77011C50.7259 9.30672 49.1393 9.9734 47.8471 10.3962C47.7162 10.5425 47.7162 10.949 47.8144 11.0791L48.1743 11.2905C48.9267 11.7295 48.9267 12.0873 48.9267 13.4369L48.9267 17.8435Z" fill="white"/>
<path d="M64.4927 9.19286C59.6511 9.19286 57.0831 12.3962 57.0831 15.8922C57.0831 17.6321 57.7701 19.1932 58.8333 20.2013C59.8474 21.1932 61.4176 21.8274 63.0206 21.8274C64.918 21.8274 67.2243 20.9818 68.3202 18.559C68.2875 18.2013 67.9603 17.9899 67.6823 18.0224C67.0771 18.8842 66.3901 19.6159 64.4273 19.6159C61.6957 19.6159 60.1255 17.3069 60.1255 14.8841C60.1255 12.071 61.9083 10.3961 63.6258 10.3961C64.7871 10.3961 65.7031 11.3393 66.3574 12.2173C66.57 12.4775 66.7172 12.5425 66.9299 12.5425C67.1752 12.5425 67.6823 12.0873 67.6823 11.1441C67.6823 10.4449 67.4696 9.97337 67.0771 9.61563C66.2429 9.30667 65.3596 9.19286 64.4927 9.19286Z" fill="white"/>
<path d="M70.8783 17.8435C70.8783 20.055 70.7474 20.3802 69.7333 20.5428L69.1935 20.6241C68.9809 20.8355 69.0136 21.3721 69.2426 21.5022C70.3876 21.4372 71.3853 21.4046 72.3831 21.4046C73.4954 21.4046 74.5258 21.4372 76.3251 21.5022C76.5704 21.3721 76.6031 20.8355 76.3905 20.6241L75.2128 20.5103C74.166 20.3802 74.0351 20.055 74.0351 17.8436V13.7459C74.0351 12.2662 74.215 11.5832 74.9184 11.5832C75.0983 11.5832 75.6054 11.6482 76.3578 12.1523C76.6031 12.2987 76.8648 12.3962 77.1756 12.3962C77.9771 12.3962 78.8604 11.8271 78.8604 10.6563C78.8604 9.87584 78.2552 9.19289 77.192 9.19289C76.1779 9.19289 75.1801 10.0872 74.2478 10.7539C74.0678 10.7539 73.9533 10.5913 73.9533 10.3962C73.9533 10.1197 73.9697 9.61567 74.0024 9.04655C73.9533 8.86767 73.7734 8.77011 73.5935 8.77011C72.6775 9.30672 71.0909 9.9734 69.7987 10.3962C69.6679 10.5425 69.6679 10.949 69.7661 11.0791L70.1259 11.2905C70.8783 11.7295 70.8783 12.0873 70.8783 13.4369L70.8783 17.8435Z" fill="white"/>
<path d="M85.6268 9.19286C82.1101 9.19286 79.035 11.7133 79.035 15.7134C79.035 19.6322 81.9302 21.8274 85.3978 21.8274C88.9799 21.8274 91.9896 19.6159 91.9896 15.3556C91.9896 11.4693 89.029 9.19286 85.6268 9.19286ZM82.5845 15.2743C82.5845 11.9409 83.7949 10.3961 85.3324 10.3961C87.5569 10.3961 88.4238 13.3556 88.4238 15.8597C88.4238 18.1687 87.835 20.6241 85.7577 20.6241C83.5822 20.6241 82.5845 17.9899 82.5845 15.2743Z" fill="white"/>
<path d="M94.3628 17.8435C94.3628 20.055 94.2483 20.3802 93.2178 20.5428L92.678 20.6241C92.4654 20.8355 92.4981 21.3721 92.7435 21.5022C93.8884 21.4372 94.8698 21.4046 95.8676 21.4046C96.9799 21.4046 98.0103 21.4372 99.0572 21.5022C99.3025 21.3721 99.3352 20.8355 99.1226 20.6241L98.6646 20.5591C97.6505 20.3802 97.5196 20.055 97.5196 17.8436V13.8272C97.5196 12.6564 97.5523 12.3963 97.9122 11.9084C98.2393 11.4694 99.0244 10.9816 100.055 10.9816C101.805 10.9816 102.345 12.1849 102.345 13.7784V17.8436C102.345 20.055 102.23 20.3802 101.2 20.5591L100.807 20.6241C100.595 20.8355 100.627 21.3721 100.873 21.5022C101.854 21.4372 102.885 21.4046 103.882 21.4046C104.995 21.4046 105.992 21.4372 107.039 21.5022C107.285 21.3721 107.317 20.8355 107.105 20.6241L106.647 20.5591C105.633 20.3802 105.502 20.055 105.502 17.8436V13.4369C105.502 12.6076 105.567 12.2499 105.862 11.8922C106.221 11.4369 107.006 10.9816 107.89 10.9816C109.787 10.9816 110.327 12.1849 110.327 13.7784V17.8436C110.327 20.055 110.196 20.3802 109.182 20.5428L108.691 20.6242C108.479 20.8356 108.511 21.3722 108.757 21.5023C109.836 21.4372 110.867 21.4047 111.864 21.4047C112.977 21.4047 113.991 21.4373 115.299 21.5023C115.414 21.3722 115.561 20.8356 115.299 20.6242L114.629 20.5428C113.598 20.3802 113.484 20.055 113.484 17.8436V13.2093C113.484 10.8678 112.339 9.19291 109.803 9.19291C108.397 9.19291 107.366 9.72952 105.96 10.5913C105.6 10.8027 105.42 10.9003 105.289 10.9003C105.174 10.9003 104.995 10.7214 104.815 10.445C104.389 9.87586 103.392 9.19291 102.099 9.19291C100.055 9.19291 99.2697 9.90838 97.7976 10.6889C97.6177 10.6563 97.5195 10.5913 97.5195 10.3962C97.5195 10.1523 97.5195 9.58316 97.5849 9.01404C97.5195 8.88396 97.405 8.77013 97.1924 8.77013C96.2273 9.30673 94.608 10.0222 93.2831 10.3962C93.1523 10.5425 93.1523 10.9491 93.2505 11.0791L93.6103 11.2905C94.3627 11.7296 94.3627 12.0873 94.3627 13.4369L94.3628 17.8435Z" fill="white"/>
<path d="M119.804 4.57483C119.804 3.29024 119.837 1.43652 119.902 0.233238C119.837 0.0868932 119.657 -0.0269325 119.477 0.00558677C118.234 0.477149 116.68 1.11131 115.535 1.43652C115.322 1.53409 115.355 2.00564 115.535 2.11947L115.96 2.3959C116.615 2.78615 116.647 2.99755 116.647 4.9976V18.4939C116.647 19.6159 116.549 21.1932 116.549 21.307C116.549 21.4046 116.729 21.5184 116.86 21.5184C116.942 21.5184 117.007 21.5184 117.073 21.5022C117.253 21.2908 117.465 21.0144 117.825 21.0144C118.185 21.0144 119.592 21.8274 121.832 21.8274C125.774 21.8274 128.964 19.372 128.964 15.1118C128.964 11.7946 126.74 9.19288 123.206 9.19288C122.012 9.19288 121.015 9.58314 120.05 10.1523C119.87 10.1523 119.804 10.0222 119.804 9.61566V4.57483ZM119.804 12.7865C119.804 11.762 119.87 11.3718 120.131 11.1929C120.377 11.014 121.015 10.8027 121.62 10.8027C123.746 10.8027 125.611 12.6889 125.611 16.2012C125.611 18.7379 124.499 20.6241 122.487 20.6241C121.62 20.6241 120.884 20.1851 120.475 19.6159C119.984 18.9818 119.804 17.9248 119.804 16.6077V12.7865Z" fill="white"/>
<path d="M134.496 12.6564C134.496 11.4368 134.529 10.0059 134.594 9.01399C134.496 8.86764 134.349 8.8026 134.169 8.77007C133.335 9.27415 131.814 9.94084 130.26 10.3961C130.129 10.5425 130.129 10.949 130.227 11.0791L130.587 11.2905C131.34 11.7295 131.34 12.0873 131.34 13.4369V17.8435C131.34 20.055 131.225 20.3802 130.195 20.5428L129.655 20.6241C129.442 20.8355 129.475 21.3721 129.72 21.5022C130.865 21.4372 131.879 21.4046 132.877 21.4046C133.989 21.4046 135.02 21.4372 136.132 21.5022C136.361 21.3721 136.394 20.8355 136.181 20.6241L135.641 20.5428C134.627 20.3802 134.496 20.055 134.496 17.8435L134.496 12.6564ZM132.91 5.24151C134.055 5.24151 134.84 4.42848 134.84 3.35528C134.84 2.28207 134.055 1.46904 132.91 1.46904C131.765 1.46904 130.98 2.28207 130.98 3.35528C130.98 4.42848 131.765 5.24151 132.91 5.24151Z" fill="white"/>
<path d="M145.726 14.315C146.937 14.315 147.624 14.1849 147.804 13.9247C147.935 13.6808 147.967 13.5019 147.967 13.2255C147.967 10.6238 145.677 9.19286 143.453 9.19286C139.413 9.19286 137.09 12.4612 137.09 15.8435C137.09 19.2419 139.413 21.8274 142.897 21.8274C144.745 21.8274 146.97 20.933 148 18.5265C147.967 18.2663 147.624 17.9573 147.329 18.0549C146.642 19.1606 145.645 19.5509 144.434 19.5509C141.752 19.5509 139.887 17.3882 139.887 14.7052C139.887 14.3475 139.952 14.315 140.525 14.315H145.726ZM140.558 13.1117C140.198 13.1117 140.132 13.0303 140.132 12.9003C140.132 12.2661 141.065 10.3311 143.077 10.3311C144.385 10.3311 145.072 11.1929 145.072 12.2661C145.072 12.5425 144.958 12.7865 144.778 12.9003C144.565 13.0304 144.173 13.1117 143.289 13.1117H140.558Z" fill="white"/>
</g>
</svg>
