<svg width="150" height="32" viewBox="0 0 150 32" fill="none" xmlns="http://www.w3.org/2000/svg">
<g id="logo-agropalma1 1" clip-path="url(#clip0_6481_2590)">
<path id="Vector" d="M69.9011 21.2284C69.9011 17.9346 72.0937 15.2007 76.1967 15.2007C80.2997 15.2007 82.4927 17.9346 82.4927 21.2284C82.4927 24.5223 80.2997 27.2562 76.1967 27.2562C72.0937 27.2562 69.9011 24.5223 69.9011 21.2284ZM79.3362 21.2284C79.3362 18.8733 77.9907 17.5723 76.1967 17.5723C74.3861 17.5723 73.0572 18.8898 73.0572 21.2284C73.0572 23.5671 74.4027 24.8846 76.1967 24.8846C77.9907 24.8846 79.3362 23.5836 79.3362 21.2284Z" fill="white"/>
<path id="Vector_2" d="M56.7961 15.9419C55.9822 15.5302 54.7031 15.1843 53.2746 15.1843C49.8361 15.1843 47.3777 17.457 47.3777 21.1791C47.3777 25.0823 49.969 27.2563 53.2414 27.2563C54.4042 27.2563 55.4673 26.9763 56.4307 26.4164V26.894C56.4307 28.8374 55.3676 29.2985 53.1251 29.2985C50.8992 29.2985 49.4374 28.5903 48.6401 28.2445L48.6567 31.0442C49.6866 31.5218 51.3975 31.9994 53.4573 31.9994C57.2447 31.9994 59.4705 30.1055 59.4705 26.7951V15.2996C58.4074 15.2996 57.5104 15.5137 56.7961 15.9419ZM53.9888 24.8847C51.8792 24.8847 50.5338 23.419 50.5338 21.1956C50.5338 18.544 52.3776 17.5558 54.0553 17.5558C54.8028 17.5558 55.6001 17.7535 56.4473 18.1323V24.1106C55.6333 24.6377 54.8194 24.8847 53.9888 24.8847Z" fill="white"/>
<path id="Vector_3" d="M65.2842 18.5275V27.0421H62.2278V15.2995C63.3075 15.2995 64.2377 15.53 65.0184 15.9912C66.2643 15.4642 67.6263 15.2007 69.0881 15.2007V18.0499C67.6263 18.0334 66.3473 18.198 65.2842 18.5275Z" fill="white"/>
<path id="Vector_4" d="M115.947 10.0132V27.0425H112.891V10.8861L115.947 10.0132Z" fill="white"/>
<path id="Vector_5" d="M136.296 19.7301V27.0424H133.256V19.9442C133.256 18.2643 132.31 17.5561 131.014 17.5561C130.216 17.5561 129.519 17.7373 128.904 18.0996C128.97 18.429 129.02 18.7584 129.02 19.0878V27.0424H125.981V19.9442C125.981 18.2643 125.034 17.5561 123.738 17.5561C122.991 17.5561 122.326 17.7373 121.745 18.1161V27.0424H118.705V15.2999C119.785 15.2999 120.765 15.5304 121.446 15.9751C122.559 15.4645 123.655 15.2011 124.752 15.2011C126.064 15.2011 127.111 15.5469 127.875 16.2221C128.821 15.5469 130.067 15.2011 131.612 15.2011C134.485 15.1846 136.296 16.6339 136.296 19.7301Z" fill="white"/>
<path id="Vector_6" d="M42.892 26.4987C42.1279 26.8775 40.8987 27.2563 39.4369 27.2563C36.1479 27.2563 33.6064 25.0823 33.6064 21.2614C33.6064 17.457 36.1479 15.1843 39.4369 15.1843C40.6993 15.1843 41.8621 15.4314 42.9087 15.909C43.6395 15.4972 44.5199 15.2831 45.583 15.2831V27.141C44.5032 27.1575 43.6063 26.9434 42.892 26.4987ZM40.2509 24.8847C40.9319 24.8847 41.696 24.7035 42.5265 24.3248V18.0664C41.7459 17.7206 40.9983 17.5558 40.2841 17.5558C38.2742 17.5558 36.746 18.7417 36.746 21.245C36.746 23.0072 37.6097 24.8847 40.2509 24.8847Z" fill="white"/>
<path id="Vector_7" d="M107.459 26.4987C106.695 26.8775 105.465 27.2563 104.004 27.2563C100.715 27.2563 98.1729 25.0823 98.1729 21.2614C98.1729 17.457 100.715 15.1843 104.004 15.1843C105.266 15.1843 106.429 15.4314 107.475 15.909C108.206 15.4972 109.087 15.2831 110.15 15.2831V27.141C109.07 27.1575 108.173 26.9434 107.459 26.4987ZM104.818 24.8847C105.499 24.8847 106.263 24.7035 107.093 24.3248V18.0664C106.313 17.7206 105.565 17.5558 104.851 17.5558C102.841 17.5558 101.313 18.7417 101.313 21.245C101.329 23.0072 102.176 24.8847 104.818 24.8847Z" fill="white"/>
<path id="Vector_8" d="M147.309 26.4987C146.545 26.8775 145.315 27.2563 143.854 27.2563C140.565 27.2563 138.024 25.0823 138.024 21.2614C138.024 17.457 140.565 15.1843 143.854 15.1843C145.116 15.1843 146.279 15.4314 147.325 15.909C148.056 15.4972 148.937 15.2831 150 15.2831V27.141C148.92 27.1575 148.023 26.9434 147.309 26.4987ZM144.668 24.8847C145.349 24.8847 146.113 24.7035 146.943 24.3248V18.0664C146.163 17.7206 145.415 17.5558 144.701 17.5558C142.691 17.5558 141.163 18.7417 141.163 21.245C141.163 23.0072 142.027 24.8847 144.668 24.8847Z" fill="white"/>
<path id="Vector_9" d="M90.6657 15.1843C89.2378 15.1843 87.9583 15.5302 87.1444 15.9419C86.414 15.5137 85.5165 15.2996 84.4534 15.2996V31.7854H87.4935V26.4164C88.4566 26.9763 89.5362 27.2563 90.6829 27.2563C93.9714 27.2563 96.546 25.0823 96.546 21.1791C96.546 17.457 94.0878 15.1843 90.6657 15.1843ZM89.9517 24.8847C89.1214 24.8847 88.3075 24.6212 87.4935 24.1106V18.1323C88.3403 17.7535 89.1378 17.5558 89.8853 17.5558C91.5632 17.5558 93.4067 18.544 93.4067 21.1956C93.3903 23.419 92.0452 24.8847 89.9517 24.8847Z" fill="white"/>
<path id="Vector_10" d="M26.6124 18.3633C26.0814 10.491 18.3157 3.47502 13.902 0.197632C13.7361 0.0658773 13.5203 0 13.3212 0C13.122 0 12.9064 0.0658773 12.7404 0.197632C8.32664 3.47502 0.560966 10.491 0.0299807 18.3633C-0.484411 25.9392 5.68829 32.0328 13.3212 31.9998C20.9541 32.0328 27.1102 25.9392 26.6124 18.3633ZM23.8911 16.8152C21.0205 16.9963 17.0215 18.1657 14.5823 20.5043V16.7658C14.5823 12.8131 19.2284 11.5779 21.568 11.3144C22.713 13.0437 23.5758 14.9047 23.8911 16.8152ZM12.0601 29.2989C7.6463 28.8048 2.85084 25.4451 2.63512 19.4338C5.50576 19.6808 12.0601 21.2125 12.0601 26.6474V29.2989ZM12.0601 20.5043C9.6209 18.1492 5.62192 16.9963 2.75128 16.8152C3.04996 14.9047 3.9294 13.0437 5.07434 11.3144C7.41399 11.5779 12.0601 12.8131 12.0601 16.7658V20.5043ZM13.3212 12.6484C11.861 10.6392 9.27246 9.43688 6.883 8.9428C9.02352 6.4395 11.5125 4.38084 13.1387 3.1621C13.1884 3.1127 13.2714 3.09623 13.3378 3.09623C13.4042 3.09623 13.4706 3.1127 13.5369 3.1621C15.163 4.3973 17.6521 6.4395 19.7925 8.9428C17.3699 9.43688 14.7814 10.6557 13.3212 12.6484ZM14.5823 29.2989V26.6474C14.5823 21.229 21.1366 19.6973 24.0073 19.4338C23.7916 25.4451 18.9795 28.8213 14.5823 29.2989Z" fill="white"/>
</g>
<defs>
<clipPath id="clip0_6481_2590">
<rect width="150" height="32" fill="white"/>
</clipPath>
</defs>
</svg>
