<svg width="146" height="24" viewBox="0 0 146 24" fill="none" xmlns="http://www.w3.org/2000/svg">
<path id="Vector" d="M6.00936 6.71894C5.9029 6.2777 5.92952 5.83645 5.98275 5.58825C6.11582 4.8988 6.56828 4.15419 7.87243 4.15419C9.09673 4.15419 9.78873 4.92638 9.78873 6.11223C9.78873 6.49832 9.78873 7.43597 9.78873 7.43597H14.9521V5.91918C14.9787 1.23093 10.9066 0.486328 7.97889 0.486328C4.30598 0.486328 1.29846 1.75491 0.739537 5.25731C0.579846 6.22254 0.553231 7.07746 0.792768 8.153C1.69769 12.5379 9.07012 13.8065 10.1347 16.5918C10.3477 17.1158 10.2678 17.7777 10.188 18.1914C10.0283 18.9084 9.54919 19.653 8.1652 19.653C6.86105 19.653 6.08921 18.8808 6.08921 17.695V15.6266H0.5V17.2813C0.5 22.0799 4.14629 23.5139 8.03212 23.5139C11.7849 23.5139 14.8456 22.1902 15.3513 18.605C15.5909 16.7573 15.4046 15.5439 15.3247 15.1026C14.473 10.5523 6.5949 9.22854 6.00936 6.71894ZM73.4258 6.74652C73.346 6.33285 73.3726 5.86403 73.3992 5.6434C73.5589 4.95395 73.9848 4.20935 75.2889 4.20935C76.4866 4.20935 77.1786 4.98153 77.1786 6.13981C77.1786 6.5259 77.1786 7.46355 77.1786 7.46355H82.2887V5.97434C82.2887 1.34124 78.2964 0.624218 75.3954 0.624218C71.7491 0.624218 68.7682 1.86523 68.2093 5.34005C68.0762 6.2777 68.0229 7.13261 68.2625 8.20815C69.1408 12.5379 76.4334 13.8065 77.498 16.5643C77.6843 17.0882 77.6311 17.7501 77.5246 18.1362C77.3649 18.8532 76.9124 19.5703 75.5285 19.5703C74.2509 19.5703 73.4525 18.7981 73.4525 17.6398V15.5715H67.9431V17.1986C67.9431 21.942 71.5362 23.376 75.3954 23.376C79.0949 23.376 82.1557 22.0523 82.6347 18.5223C82.8743 16.6746 82.688 15.4887 82.6081 15.0475C81.783 10.5799 74.0114 9.25611 73.4258 6.74652ZM120.482 18.4671L115.611 1.17578H107.919V22.4384H113.003L112.71 4.59544L117.953 22.4384H125.326V1.17578H120.215L120.482 18.4671ZM22.6971 1.17578L18.8379 22.659H24.4271L27.3282 2.7753L30.1494 22.659H35.712L31.906 1.17578H22.6971ZM53.9967 1.17578L51.3884 17.9707L48.7801 1.17578H40.3164L39.864 22.659H45.054L45.187 2.7753L48.7535 22.659H53.9967L57.5631 2.7753L57.6962 22.659H62.8862L62.4337 1.17578H53.9967ZM102.17 1.17578H96.9271V17.0607C96.9271 17.3364 96.9271 17.6398 96.8739 17.888C96.7674 18.412 96.3416 19.46 94.8778 19.46C93.4405 19.46 93.0147 18.4396 92.9082 17.888C92.855 17.6674 92.855 17.3364 92.855 17.0607V1.17578H87.6118V16.5643C87.6118 16.9504 87.6384 17.7777 87.665 17.9707C88.0376 21.9695 91.0718 23.2933 94.8778 23.2933C98.6837 23.2933 101.744 21.9971 102.117 17.9707C102.144 17.7501 102.197 16.9504 102.17 16.5643V1.17578ZM138.154 10.5799V13.7237H140.283V16.84C140.283 17.1158 140.283 17.4192 140.23 17.6674C140.15 18.2465 139.618 19.2393 138.101 19.2393C136.61 19.2393 136.078 18.2465 135.998 17.6674C135.972 17.4192 135.945 17.1158 135.945 16.84V7.0223C135.945 6.66379 135.972 6.30527 136.052 6.00192C136.158 5.47794 136.61 4.45755 138.101 4.45755C139.698 4.45755 140.07 5.53309 140.177 6.00192C140.23 6.30527 140.23 6.82925 140.23 6.82925V8.01511H145.447V7.29808C145.447 7.29808 145.473 6.55347 145.42 5.86403C145.021 1.86523 141.8 0.59664 138.128 0.59664C134.455 0.59664 131.314 1.8928 130.862 5.8916C130.808 6.25012 130.755 6.91199 130.755 7.32566V16.3436C130.755 16.7297 130.755 17.0331 130.835 17.7501C131.181 21.6662 134.455 23.0451 138.128 23.0451C141.827 23.0451 145.074 21.6662 145.42 17.7501C145.473 17.0331 145.5 16.7297 145.5 16.3436V10.5799H138.154Z" fill="white"/>
</svg>
