<svg width="1320" height="119" viewBox="0 0 1320 119" fill="none" xmlns="http://www.w3.org/2000/svg">
<g filter="url(#filter0_d_6481_3253)">
<path d="M72.5495 86.1846C72.4455 86.6737 72.4457 86.6737 72.446 86.6738L72.4475 86.6741L72.4533 86.6753L72.4765 86.6803L72.5684 86.6998L72.9274 86.7761L74.2969 87.0673C75.4805 87.319 77.1796 87.6805 79.2419 88.1195C83.3665 88.9975 88.944 90.1856 94.7554 91.4263C106.38 93.9081 118.935 96.5988 122.675 97.4384L122.679 97.4393C134.099 99.8981 140.631 103.725 143.716 109.641C146.815 115.586 146.518 123.789 143.86 135.227L138.823 156.6L138.821 156.609C135.514 171.916 130.149 182.839 121.024 189.95C111.893 197.066 98.9123 200.433 80.2236 200.433C63.948 200.433 44.9032 199.581 29.9228 198.727C22.4336 198.301 15.9621 197.874 11.3631 197.554C9.06361 197.394 7.23229 197.261 5.97598 197.168C5.39726 197.125 4.94056 197.09 4.61632 197.066L11.461 167.035H83.5663C91.0561 167.035 96.2547 166.306 99.9392 163.853C103.651 161.381 105.726 157.231 107.171 150.678L107.171 150.677L109.384 140.594C109.927 138.118 110.184 135.773 109.471 133.841C108.737 131.854 107.027 130.417 103.93 129.655L103.93 129.655L103.921 129.653C96.4369 127.973 64.4767 121.095 59.1816 120.093C59.1802 120.092 59.1788 120.092 59.1773 120.092L59.1247 120.081C52.9165 118.798 47.5369 117.686 43.039 116.299C38.5259 114.906 34.9518 113.251 32.3473 110.909C27.1932 106.276 25.6595 98.7791 28.735 84.5582C28.7351 84.5578 28.7352 84.5575 28.7352 84.5572L32.0303 69.5402C32.0304 69.5398 32.0304 69.5394 32.0305 69.539C35.4308 54.2375 40.9565 43.6193 50.1887 36.8077C59.4313 29.9885 72.4739 26.9207 91.0521 26.9207C107.445 26.9207 124.183 27.7209 136.824 28.5214C143.144 28.9216 148.439 29.3219 152.154 29.622C154.012 29.7721 155.474 29.8971 156.471 29.9846C156.866 30.0192 157.188 30.048 157.433 30.0701L150.587 60.109H82.4364C79.5774 60.109 77.1826 60.1545 75.1769 60.4084C73.1688 60.6625 71.5116 61.1297 70.1449 61.9989C67.3887 63.7516 65.9853 67.0246 64.9945 72.8135L64.9942 72.8153L64.3357 76.7502C63.7678 79.841 63.8888 81.9565 65.2413 83.495C65.905 84.25 66.8316 84.8251 68.012 85.3183C69.1921 85.8112 70.6586 86.2354 72.4303 86.6702L72.4379 86.672L72.4455 86.6737L72.5495 86.1846Z" stroke="white" stroke-opacity="0.2"/>
<path d="M285.809 103.003L285.809 103.002C289.639 85.7284 288.595 74.2504 283.197 67.0896C277.807 59.9402 267.944 56.9231 253.67 56.9231H221.703C207.458 56.9231 196.184 59.9283 187.513 67.1723C178.838 74.4202 172.696 85.9723 168.848 103.219L157.643 154.369L157.643 154.37C153.789 171.671 154.822 183.148 160.22 190.302C165.61 197.444 175.484 200.449 189.782 200.449H221.703C235.972 200.449 247.245 197.457 255.91 190.219C264.579 182.978 270.709 171.427 274.557 154.154L285.809 103.003ZM285.809 103.003L274.557 154.153L285.809 103.003ZM254.159 102.272L254.159 102.272L254.161 102.263C255.365 96.204 255.126 91.8895 253.06 89.0933C250.981 86.2783 247.184 85.1749 241.759 85.1749H220.384C215.022 85.1749 210.861 86.2915 207.705 89.0117C204.557 91.7256 202.487 95.9702 201.158 102.058C201.158 102.058 201.158 102.058 201.158 102.058L189.717 154.417L189.717 154.419C188.395 160.578 188.57 164.884 190.578 167.645C192.601 170.427 196.346 171.462 201.646 171.462H223.021C228.492 171.462 232.759 170.415 235.993 167.736C239.223 165.061 241.342 160.825 242.672 154.629L254.159 102.272Z" stroke="white" stroke-opacity="0.2"/>
<path d="M359.684 19.3098L320.262 199.23H288.235L327.657 19.3098H359.684Z" stroke="white" stroke-opacity="0.2"/>
<path d="M457.699 58.9062H489.49L458.403 199.229H426.618L428.877 189.496L429.115 188.47L428.17 188.934C422.67 191.634 416.192 194.579 409.75 196.848C403.301 199.119 396.926 200.699 391.62 200.699H385.641C371.773 200.699 361.971 198.717 356.517 192.627C351.078 186.553 349.811 176.209 353.549 159.029L375.497 58.9062H407.523L386.518 154.404L386.517 154.405C385.175 160.551 385.326 164.645 387.389 167.182C389.452 169.718 393.273 170.504 398.682 170.504H403.72C407.982 170.504 413.053 169.371 418.315 167.953C420.206 167.443 422.119 166.898 424.034 166.352C427.477 165.369 430.924 164.386 434.247 163.611L434.554 163.54L434.622 163.232L457.699 58.9062Z" stroke="white" stroke-opacity="0.2"/>
<path d="M530.15 28.1411H562.219L555.297 58.304L555.157 58.9159H555.785H589.109L582.689 88.3755H549.146H548.743L548.658 88.7693L533.686 157.619C532.697 162.161 532.59 165.523 533.845 167.757C535.136 170.057 537.749 170.986 541.66 170.986C542.655 170.986 549.007 170.868 555.1 170.75C558.148 170.691 561.135 170.632 563.36 170.588L566.038 170.534L566.397 170.527L560.411 195.113C560.233 195.151 559.981 195.204 559.661 195.271C558.979 195.413 557.987 195.615 556.754 195.859C554.286 196.345 550.85 196.994 546.974 197.643C539.214 198.943 529.728 200.236 522.734 200.236C516.277 200.236 511.389 199.151 507.757 197.224C504.135 195.302 501.735 192.529 500.265 189.091C497.309 182.174 498.105 172.534 500.529 161.72L500.529 161.719L516.584 88.9833L516.718 88.3755H516.096H499.111L505.715 58.6533H522.922H523.323L523.41 58.2625L530.15 28.1411Z" stroke="white" stroke-opacity="0.2"/>
<path d="M638.647 0.884766C642.703 0.884766 646.086 2.43176 648.459 5.02844C650.836 7.62879 652.224 11.3106 652.224 15.6146C652.224 27.8852 641.436 37.9593 630.267 37.9593C622.642 37.9593 617.113 31.6249 617.113 23.2295C617.113 10.7459 627.905 0.884766 638.647 0.884766ZM641.745 58.9157L610.891 199.238H578.865L609.718 58.9157H641.745Z" stroke="white" stroke-opacity="0.2"/>
<path d="M772.811 103.003L772.811 103.002C776.642 85.7284 775.597 74.2504 770.199 67.0896C764.809 59.9402 754.946 56.9231 740.673 56.9231H708.705C694.46 56.9231 683.186 59.9283 674.515 67.1723C665.84 74.4202 659.698 85.9723 655.85 103.219L644.646 154.369L644.645 154.37C640.791 171.671 641.824 183.148 647.217 190.302C652.6 197.445 662.463 200.449 676.737 200.449H708.705C722.974 200.449 734.248 197.457 742.912 190.219C751.581 182.978 757.711 171.427 761.559 154.154L772.811 103.003ZM772.811 103.003L761.559 154.153L772.811 103.003ZM741.161 102.272L741.161 102.272L741.163 102.263C742.367 96.204 742.128 91.8895 740.063 89.0933C737.983 86.2783 734.186 85.1749 728.761 85.1749H707.387C702.024 85.1749 697.863 86.2915 694.707 89.0117C691.559 91.7256 689.489 95.9702 688.16 102.058C688.16 102.058 688.16 102.058 688.16 102.058L676.719 154.417L676.719 154.419C675.398 160.577 675.56 164.883 677.562 167.645C679.58 170.427 683.325 171.462 688.649 171.462H710.023C715.495 171.462 719.761 170.415 722.995 167.736C726.225 165.061 728.344 160.825 729.674 154.629L741.161 102.272Z" stroke="white" stroke-opacity="0.2"/>
<path d="M807.03 199.224H775.004L805.857 58.9021H837.884L835.805 68.3781L835.58 69.4025L836.517 68.9322C841.898 66.2325 848.163 63.3542 854.42 61.1517C860.685 58.9466 866.908 57.4316 872.215 57.4316H878.383C892.275 57.4316 902.09 59.4011 907.549 65.4526C912.993 71.4868 914.26 81.7642 910.521 98.838L888.339 199.224H856.314L877.788 102.73L877.789 102.728C879.111 96.6975 878.835 92.606 876.657 90.0414C874.486 87.4848 870.574 86.6287 865.153 86.6287H860.116C855.85 86.6287 851.048 87.7498 846.024 89.1953C844.103 89.748 842.153 90.3468 840.183 90.9516C836.971 91.9381 833.706 92.9408 830.424 93.7868L830.127 93.8636L830.061 94.1639L807.03 199.224Z" stroke="white" stroke-opacity="0.2"/>
<path d="M908.749 196.628L914.475 170.72H974.478C981.083 170.72 986.04 170.053 989.628 168.12C993.258 166.164 995.423 162.95 996.529 158.043C996.529 158.042 996.529 158.042 996.529 158.041L997.658 153.16C997.658 153.16 997.658 153.16 997.658 153.16C998.206 150.798 998.307 148.794 996.868 147.122C995.48 145.509 992.738 144.314 988.01 143.212L988.01 143.212L988.002 143.211L946.815 134.337C946.813 134.337 946.812 134.337 946.811 134.336C939.539 132.63 934.382 130.574 931.582 126.33C928.781 122.085 928.245 115.502 930.664 104.471L930.664 104.469L932.877 94.1258C932.877 94.1255 932.877 94.1251 932.877 94.1247C936.37 78.2243 941.937 69.1591 950.098 64.0348C958.287 58.8922 969.185 57.6519 983.518 57.6519C1001.02 57.6519 1015.28 58.203 1025.16 58.7539C1030.1 59.0294 1033.94 59.3049 1036.55 59.5114C1037.85 59.6146 1038.85 59.7006 1039.52 59.7608C1039.69 59.7762 1039.84 59.7899 1039.97 59.8017L1034.01 86.6389H979.092H979.08C976.889 86.6389 974.99 86.6389 973.364 86.7358C971.735 86.8328 970.344 87.0283 969.176 87.4347C967.997 87.845 967.042 88.4716 966.298 89.4229C965.56 90.3668 965.054 91.598 964.715 93.1784L964.715 93.1784L964.713 93.1851L963.82 97.6435C963.161 100.587 963.223 102.441 964.085 103.644C964.519 104.251 965.123 104.644 965.821 104.93C966.511 105.214 967.326 105.405 968.208 105.589C968.208 105.589 968.209 105.589 968.209 105.589L1000.36 112.468C1000.36 112.468 1000.36 112.468 1000.36 112.468C1000.79 112.563 1001.23 112.658 1001.65 112.751C1006.75 113.869 1011.3 114.866 1015.2 116.107C1019.43 117.452 1022.86 119.069 1025.38 121.393C1030.38 125.995 1032.03 133.549 1028.84 148.003L1028.84 148.004L1026.63 158.087C1026.63 158.087 1026.63 158.087 1026.63 158.087C1023.13 173.979 1017.01 184.542 1008.27 191.143C999.522 197.747 988.075 200.442 973.819 200.442C956.205 200.442 939.8 199.472 927.797 198.501C921.796 198.016 916.897 197.53 913.498 197.166C911.799 196.984 910.475 196.833 909.576 196.727C909.24 196.687 908.963 196.654 908.749 196.628Z" stroke="white" stroke-opacity="0.2"/>
<path d="M1209.42 76.705L1209.43 76.6969L1209.43 76.6887C1210.84 69.8943 1210.56 65.0803 1208.07 61.9763C1205.58 58.8694 1201.03 57.6533 1194.39 57.6533H1153.15H1152.75L1152.66 58.0429L1144.09 95.9074L1143.95 96.5178H1144.58H1185.35C1191.88 96.5178 1197 95.6504 1200.78 93.3947C1204.59 91.1229 1206.98 87.4842 1208.11 82.1063L1209.42 76.705ZM1128.22 168.909L1128.09 169.516H1128.71H1173.01C1179.72 169.516 1184.87 167.77 1188.72 164.252C1192.57 160.743 1195.08 155.525 1196.62 148.697L1198.17 141.817L1198.17 141.817L1198.17 141.807C1199.3 136.322 1198.54 132.355 1195.64 129.792C1192.8 127.272 1188 126.24 1181.4 126.24H1137.94H1137.54L1137.45 126.633L1128.22 168.909ZM1228.11 120.808C1230.86 125.698 1231.9 131.782 1230.48 139.189L1226.72 155.618L1226.72 155.623C1223.86 168.687 1217.69 179.587 1208.7 187.219C1199.71 194.849 1187.88 199.238 1173.67 199.238H1088.56L1126.24 28.1411H1208.47C1222.71 28.1411 1232.51 32.4807 1238.06 39.9718C1243.62 47.4728 1245.01 58.255 1242.16 71.3334L1239.95 81.4146C1236.88 95.1891 1227.56 103.948 1215.35 108.574L1214.26 108.987L1215.31 109.493C1220.87 112.165 1225.36 115.91 1228.11 120.808Z" stroke="white" stroke-opacity="0.2"/>
<path d="M1315.38 28.1411L1277.7 199.238H1244.78L1282.46 28.1411H1315.38Z" stroke="white" stroke-opacity="0.2"/>
</g>
<defs>
<filter id="filter0_d_6481_3253" x="0" y="0.384766" width="1320" height="208.814" filterUnits="userSpaceOnUse" color-interpolation-filters="sRGB">
<feFlood flood-opacity="0" result="BackgroundImageFix"/>
<feColorMatrix in="SourceAlpha" type="matrix" values="0 0 0 0 0 0 0 0 0 0 0 0 0 0 0 0 0 0 127 0" result="hardAlpha"/>
<feOffset dy="4"/>
<feGaussianBlur stdDeviation="2"/>
<feComposite in2="hardAlpha" operator="out"/>
<feColorMatrix type="matrix" values="0 0 0 0 0 0 0 0 0 0 0 0 0 0 0 0 0 0 0.25 0"/>
<feBlend mode="normal" in2="BackgroundImageFix" result="effect1_dropShadow_6481_3253"/>
<feBlend mode="normal" in="SourceGraphic" in2="effect1_dropShadow_6481_3253" result="shape"/>
</filter>
</defs>
</svg>
