<svg width="54" height="55" viewBox="0 0 54 55" fill="none" xmlns="http://www.w3.org/2000/svg">
    <!-- Background rectangle -->
    <rect width="54" height="54" transform="translate(0 0.980469)" fill="none"/>

    <g clip-path="url(#clip0_6368_6574)">
        <g clip-path="url(#clip1_6368_6574)">
            <path fill-rule="evenodd" clip-rule="evenodd" d="M14.8086 28.2008C14.8086 23.3473 14.8086 20.9206 15.9688 19.1727C16.4868 18.3922 17.1574 17.7238 17.9403 17.2073C19.6937 16.0508 22.128 16.0508 26.9966 16.0508C31.8652 16.0508 34.2996 16.0508 36.0529 17.2073C36.8359 17.7238 37.5064 18.3922 38.0245 19.1727C39.1846 20.9206 39.1846 23.3473 39.1846 28.2008C39.1846 33.0542 39.1846 35.4809 38.0245 37.2288C37.5064 38.0094 36.8359 38.6778 36.0529 39.1943C34.2996 40.3508 31.8652 40.3508 26.9966 40.3508C22.128 40.3508 19.6937 40.3508 17.9403 39.1943C17.1574 38.6778 16.4868 38.0094 15.9688 37.2288C14.8086 35.4809 14.8086 33.0542 14.8086 28.2008ZM33.3068 28.2012C33.3068 31.6752 30.4817 34.4914 26.9969 34.4914C23.512 34.4914 20.687 31.6752 20.687 28.2012C20.687 24.7272 23.512 21.911 26.9969 21.911C30.4817 21.911 33.3068 24.7272 33.3068 28.2012ZM26.9969 32.3632C29.3027 32.3632 31.172 30.4998 31.172 28.2012C31.172 25.9025 29.3027 24.0391 26.9969 24.0391C24.6911 24.0391 22.8218 25.9025 22.8218 28.2012C22.8218 30.4998 24.6911 32.3632 26.9969 32.3632ZM33.556 23.073C34.3748 23.073 35.0386 22.4112 35.0386 21.5949C35.0386 20.7787 34.3748 20.1169 33.556 20.1169C32.7372 20.1169 32.0734 20.7787 32.0734 21.5949C32.0734 22.4112 32.7372 23.073 33.556 23.073Z" fill="#2960F7"/>
        </g>
    </g>
    <defs>
        <clipPath id="clip0_6368_6574">
            <rect width="28" height="28" fill="white" transform="translate(13 13.9805)"/>
        </clipPath>
        <clipPath id="clip1_6368_6574">
            <rect width="28" height="28" fill="white" transform="translate(13 13.9805)"/>
        </clipPath>
    </defs>
</svg>
