<svg width="54" height="55" viewBox="0 0 54 55" fill="none" xmlns="http://www.w3.org/2000/svg">
    <!-- Background rectangle -->
    <rect width="54" height="54" transform="translate(0 0.980469)" fill="none"/>

    <g clip-path="url(#clip0_6368_6599)">
        <g clip-path="url(#clip1_6368_6599)">
            <path d="M17.9922 20.6222C17.9922 20.0161 18.2057 19.5161 18.6327 19.1222C19.0597 18.7282 19.6148 18.5312 20.298 18.5312C20.969 18.5312 21.5119 18.7252 21.9268 19.1131C22.3538 19.5131 22.5673 20.0343 22.5673 20.6767C22.5673 21.2585 22.3599 21.7434 21.9451 22.1312C21.5181 22.5312 20.9568 22.7313 20.2614 22.7313H20.2431C19.5721 22.7313 19.0292 22.5312 18.6144 22.1312C18.1996 21.7312 17.9922 21.2282 17.9922 20.6222ZM18.2301 36.5312V24.3858H22.2928V36.5312H18.2301ZM24.5437 36.5312H28.6064V29.7494C28.6064 29.3251 28.6552 28.9979 28.7528 28.7676C28.9236 28.3554 29.1828 28.0069 29.5305 27.7221C29.8783 27.4373 30.3144 27.2949 30.839 27.2949C32.2054 27.2949 32.8887 28.21 32.8887 30.0403V36.5312H36.9513V29.5676C36.9513 27.7737 36.5243 26.4131 35.6703 25.4858C34.8163 24.5585 33.6878 24.0949 32.2847 24.0949C30.7109 24.0949 29.4848 24.7676 28.6064 26.1131V26.1494H28.5881L28.6064 26.1131V24.3858H24.5437C24.5681 24.7737 24.5803 25.9797 24.5803 28.004C24.5803 30.0282 24.5681 32.8707 24.5437 36.5312Z" fill="#2960F7"/>
        </g>
    </g>
    <defs>
        <clipPath id="clip0_6368_6599">
            <rect width="22" height="21" fill="white" transform="translate(16 17.4805)"/>
        </clipPath>
        <clipPath id="clip1_6368_6599">
            <rect width="22" height="21" fill="white" transform="translate(16 17.4805)"/>
        </clipPath>
    </defs>
</svg>