<svg width="19" height="17" viewBox="0 0 19 17" fill="none" xmlns="http://www.w3.org/2000/svg">
<g id="icon">
<path d="M14.604 7.96398C15.2131 6.92607 15.4761 5.72129 15.355 4.52398C15.176 2.73998 14.18 1.16298 12.552 0.0839844L11.447 1.74998C12.566 2.49198 13.247 3.54898 13.365 4.72398C13.4194 5.27008 13.3514 5.82144 13.166 6.33797C12.9806 6.85449 12.6823 7.32319 12.293 7.70998L11.101 8.90198L12.719 9.37698C16.951 10.617 17 14.873 17 14.916H19C19 13.127 18.044 9.63098 14.604 7.96398Z" fill="white"/>
<path d="M7.5 8.91602C9.706 8.91602 11.5 7.12202 11.5 4.91602C11.5 2.71002 9.706 0.916016 7.5 0.916016C5.294 0.916016 3.5 2.71002 3.5 4.91602C3.5 7.12202 5.294 8.91602 7.5 8.91602ZM7.5 2.91602C8.603 2.91602 9.5 3.81302 9.5 4.91602C9.5 6.01902 8.603 6.91602 7.5 6.91602C6.397 6.91602 5.5 6.01902 5.5 4.91602C5.5 3.81302 6.397 2.91602 7.5 2.91602ZM9 9.91602H6C2.691 9.91602 0 12.607 0 15.916V16.916H2V15.916C2 13.71 3.794 11.916 6 11.916H9C11.206 11.916 13 13.71 13 15.916V16.916H15V15.916C15 12.607 12.309 9.91602 9 9.91602Z" fill="white"/>
</g>
</svg>
