<svg width="30" height="41" viewBox="0 0 30 41" fill="none" xmlns="http://www.w3.org/2000/svg">
<g filter="url(#filter0_d_6788_507)">
<path d="M15 10.9974C19.0684 10.9974 22.6301 13.2077 24.5262 16.5C25.4627 14.8807 26 13.0005 26 10.9974C26 4.92698 21.0719 0 15 0C8.92812 0 4 4.92698 4 10.9974C4 13.0005 4.53733 14.8807 5.47383 16.5C7.36985 13.2153 10.9316 10.9974 15 10.9974Z" fill="#2960F7"/>
<path d="M15 22.0026C10.9316 22.0026 7.36985 19.7923 5.47383 16.5C4.53733 18.1193 4 19.9995 4 22.0026C4 28.073 8.92812 33 15 33C21.0719 33 26 28.073 26 22.0026C26 19.9995 25.4627 18.1193 24.5262 16.5C22.6301 19.7847 19.0684 22.0026 15 22.0026Z" fill="#1C3477"/>
</g>
<defs>
<filter id="filter0_d_6788_507" x="0" y="0" width="30" height="41" filterUnits="userSpaceOnUse" color-interpolation-filters="sRGB">
<feFlood flood-opacity="0" result="BackgroundImageFix"/>
<feColorMatrix in="SourceAlpha" type="matrix" values="0 0 0 0 0 0 0 0 0 0 0 0 0 0 0 0 0 0 127 0" result="hardAlpha"/>
<feOffset dy="4"/>
<feGaussianBlur stdDeviation="2"/>
<feComposite in2="hardAlpha" operator="out"/>
<feColorMatrix type="matrix" values="0 0 0 0 0 0 0 0 0 0 0 0 0 0 0 0 0 0 0.25 0"/>
<feBlend mode="normal" in2="BackgroundImageFix" result="effect1_dropShadow_6788_507"/>
<feBlend mode="normal" in="SourceGraphic" in2="effect1_dropShadow_6788_507" result="shape"/>
</filter>
</defs>
</svg>
