<svg width="40" height="40" viewBox="0 0 40 40" fill="none" xmlns="http://www.w3.org/2000/svg">
<path d="M9.04324 21.58H19.9999M8.09324 24.2483H19.9999M5.02574 33.7808H19.9999M11.9324 3.75L9.76407 6.03333L9.0424 21.5792C7.65657 22.0242 8.0924 24.2492 8.0924 24.2492L5.0249 33.78L5.70824 36.25H34.2916L34.9749 33.78L31.9082 24.2483C31.9082 24.2483 32.3432 22.0233 30.9582 21.5792L30.2349 6.03333L28.0666 3.75H11.9324Z" stroke="#2960F7" stroke-width="0.833333" stroke-linecap="round" stroke-linejoin="round"/>
<path d="M30.9568 21.5801H20.0001M31.9068 24.2484H20.0001M34.9743 33.7809H20.0001M20.0001 7.31006C20.0001 7.31006 15.8743 7.34506 14.6801 7.40589C13.1268 7.48423 12.2001 7.89756 11.7884 9.13089C11.4276 10.2109 11.5276 13.9767 11.6493 14.9101C11.7709 15.8434 12.1951 17.3984 13.9509 17.5967C15.7068 17.7951 20.0001 17.7301 20.0001 17.7301C20.0001 17.7301 24.2934 17.7951 26.0501 17.5967C27.8068 17.3984 28.2301 15.8426 28.3509 14.9092C28.4718 13.9759 28.5726 10.2109 28.2118 9.13006C27.8001 7.89673 26.8734 7.48422 25.3201 7.40506C24.1259 7.34506 20.0001 7.31006 20.0001 7.31006Z" stroke="#2960F7" stroke-width="0.833333" stroke-linecap="round" stroke-linejoin="round"/>
<path d="M9.62823 26.2417L7.85156 31.845H25.3432L24.1457 26.2425L9.62823 26.2417Z" stroke="#2960F7" stroke-width="0.833333" stroke-linejoin="round"/>
<path d="M27.0127 26.2417H29.9127C31.2752 30.0709 31.2585 30.22 31.7952 31.8442H28.416L27.0127 26.2417Z" stroke="#2960F7" stroke-width="0.833333" stroke-linecap="round" stroke-linejoin="round"/>
<path d="M8.47314 29.0058H24.829M30.8773 29.0058H27.7606M11.4881 31.7033L12.7831 26.3958M15.109 31.8167L15.7881 26.3967M18.4973 31.6733L18.5865 26.3367M21.9131 31.7067L21.2465 26.4692" stroke="#2960F7" stroke-width="0.833333"/>
<path d="M14.4307 14.635C14.5687 14.4336 14.6296 14.1893 14.6023 13.9467V13.7317" stroke="#2960F7" stroke-width="0.833333" stroke-linecap="round" stroke-linejoin="round"/>
<path d="M19.4873 14.7825C19.8325 14.7825 20.1123 14.5026 20.1123 14.1575C20.1123 13.8123 19.8325 13.5325 19.4873 13.5325C19.1421 13.5325 18.8623 13.8123 18.8623 14.1575C18.8623 14.5026 19.1421 14.7825 19.4873 14.7825Z" fill="#2960F7"/>
<path d="M21.1799 12.4832H22.9015M17.4374 10.4182H16.749V14.5482H17.4374M24.8832 10.4182H25.5715V14.5482H24.8832" stroke="#2960F7" stroke-width="0.833333" stroke-linecap="round" stroke-linejoin="round"/>
</svg>
