<svg width="40" height="40" viewBox="0 0 40 40" fill="none" xmlns="http://www.w3.org/2000/svg">
<path d="M32.5 27.5C31.6099 27.5049 30.7376 27.7498 29.975 28.2087L25.2088 23.4413C25.8878 22.422 26.2502 21.2247 26.2502 20C26.2502 18.7753 25.8878 17.578 25.2088 16.5588L28.3925 13.375C29.1979 13.7629 30.1146 13.8533 30.9802 13.6301C31.8458 13.4068 32.6045 12.8844 33.1218 12.1554C33.6392 11.4263 33.8818 10.5377 33.8066 9.64692C33.7315 8.75613 33.3435 7.92069 32.7114 7.28857C32.0793 6.65646 31.2439 6.26848 30.3531 6.19336C29.4623 6.11824 28.5737 6.36083 27.8446 6.87816C27.1156 7.39549 26.5932 8.15417 26.3699 9.01979C26.1467 9.88542 26.2371 10.8021 26.625 11.6075L23.4413 14.7913C22.4221 14.1122 21.2247 13.7498 20 13.7498C18.7753 13.7498 17.578 14.1122 16.5588 14.7913L11.7913 10.0238C12.25 9.26148 12.4948 8.38966 12.5 7.5C12.5 6.5111 12.2068 5.5444 11.6574 4.72215C11.1079 3.8999 10.327 3.25904 9.41342 2.8806C8.49979 2.50217 7.49446 2.40315 6.52455 2.59608C5.55465 2.789 4.66373 3.26521 3.96447 3.96447C3.26521 4.66373 2.789 5.55465 2.59608 6.52455C2.40315 7.49446 2.50217 8.49979 2.8806 9.41342C3.25904 10.327 3.89991 11.1079 4.72215 11.6573C5.5444 12.2068 6.5111 12.5 7.5 12.5C8.39008 12.4951 9.26237 12.2502 10.025 11.7913L14.7913 16.5588C14.1122 17.578 13.7498 18.7753 13.7498 20C13.7498 21.2247 14.1122 22.422 14.7913 23.4413L10.0238 28.2087C9.26148 27.75 8.38966 27.5052 7.5 27.5C6.5111 27.5 5.5444 27.7932 4.72215 28.3427C3.89991 28.8921 3.25904 29.673 2.8806 30.5866C2.50217 31.5002 2.40315 32.5055 2.59608 33.4755C2.789 34.4454 3.26521 35.3363 3.96447 36.0355C4.66373 36.7348 5.55465 37.211 6.52455 37.4039C7.49446 37.5969 8.49979 37.4978 9.41342 37.1194C10.327 36.741 11.1079 36.1001 11.6574 35.2778C12.2068 34.4556 12.5 33.4889 12.5 32.5C12.4951 31.6099 12.2502 30.7376 11.7913 29.975L16.5588 25.2087C17.224 25.651 17.9678 25.9616 18.75 26.1238V30.23C17.916 30.5249 17.2131 31.1051 16.7655 31.8681C16.3179 32.6311 16.1544 33.5278 16.304 34.3997C16.4536 35.2715 16.9066 36.0625 17.5829 36.6326C18.2593 37.2028 19.1154 37.5155 20 37.5155C20.8846 37.5155 21.7407 37.2028 22.4171 36.6326C23.0934 36.0625 23.5464 35.2715 23.696 34.3997C23.8456 33.5278 23.6821 32.6311 23.2345 31.8681C22.7869 31.1051 22.084 30.5249 21.25 30.23V26.1238C22.0322 25.9616 22.776 25.651 23.4413 25.2087L28.2088 29.9763C27.75 30.7385 27.5052 31.6103 27.5 32.5C27.5 33.4889 27.7932 34.4556 28.3427 35.2778C28.8921 36.1001 29.673 36.741 30.5866 37.1194C31.5002 37.4978 32.5055 37.5969 33.4755 37.4039C34.4454 37.211 35.3363 36.7348 36.0355 36.0355C36.7348 35.3363 37.211 34.4454 37.4039 33.4755C37.5969 32.5055 37.4978 31.5002 37.1194 30.5866C36.741 29.673 36.1001 28.8921 35.2779 28.3427C34.4556 27.7932 33.4889 27.5 32.5 27.5ZM20 16.25C20.7417 16.25 21.4667 16.4699 22.0834 16.882C22.7001 17.294 23.1807 17.8797 23.4646 18.5649C23.7484 19.2502 23.8226 20.0042 23.6779 20.7316C23.5333 21.459 23.1761 22.1272 22.6517 22.6517C22.1272 23.1761 21.459 23.5333 20.7316 23.6779C20.0042 23.8226 19.2502 23.7484 18.5649 23.4645C17.8797 23.1807 17.294 22.7001 16.882 22.0834C16.4699 21.4667 16.25 20.7417 16.25 20C16.251 19.0057 16.6464 18.0525 17.3494 17.3494C18.0525 16.6464 19.0057 16.251 20 16.25ZM5 7.5C5 7.00555 5.14662 6.5222 5.42133 6.11108C5.69603 5.69995 6.08648 5.37952 6.54329 5.1903C7.00011 5.00108 7.50278 4.95158 7.98773 5.04804C8.47268 5.1445 8.91814 5.3826 9.26777 5.73223C9.6174 6.08187 9.8555 6.52732 9.95197 7.01228C10.0484 7.49723 9.99892 7.9999 9.8097 8.45671C9.62048 8.91353 9.30005 9.30397 8.88893 9.57868C8.4778 9.85338 7.99446 10 7.5 10C6.83696 10 6.20108 9.73661 5.73224 9.26777C5.26339 8.79893 5 8.16304 5 7.5ZM7.5 35C7.00555 35 6.5222 34.8534 6.11108 34.5787C5.69995 34.304 5.37952 33.9135 5.1903 33.4567C5.00108 32.9999 4.95158 32.4972 5.04804 32.0123C5.1445 31.5273 5.3826 31.0819 5.73224 30.7322C6.08187 30.3826 6.52732 30.1445 7.01228 30.048C7.49723 29.9516 7.9999 30.0011 8.45671 30.1903C8.91353 30.3795 9.30397 30.7 9.57868 31.1111C9.85338 31.5222 10 32.0055 10 32.5C10 33.163 9.73661 33.7989 9.26777 34.2678C8.79893 34.7366 8.16304 35 7.5 35ZM32.5 35C32.0055 35 31.5222 34.8534 31.1111 34.5787C30.7 34.304 30.3795 33.9135 30.1903 33.4567C30.0011 32.9999 29.9516 32.4972 30.048 32.0123C30.1445 31.5273 30.3826 31.0819 30.7322 30.7322C31.0819 30.3826 31.5273 30.1445 32.0123 30.048C32.4972 29.9516 32.9999 30.0011 33.4567 30.1903C33.9135 30.3795 34.304 30.7 34.5787 31.1111C34.8534 31.5222 35 32.0055 35 32.5C34.999 33.1627 34.7353 33.798 34.2667 34.2667C33.798 34.7353 33.1627 34.999 32.5 35Z" fill="#F5F4F2"/>
</svg>
