<svg width="40" height="40" viewBox="0 0 40 40" fill="none" xmlns="http://www.w3.org/2000/svg">
<path d="M25.0001 28.75H14.8251C14.7009 28.3118 14.5202 27.8916 14.2876 27.5L27.5001 14.2875C28.2526 14.7493 29.1173 14.9957 30.0001 15C30.936 15.003 31.8539 14.7434 32.6495 14.2505C33.445 13.7577 34.0863 13.0515 34.5004 12.2122C34.9144 11.3729 35.0846 10.4343 34.9916 9.50304C34.8986 8.57182 34.546 7.68539 33.9742 6.9446C33.4023 6.20381 32.634 5.6384 31.7566 5.31267C30.8793 4.98694 29.9281 4.91397 29.0114 5.10208C28.0946 5.29018 27.249 5.7318 26.5709 6.37669C25.8927 7.02159 25.4091 7.84387 25.1751 8.75001H14.8251C14.5209 7.57169 13.7973 6.54478 12.7901 5.86176C11.7829 5.17874 10.5611 4.88652 9.35387 5.03986C8.1466 5.19321 7.0367 5.78159 6.23221 6.69472C5.42773 7.60785 4.98389 8.78304 4.98389 10C4.98389 11.217 5.42773 12.3922 6.23221 13.3053C7.0367 14.2184 8.1466 14.8068 9.35387 14.9602C10.5611 15.1135 11.7829 14.8213 12.7901 14.1383C13.7973 13.4552 14.5209 12.4283 14.8251 11.25H25.1751C25.2993 11.6882 25.48 12.1084 25.7126 12.5L12.5001 25.7125C11.7477 25.2508 10.8829 25.0043 10.0001 25C9.06426 24.997 8.14635 25.2566 7.35078 25.7495C6.55521 26.2423 5.91392 26.9486 5.49987 27.7878C5.08582 28.6271 4.91563 29.5658 5.00866 30.497C5.10168 31.4282 5.45419 32.3146 6.02608 33.0554C6.59797 33.7962 7.36628 34.3616 8.24362 34.6874C9.12096 35.0131 10.0721 35.086 10.9889 34.8979C11.9056 34.7098 12.7512 34.2682 13.4294 33.6233C14.1076 32.9784 14.5911 32.1561 14.8251 31.25H25.0001V35H35.0001V25H25.0001V28.75ZM10.0001 12.5C9.50566 12.5 9.02231 12.3534 8.61119 12.0787C8.20007 11.804 7.87964 11.4135 7.69042 10.9567C7.5012 10.4999 7.45169 9.99724 7.54815 9.51229C7.64462 9.02733 7.88272 8.58188 8.23235 8.23224C8.58198 7.88261 9.02744 7.64451 9.51239 7.54805C9.99734 7.45159 10.5 7.50109 10.9568 7.69031C11.4136 7.87953 11.8041 8.19996 12.0788 8.61109C12.3535 9.02221 12.5001 9.50556 12.5001 10C12.5001 10.6631 12.2367 11.2989 11.7679 11.7678C11.299 12.2366 10.6632 12.5 10.0001 12.5ZM30.0001 7.50001C30.4946 7.50001 30.9779 7.64663 31.389 7.92134C31.8002 8.19604 32.1206 8.58649 32.3098 9.0433C32.499 9.50012 32.5485 10.0028 32.4521 10.4877C32.3556 10.9727 32.1175 11.4181 31.7679 11.7678C31.4183 12.1174 30.9728 12.3555 30.4878 12.452C30.0029 12.5484 29.5002 12.4989 29.0434 12.3097C28.5866 12.1205 28.1961 11.8001 27.9214 11.3889C27.6467 10.9778 27.5001 10.4945 27.5001 10C27.5001 9.33697 27.7635 8.70109 28.2323 8.23224C28.7012 7.7634 29.3371 7.50001 30.0001 7.50001ZM10.0001 32.5C9.50566 32.5 9.02231 32.3534 8.61119 32.0787C8.20007 31.804 7.87964 31.4135 7.69042 30.9567C7.5012 30.4999 7.45169 29.9972 7.54815 29.5123C7.64462 29.0273 7.88272 28.5819 8.23235 28.2322C8.58198 27.8826 9.02744 27.6445 9.51239 27.548C9.99734 27.4516 10.5 27.5011 10.9568 27.6903C11.4136 27.8795 11.8041 28.2 12.0788 28.6111C12.3535 29.0222 12.5001 29.5056 12.5001 30C12.5001 30.6631 12.2367 31.2989 11.7679 31.7678C11.299 32.2366 10.6632 32.5 10.0001 32.5ZM27.5001 27.5H32.5001V32.5H27.5001V27.5Z" fill="#F5F4F2"/>
</svg>
