<svg width="41" height="40" viewBox="0 0 41 40" fill="none" xmlns="http://www.w3.org/2000/svg">
<g clip-path="url(#clip0_6731_525)">
<path d="M23.0277 20C23.0277 20.3806 22.9527 20.7574 22.807 21.1091C22.6614 21.4607 22.4479 21.7801 22.1787 22.0492C21.6352 22.5927 20.898 22.898 20.1294 22.898C19.3608 22.8979 18.6237 22.5926 18.0802 22.049C17.5367 21.5055 17.2314 20.7683 17.2314 19.9997C17.2315 19.2311 17.5369 18.4939 18.0804 17.9504C18.6239 17.407 19.3611 17.1017 20.1297 17.1017C20.8984 17.1018 21.6355 17.4071 22.179 17.9507C22.7224 18.4942 23.0277 19.2314 23.0277 20ZM32.9936 12.5709C32.3647 11.4852 31.5992 10.4846 30.7158 9.59344L27.3636 11.5272C26.3307 10.6452 25.1462 9.95811 23.8677 9.49938C22.7498 10.6218 21.8342 11.9289 21.1614 13.3631C24.8918 13.1091 28.743 14.4603 32.3174 17.2531L34.4268 16.035C34.098 14.8241 33.6164 13.6602 32.9936 12.5709ZM20.1299 34.8509C21.3835 34.8471 22.6316 34.6847 23.8446 34.3678V30.5006C25.1259 30.0474 26.3136 29.3639 27.3493 28.4838C26.9354 26.9543 26.2615 25.5075 25.3571 24.2066C23.7114 27.5622 20.618 30.2222 16.4118 31.9213V34.3556C17.6243 34.6816 18.8743 34.8483 20.1299 34.8509ZM7.26613 12.5744C6.64198 13.6622 6.15913 14.8253 5.82926 16.0353L9.1802 17.9688C8.93238 19.3041 8.9302 20.675 9.17301 22.0119C10.704 22.4195 12.294 22.5595 13.8727 22.4256C11.7861 19.3238 11.0321 15.3125 11.6605 10.8203L9.55113 9.60219C8.66563 10.4912 7.89771 11.4901 7.26613 12.5744ZM20.1299 0.0390625C9.10582 0.0390625 0.168945 8.97594 0.168945 20C0.168945 31.0241 9.10582 39.9609 20.1299 39.9609C31.1539 39.9609 40.0908 31.0241 40.0908 20C40.0908 8.97594 31.1539 0.0390625 20.1299 0.0390625ZM20.1299 2.59406C29.7268 2.59406 37.5361 10.4028 37.5361 20C37.5361 29.5972 29.7268 37.4062 20.1299 37.4062C10.533 37.4062 2.72363 29.5969 2.72363 20C2.72363 10.4031 10.533 2.59406 20.1299 2.59406ZM20.1299 5.14406C18.8762 5.149 17.6282 5.31174 16.4152 5.62844V9.49594C15.1337 9.94802 13.9458 10.6311 12.9105 11.5112C13.3237 13.0409 13.9977 14.4878 14.9027 15.7884C16.5483 12.4341 19.6414 9.77281 23.848 8.07375V5.64062C22.6348 5.31744 21.3854 5.15046 20.1299 5.14375V5.14406ZM27.9705 17.5312C27.4441 17.516 26.9172 17.5303 26.3924 17.5741C28.4768 20.6759 29.2314 24.6872 28.6027 29.1794L30.7121 30.3975C31.5938 29.506 32.3603 28.5075 32.9936 27.4253C33.6186 26.34 34.0983 25.1753 34.4305 23.9644L31.083 22.0312C31.333 20.68 31.333 19.3125 31.0902 17.9881C30.0711 17.7169 29.0242 17.5638 27.9702 17.5319L27.9705 17.5312ZM7.94238 22.7419L5.83301 23.9616C6.16458 25.1715 6.64601 26.3353 7.26613 27.4259C7.89513 28.5115 8.66063 29.5121 9.54395 30.4031L12.8961 28.4697C13.9288 29.3517 15.1134 30.0383 16.3921 30.4959C17.5099 29.3739 18.4254 28.0672 19.0983 26.6334C15.368 26.8875 11.5168 25.535 7.94238 22.7419Z" fill="#F5F4F2"/>
</g>
<defs>
<clipPath id="clip0_6731_525">
<rect width="40" height="40" fill="white" transform="translate(0.129883)"/>
</clipPath>
</defs>
</svg>
