<svg width="41" height="40" viewBox="0 0 41 40" fill="none" xmlns="http://www.w3.org/2000/svg">
<g clip-path="url(#clip0_6731_527)">
<path d="M20.1301 0.245117C19.5962 0.244959 19.0676 0.350344 18.5746 0.555213C18.0817 0.760081 17.6341 1.06039 17.2576 1.43887L1.56881 17.1276C1.19044 17.5042 0.890204 17.9519 0.685334 18.4449C0.480463 18.9378 0.375 19.4664 0.375 20.0003C0.375 20.5341 0.480463 21.0627 0.685334 21.5557C0.890204 22.0487 1.19044 22.4963 1.56881 22.8729L17.2576 38.5617C17.6342 38.94 18.0818 39.2402 18.5747 39.445C19.0677 39.6499 19.5962 39.7553 20.1301 39.7553C20.6639 39.7553 21.1924 39.6499 21.6854 39.445C22.1783 39.2402 22.626 38.94 23.0026 38.5617L38.6913 22.8729C39.0697 22.4963 39.3699 22.0487 39.5748 21.5557C39.7797 21.0627 39.8851 20.5341 39.8851 20.0003C39.8851 19.4664 39.7797 18.9378 39.5748 18.4449C39.3699 17.9519 39.0697 17.5042 38.6913 17.1276L23.0026 1.43887C22.6261 1.06039 22.1785 0.760081 21.6855 0.555213C21.1925 0.350344 20.6639 0.244959 20.1301 0.245117ZM18.4113 4.37512C18.6233 4.37522 18.8348 4.39647 19.0426 4.43855C19.0817 4.44647 19.1207 4.45543 19.1594 4.46543C18.3197 5.21043 17.7863 6.29356 17.7863 7.50012C17.7863 8.66606 18.2872 9.71355 19.0782 10.4551C19.3076 10.6725 19.5612 10.8628 19.8341 11.0223L14.6826 16.7436L15.4951 17.4751L11.3488 19.6289L13.0569 15.2798L13.8701 16.0117L17.8644 11.5751V11.5217L17.9082 11.5264L18.7363 10.6067C18.6294 10.6179 18.5213 10.6254 18.4113 10.6254C18.1086 10.6249 17.8074 10.5808 17.5172 10.4945C17.4198 10.4656 17.3239 10.4321 17.2297 10.3939C17.2085 10.3855 17.1875 10.3769 17.1666 10.3679C17.0924 10.3358 17.0194 10.3007 16.9479 10.2629L16.9026 10.2392C16.4965 10.0147 16.1455 9.70252 15.8751 9.32543C15.8519 9.29356 15.8282 9.26262 15.8063 9.22981C15.7612 9.1615 15.7188 9.09144 15.6791 9.01981L15.6679 9.00106C15.6529 8.97387 15.6407 8.94512 15.6266 8.91762C15.5978 8.86199 15.5708 8.8055 15.5454 8.74824C15.5302 8.71199 15.5156 8.67543 15.5016 8.63856C15.4814 8.58698 15.4625 8.53488 15.4451 8.48231C15.4146 8.38951 15.3886 8.29535 15.3669 8.20012C15.3581 8.16204 15.35 8.12381 15.3426 8.08543C15.3307 8.02065 15.3209 7.95551 15.3132 7.89012C15.3094 7.86012 15.3044 7.83012 15.3016 7.79949C15.2918 7.70116 15.2867 7.60137 15.2863 7.50012C15.2863 7.28813 15.3075 7.07666 15.3494 6.86887C15.4405 6.42262 15.6282 6.00175 15.8995 5.6359C16.1707 5.27005 16.5189 4.96812 16.9194 4.75137C17.282 4.55444 17.6804 4.43204 18.091 4.39137C18.1974 4.38047 18.3043 4.37505 18.4113 4.37512ZM21.8488 4.37512C23.5801 4.37512 24.9738 5.76887 24.9738 7.50012C24.9738 9.23168 23.5801 10.6251 21.8488 10.6251C21.1088 10.6264 20.3926 10.3643 19.8282 9.88574L19.8188 9.87762C19.7331 9.80387 19.6514 9.72553 19.5741 9.64293C19.5583 9.62585 19.5427 9.60866 19.5272 9.59137C19.4625 9.51947 19.401 9.44459 19.3432 9.36699C19.3276 9.34678 19.3122 9.32616 19.2972 9.30512C19.2299 9.21073 19.1678 9.11266 19.1113 9.01137L19.1085 9.00699C19.0511 8.9017 18.9997 8.79319 18.9547 8.68199C18.9438 8.65449 18.9351 8.62637 18.9247 8.59855C18.8799 8.47857 18.8424 8.35595 18.8126 8.23137C18.7929 8.14801 18.7766 8.06388 18.7638 7.97918C18.7582 7.94199 18.7516 7.90574 18.7472 7.86824C18.7322 7.7461 18.7244 7.62318 18.7238 7.50012C18.7238 7.37543 18.7332 7.25324 18.7472 7.13231C18.7516 7.09512 18.7582 7.05887 18.7638 7.02231C18.7823 6.89932 18.808 6.77754 18.841 6.65762C18.866 6.56866 18.8945 6.48147 18.9266 6.39605C18.936 6.37105 18.9444 6.34512 18.9547 6.32012C19.0002 6.20762 19.0516 6.09845 19.1091 5.99262C19.1664 5.88977 19.2294 5.79023 19.2979 5.69449C19.3125 5.67428 19.3274 5.65428 19.3426 5.63449C19.4009 5.55595 19.4628 5.48043 19.5282 5.40793L19.5741 5.35762C19.6541 5.27209 19.7388 5.19113 19.8279 5.11512C20.3924 4.63647 21.1087 4.37418 21.8488 4.37512ZM15.3144 10.122C15.5507 10.4019 15.8236 10.6487 16.126 10.8554L13.5219 13.7476L14.3351 14.4792L10.1882 16.6329L11.8963 12.2839L12.7094 13.0157L15.3144 10.122ZM24.9457 10.122L27.5507 13.0157L28.3638 12.2839L30.0716 16.6329L25.9247 14.4792L26.7382 13.7476L24.1338 10.8554C24.4362 10.6487 24.7092 10.4019 24.9454 10.122H24.9457ZM21.3019 11.522C21.4813 11.5464 21.6629 11.5629 21.8488 11.5629C22.0347 11.5629 22.2163 11.5464 22.3957 11.522V24.3211H23.4894L21.8488 28.6961L20.2082 24.3211H21.3019V11.522ZM18.9582 12.8032V24.3211H20.0519L18.4113 28.6961L16.7707 24.3211H17.8644V14.0179L18.9582 12.8032ZM7.63006 16.8751C9.36131 16.8751 10.7551 18.2689 10.7551 20.0001C10.7551 21.7317 9.36131 23.1251 7.63006 23.1251C5.89881 23.1251 4.50506 21.7317 4.50506 20.0001C4.50506 18.2689 5.89881 16.8751 7.63006 16.8751ZM32.6301 16.8751C34.3613 16.8751 35.7551 18.2689 35.7551 20.0001C35.7551 21.7317 34.3613 23.1251 32.6301 23.1251C32.1267 23.1263 31.6306 23.0056 31.1841 22.7732C30.7376 22.5408 30.3541 22.2037 30.0663 21.7907C29.6997 21.2657 29.5037 20.6405 29.5051 20.0001C29.5051 18.2689 30.8988 16.8751 32.6301 16.8751ZM10.861 22.4579L14.2757 25.872L15.0491 25.0989L16.9829 29.3526L12.7288 27.4192L13.5022 26.6454L10.0876 23.2314C10.379 23.0097 10.6392 22.7493 10.861 22.4579ZM29.3991 22.4579C29.6209 22.7493 29.8811 23.0094 30.1726 23.2311L26.7579 26.6457L27.5313 27.4195L23.2772 29.3529L25.211 25.0992L25.9844 25.8723L29.3991 22.4579ZM20.1301 29.3751C21.8613 29.3751 23.2551 30.7689 23.2551 32.5001C23.2551 34.2317 21.8613 35.6251 20.1301 35.6251C18.3988 35.6251 17.0051 34.2317 17.0051 32.5001C17.0051 30.7689 18.3988 29.3751 20.1301 29.3751Z" fill="#F5F4F2"/>
</g>
<defs>
<clipPath id="clip0_6731_527">
<rect width="40" height="40" fill="white" transform="translate(0.129883)"/>
</clipPath>
</defs>
</svg>
