<svg width="41" height="40" viewBox="0 0 41 40" fill="none" xmlns="http://www.w3.org/2000/svg">
<g clip-path="url(#clip0_6731_529)">
<path d="M0.129883 11.875C0.129883 5.3125 5.44238 0 12.0049 0H28.2549C34.8174 0 40.1299 5.3125 40.1299 11.875V28.125C40.1299 34.6875 34.8174 40 28.2549 40H12.0049C5.44238 40 0.129883 34.6875 0.129883 28.125V11.875ZM14.5361 9.0625V10.9063L7.97363 14.7187V21.375L6.22363 22.375V28.7812L11.7861 32L14.1924 30.5938L20.1611 34.0313L26.1611 30.5625L28.6299 32L34.1611 28.8125V22.375L32.3486 21.3438V14.7187L25.6299 10.8125V9.0625L20.0986 5.84375L14.5361 9.0625ZM30.9111 15.5625V20.5312L28.5986 19.1875L23.0361 22.4062V28.8125L24.6924 29.75L20.1299 32.375L15.6299 29.7813L17.3174 28.8125V22.4062L11.7549 19.1875L9.37988 20.5625V15.5625L14.5049 12.5937H14.5361V15.5L20.0674 18.6875L25.6299 15.5V12.5L30.9111 15.5625ZM24.5049 28V24.0937L27.8799 26.0313V29.9375L24.5049 28ZM32.7236 28L29.3174 29.9688V26.0625L32.7236 24.0937V28ZM7.66113 28V24.0937L11.0674 26.0313V29.9688L7.66113 28ZM15.8486 28L12.4736 29.9375V26.0313L15.8486 24.0625V28ZM25.1924 22.875L28.5986 20.9063L31.9736 22.875L28.5986 24.8125L25.1924 22.875ZM15.1299 22.875L11.7236 24.8438L8.34863 22.875L11.7236 20.9063L15.1299 22.875ZM15.9736 14.7187V10.8125L19.3486 12.75V16.6875L15.9736 14.7187ZM24.1611 14.7187L20.7861 16.6562V12.75L24.1611 10.7812V14.7187ZM16.6924 9.5625L20.0674 7.625L23.4424 9.5625L20.0674 11.5313L16.6924 9.5625Z" fill="#F5F4F2"/>
</g>
<defs>
<clipPath id="clip0_6731_529">
<rect width="40" height="40" fill="white" transform="translate(0.129883)"/>
</clipPath>
</defs>
</svg>
