<svg width="35" height="36" viewBox="0 0 35 36" fill="none" xmlns="http://www.w3.org/2000/svg">
<path d="M30 25C29.1099 25.0049 28.2376 25.2498 27.475 25.7087L22.7088 20.9412C23.3878 19.922 23.7502 18.7247 23.7502 17.5C23.7502 16.2753 23.3878 15.078 22.7088 14.0588L25.8925 10.875C26.6979 11.2629 27.6146 11.3533 28.4802 11.1301C29.3458 10.9068 30.1045 10.3844 30.6218 9.65537C31.1392 8.92632 31.3818 8.0377 31.3066 7.14692C31.2315 6.25613 30.8435 5.42069 30.2114 4.78857C29.5793 4.15646 28.7439 3.76848 27.8531 3.69336C26.9623 3.61824 26.0737 3.86083 25.3446 4.37816C24.6156 4.89549 24.0932 5.65417 23.8699 6.51979C23.6467 7.38542 23.7371 8.30212 24.125 9.1075L20.9413 12.2913C19.9221 11.6122 18.7247 11.2498 17.5 11.2498C16.2753 11.2498 15.078 11.6122 14.0588 12.2913L9.29125 7.52375C9.75001 6.76148 9.99484 5.88966 10 5C10 4.0111 9.70676 3.0444 9.15735 2.22215C8.60794 1.3999 7.82705 0.759043 6.91342 0.380605C5.99979 0.00216642 4.99446 -0.0968502 4.02455 0.0960758C3.05465 0.289002 2.16373 0.765206 1.46447 1.46447C0.765206 2.16373 0.289002 3.05465 0.0960758 4.02455C-0.0968502 4.99446 0.00216639 5.99979 0.380605 6.91342C0.759043 7.82705 1.39991 8.60794 2.22215 9.15735C3.0444 9.70676 4.0111 10 5 10C5.89008 9.99507 6.76237 9.75022 7.525 9.29125L12.2913 14.0588C11.6122 15.078 11.2498 16.2753 11.2498 17.5C11.2498 18.7247 11.6122 19.922 12.2913 20.9412L7.52375 25.7087C6.76148 25.25 5.88966 25.0052 5 25C4.0111 25 3.0444 25.2932 2.22215 25.8427C1.39991 26.3921 0.759043 27.173 0.380605 28.0866C0.00216639 29.0002 -0.0968502 30.0055 0.0960758 30.9755C0.289002 31.9454 0.765206 32.8363 1.46447 33.5355C2.16373 34.2348 3.05465 34.711 4.02455 34.9039C4.99446 35.0969 5.99979 34.9978 6.91342 34.6194C7.82705 34.241 8.60794 33.6001 9.15735 32.7779C9.70676 31.9556 10 30.9889 10 30C9.99507 29.1099 9.75022 28.2376 9.29125 27.475L14.0588 22.7087C14.724 23.151 15.4678 23.4616 16.25 23.6238V27.73C15.416 28.0249 14.7131 28.6051 14.2655 29.3681C13.8179 30.1311 13.6544 31.0278 13.804 31.8997C13.9536 32.7715 14.4066 33.5625 15.0829 34.1326C15.7593 34.7028 16.6154 35.0155 17.5 35.0155C18.3846 35.0155 19.2407 34.7028 19.9171 34.1326C20.5934 33.5625 21.0464 32.7715 21.196 31.8997C21.3456 31.0278 21.1821 30.1311 20.7345 29.3681C20.2869 28.6051 19.584 28.0249 18.75 27.73V23.6238C19.5322 23.4616 20.276 23.151 20.9413 22.7087L25.7088 27.4763C25.25 28.2385 25.0052 29.1103 25 30C25 30.9889 25.2932 31.9556 25.8427 32.7779C26.3921 33.6001 27.173 34.241 28.0866 34.6194C29.0002 34.9978 30.0055 35.0969 30.9755 34.9039C31.9454 34.711 32.8363 34.2348 33.5355 33.5355C34.2348 32.8363 34.711 31.9454 34.9039 30.9755C35.0969 30.0055 34.9978 29.0002 34.6194 28.0866C34.241 27.173 33.6001 26.3921 32.7779 25.8427C31.9556 25.2932 30.9889 25 30 25ZM17.5 13.75C18.2417 13.75 18.9667 13.9699 19.5834 14.382C20.2001 14.794 20.6807 15.3797 20.9646 16.0649C21.2484 16.7502 21.3226 17.5042 21.1779 18.2316C21.0333 18.959 20.6761 19.6272 20.1517 20.1517C19.6272 20.6761 18.959 21.0333 18.2316 21.1779C17.5042 21.3226 16.7502 21.2484 16.0649 20.9645C15.3797 20.6807 14.794 20.2001 14.382 19.5834C13.9699 18.9667 13.75 18.2417 13.75 17.5C13.751 16.5057 14.1464 15.5525 14.8494 14.8494C15.5525 14.1464 16.5057 13.751 17.5 13.75ZM2.5 5C2.5 4.50555 2.64662 4.0222 2.92133 3.61108C3.19603 3.19995 3.58648 2.87952 4.04329 2.6903C4.50011 2.50108 5.00278 2.45158 5.48773 2.54804C5.97268 2.6445 6.41814 2.8826 6.76777 3.23223C7.1174 3.58187 7.3555 4.02732 7.45197 4.51228C7.54843 4.99723 7.49892 5.4999 7.3097 5.95671C7.12048 6.41353 6.80005 6.80397 6.38893 7.07868C5.97781 7.35338 5.49446 7.5 5 7.5C4.33696 7.5 3.70108 7.23661 3.23223 6.76777C2.76339 6.29893 2.5 5.66304 2.5 5ZM5 32.5C4.50555 32.5 4.0222 32.3534 3.61108 32.0787C3.19995 31.804 2.87952 31.4135 2.6903 30.9567C2.50108 30.4999 2.45158 29.9972 2.54804 29.5123C2.6445 29.0273 2.8826 28.5819 3.23223 28.2322C3.58187 27.8826 4.02732 27.6445 4.51228 27.548C4.99723 27.4516 5.4999 27.5011 5.95671 27.6903C6.41353 27.8795 6.80397 28.1999 7.07868 28.6111C7.35338 29.0222 7.5 29.5055 7.5 30C7.5 30.663 7.23661 31.2989 6.76777 31.7678C6.29893 32.2366 5.66304 32.5 5 32.5ZM30 32.5C29.5055 32.5 29.0222 32.3534 28.6111 32.0787C28.2 31.804 27.8795 31.4135 27.6903 30.9567C27.5011 30.4999 27.4516 29.9972 27.548 29.5123C27.6445 29.0273 27.8826 28.5819 28.2322 28.2322C28.5819 27.8826 29.0273 27.6445 29.5123 27.548C29.9972 27.4516 30.4999 27.5011 30.9567 27.6903C31.4135 27.8795 31.804 28.1999 32.0787 28.6111C32.3534 29.0222 32.5 29.5055 32.5 30C32.499 30.6627 32.2353 31.298 31.7667 31.7667C31.298 32.2353 30.6627 32.499 30 32.5Z" fill="#F5F4F2"/>
</svg>
