<svg width="40" height="40" viewBox="0 0 40 40" fill="none" xmlns="http://www.w3.org/2000/svg">
<path d="M14.03 30H6.25C5.91848 30 5.60054 29.8683 5.36612 29.6339C5.1317 29.3995 5 29.0815 5 28.75V7.5H2.5C2.16848 7.5 1.85054 7.3683 1.61612 7.13388C1.3817 6.89946 1.25 6.58152 1.25 6.25C1.25 5.91848 1.3817 5.60054 1.61612 5.36612C1.85054 5.1317 2.16848 5 2.5 5H37.5C37.8315 5 38.1495 5.1317 38.3839 5.36612C38.6183 5.60054 38.75 5.91848 38.75 6.25C38.75 6.58152 38.6183 6.89946 38.3839 7.13388C38.1495 7.3683 37.8315 7.5 37.5 7.5H35V28.75C35 29.0815 34.8683 29.3995 34.6339 29.6339C34.3995 29.8683 34.0815 30 33.75 30H25.985L30.315 37.5H27.43L23.1 30H16.915L12.585 37.5H9.7L14.03 30ZM32.5 7.5H7.5V27.5H32.5V7.5ZM13.385 20.885C13.2688 21.0012 13.1308 21.0934 12.979 21.1563C12.8271 21.2192 12.6644 21.2516 12.5 21.2516C12.3356 21.2516 12.1729 21.2192 12.021 21.1563C11.8692 21.0934 11.7312 21.0012 11.615 20.885C11.4988 20.7688 11.4066 20.6308 11.3437 20.479C11.2808 20.3271 11.2484 20.1644 11.2484 20C11.2484 19.8356 11.2808 19.6729 11.3437 19.521C11.4066 19.3692 11.4988 19.2312 11.615 19.115L17.3825 13.35L22.2825 17.025L26.525 11.72C26.6243 11.5831 26.7503 11.4678 26.8955 11.381C27.0407 11.2943 27.2019 11.2378 27.3695 11.2152C27.5371 11.1926 27.7076 11.2042 27.8705 11.2493C28.0335 11.2945 28.1856 11.3722 28.3177 11.4779C28.4498 11.5835 28.559 11.7149 28.6388 11.864C28.7186 12.0131 28.7674 12.1768 28.7821 12.3453C28.7968 12.5137 28.7772 12.6835 28.7244 12.8441C28.6716 13.0048 28.5868 13.1531 28.475 13.28L22.72 20.4775L17.6175 16.65L13.385 20.8825V20.885Z" fill="#F5F4F2"/>
</svg>
