<svg width="29" height="40" viewBox="0 0 29 40" fill="none" xmlns="http://www.w3.org/2000/svg">
<g clip-path="url(#clip0_6731_509)">
<path d="M12.4454 0.0619601L0.335488 6.11688C0.139629 6.21485 0.00244141 6.41079 0.00244141 6.64594V33.3541C0.00244141 33.5697 0.12002 33.7852 0.335566 33.8831L12.4453 39.9381C12.8372 40.134 13.2879 39.8401 13.2879 39.409V0.591023C13.2879 0.159929 12.8372 -0.133977 12.4453 0.0619601M15.6844 39.9381L27.7942 33.8831C27.9902 33.7852 28.1274 33.5892 28.1274 33.3541V20.3625C28.1274 20.147 28.0098 19.9314 27.7942 19.8334L15.6845 13.7785C15.2926 13.5826 14.8419 13.8766 14.8419 14.3077V39.409C14.8419 39.8401 15.2925 40.134 15.6844 39.9381Z" fill="#F5F4F2"/>
</g>
<defs>
<clipPath id="clip0_6731_509">
<rect width="28.13" height="40" fill="white"/>
</clipPath>
</defs>
</svg>
