<svg width="40" height="40" viewBox="0 0 40 40" fill="none" xmlns="http://www.w3.org/2000/svg">
<path d="M12.26 5.58608C13.6233 4.55178 15.2888 3.99449 17 4.00008C17.5908 3.98738 18.1753 4.12363 18.6996 4.39626C19.2239 4.6689 19.6711 5.06913 20 5.56008C20.3289 5.06913 20.7761 4.6689 21.3004 4.39626C21.8247 4.12363 22.4092 3.98738 23 4.00008C24.7112 3.99449 26.3767 4.55178 27.74 5.58608C28.79 6.40208 29.6 7.53208 29.886 8.89808C30.542 8.94808 31.142 9.22008 31.646 9.63008C32.41 10.2501 32.966 11.1801 33.316 12.1641C33.864 13.6941 34.012 15.6441 33.444 17.3041C33.588 17.3721 33.7293 17.4521 33.868 17.5441C34.418 17.9101 34.836 18.4341 35.144 19.0521C35.75 20.2621 36 21.9501 36 24.0001C36 26.2821 35.13 27.8141 34.026 28.7601C33.4147 29.2824 32.6945 29.6616 31.918 29.8701C31.718 30.9861 31.158 32.2781 30.28 33.3741C29.14 34.8041 27.372 36.0001 25 36.0001C23.12 36.0001 21.624 34.9601 20.652 33.9401C20.4187 33.6974 20.2009 33.4402 20 33.1701C19.7991 33.4402 19.5813 33.6974 19.348 33.9401C18.376 34.9601 16.882 36.0001 15 36.0001C12.628 36.0001 10.862 34.8041 9.72 33.3741C8.89972 32.3551 8.33778 31.153 8.082 29.8701C7.30546 29.6616 6.58527 29.2824 5.974 28.7601C4.87 27.8141 4 26.2801 4 24.0001C4 21.9501 4.252 20.2601 4.856 19.0521C5.14066 18.445 5.58089 17.924 6.132 17.5421C6.26843 17.4549 6.41002 17.3761 6.556 17.3061C5.988 15.6421 6.136 13.6941 6.684 12.1641C7.034 11.1801 7.59 10.2501 8.354 9.63008C8.858 9.22008 9.458 8.95008 10.114 8.89808C10.402 7.53208 11.21 6.40208 12.26 5.58608ZM19 9.00008V8.98008L18.996 8.88008C18.9678 8.35853 18.864 7.84384 18.688 7.35208C18.5651 6.97985 18.3529 6.64338 18.07 6.37208C17.7746 6.11484 17.3913 5.98158 17 6.00008C15.7337 5.99427 14.5002 6.40308 13.488 7.16408C12.56 7.88608 12 8.86408 12 10.0001C11.9999 10.1584 11.9621 10.3145 11.8899 10.4555C11.8177 10.5964 11.713 10.7181 11.5845 10.8107C11.456 10.9033 11.3074 10.964 11.1508 10.9879C10.9942 11.0118 10.8343 10.9981 10.684 10.9481C10.308 10.8241 9.972 10.8941 9.614 11.1821C9.222 11.5021 8.84 12.0701 8.566 12.8361C8.008 14.4001 8.066 16.2941 8.832 17.4461C8.9414 17.6101 8.99985 17.8029 9 18.0001H10.5C11.6935 18.0001 12.8381 18.4742 13.682 19.3181C14.5259 20.162 15 21.3066 15 22.5001V23.1701C15.6672 23.406 16.2296 23.8701 16.5876 24.4806C16.9457 25.091 17.0765 25.8083 16.9568 26.5058C16.8371 27.2033 16.4747 27.836 15.9337 28.2922C15.3926 28.7483 14.7077 28.9985 14 28.9985C13.2923 28.9985 12.6074 28.7483 12.0663 28.2922C11.5253 27.836 11.1629 27.2033 11.0432 26.5058C10.9235 25.8083 11.0543 25.091 11.4124 24.4806C11.7704 23.8701 12.3328 23.406 13 23.1701V22.5001C13 21.1201 11.88 20.0001 10.5 20.0001H7C6.88045 19.9998 6.7619 19.9782 6.65 19.9361L6.644 19.9481C6.248 20.7381 6 22.0501 6 24.0001C6 25.7181 6.63 26.6861 7.276 27.2401C7.97 27.8361 8.74 28.0001 9 28.0001C9.26522 28.0001 9.51957 28.1054 9.70711 28.293C9.89464 28.4805 10 28.7349 10 29.0001C10 29.7361 10.4 31.0221 11.28 32.1261C12.138 33.1961 13.372 34.0001 15 34.0001C16.12 34.0001 17.124 33.3741 17.9 32.5601C18.282 32.1601 18.58 31.7461 18.774 31.4061C18.8621 31.2552 18.9377 31.0973 19 30.9341V15.0001H16.83C16.5941 15.6673 16.1299 16.2296 15.5195 16.5877C14.9091 16.9458 14.1918 17.0765 13.4943 16.9569C12.7968 16.8372 12.164 16.4748 11.7079 15.9337C11.2518 15.3927 11.0016 14.7078 11.0016 14.0001C11.0016 13.2924 11.2518 12.6075 11.7079 12.0664C12.164 11.5254 12.7968 11.163 13.4943 11.0433C14.1918 10.9236 14.9091 11.0544 15.5195 11.4124C16.1299 11.7705 16.5941 12.3329 16.83 13.0001H19V9.00008ZM21 28.9981V30.9321L21.024 30.9981C21.0613 31.0981 21.128 31.2334 21.224 31.4041C21.422 31.7441 21.718 32.1581 22.098 32.5581C22.876 33.3721 23.882 33.9981 25 33.9981C26.628 33.9981 27.862 33.1941 28.72 32.1241C29.6 31.0201 30 29.7341 30 28.9981C30 28.7329 30.1054 28.4785 30.2929 28.291C30.4804 28.1034 30.7348 27.9981 31 27.9981C31.26 27.9981 32.03 27.8341 32.724 27.2381C33.37 26.6841 34 25.7161 34 23.9981C34 22.0481 33.75 20.7381 33.356 19.9461C33.2261 19.65 33.0188 19.3944 32.756 19.2061C32.5307 19.0625 32.267 18.9906 32 19.0001C31.8191 19 31.6416 18.9508 31.4865 18.8579C31.3313 18.7649 31.2043 18.6315 31.1189 18.4721C31.0335 18.3126 30.993 18.133 31.0017 17.9523C31.0103 17.7716 31.0678 17.5967 31.168 17.4461C31.936 16.2941 31.992 14.4001 31.434 12.8361C31.16 12.0701 30.778 11.5001 30.386 11.1821C30.028 10.8941 29.692 10.8221 29.316 10.9481C29.1657 10.9981 29.0058 11.0118 28.8492 10.9879C28.6926 10.964 28.544 10.9033 28.4155 10.8107C28.287 10.7181 28.1823 10.5964 28.1101 10.4555C28.0379 10.3145 28.0001 10.1584 28 10.0001C28 8.86408 27.44 7.88608 26.51 7.16408C25.4983 6.4035 24.2657 5.99471 23 6.00008C22.6087 5.98158 22.2254 6.11484 21.93 6.37208C21.6463 6.64316 21.4335 6.97964 21.31 7.35208C21.1203 7.87469 21.0156 8.42433 21 8.98008V27.0001H22.5C23.88 27.0001 25 25.8801 25 24.5001V20.8301C24.3328 20.5942 23.7704 20.13 23.4124 19.5196C23.0543 18.9092 22.9235 18.1918 23.0432 17.4943C23.1629 16.7969 23.5253 16.1641 24.0663 15.708C24.6074 15.2518 25.2923 15.0017 26 15.0017C26.7077 15.0017 27.3926 15.2518 27.9337 15.708C28.4747 16.1641 28.8371 16.7969 28.9568 17.4943C29.0765 18.1918 28.9457 18.9092 28.5876 19.5196C28.2296 20.13 27.6672 20.5942 27 20.8301V24.5001C27 25.6936 26.5259 26.8381 25.682 27.6821C24.8381 28.526 23.6935 29.0001 22.5 29.0001L21 28.9981ZM13 14.0001C13 14.2653 13.1054 14.5197 13.2929 14.7072C13.4804 14.8947 13.7348 15.0001 14 15.0001C14.2652 15.0001 14.5196 14.8947 14.7071 14.7072C14.8946 14.5197 15 14.2653 15 14.0001C15 13.7349 14.8946 13.4805 14.7071 13.293C14.5196 13.1054 14.2652 13.0001 14 13.0001C13.7348 13.0001 13.4804 13.1054 13.2929 13.293C13.1054 13.4805 13 13.7349 13 14.0001ZM26 19.0001C26.2652 19.0001 26.5196 18.8947 26.7071 18.7072C26.8946 18.5197 27 18.2653 27 18.0001C27 17.7349 26.8946 17.4805 26.7071 17.293C26.5196 17.1054 26.2652 17.0001 26 17.0001C25.7348 17.0001 25.4804 17.1054 25.2929 17.293C25.1054 17.4805 25 17.7349 25 18.0001C25 18.2653 25.1054 18.5197 25.2929 18.7072C25.4804 18.8947 25.7348 19.0001 26 19.0001ZM14 25.0001C13.7348 25.0001 13.4804 25.1054 13.2929 25.293C13.1054 25.4805 13 25.7349 13 26.0001C13 26.2653 13.1054 26.5197 13.2929 26.7072C13.4804 26.8947 13.7348 27.0001 14 27.0001C14.2652 27.0001 14.5196 26.8947 14.7071 26.7072C14.8946 26.5197 15 26.2653 15 26.0001C15 25.7349 14.8946 25.4805 14.7071 25.293C14.5196 25.1054 14.2652 25.0001 14 25.0001Z" fill="#F5F4F2"/>
</svg>
