<svg width="40" height="40" viewBox="0 0 40 40" fill="none" xmlns="http://www.w3.org/2000/svg">
<path d="M11.6666 7.49992C10.7799 7.49966 9.9091 7.7352 9.14345 8.18238C8.37781 8.62956 7.74485 9.2723 7.30945 10.0447C6.87406 10.8171 6.6519 11.6914 6.66574 12.578C6.67958 13.4645 6.92893 14.3315 7.38823 15.0899C6.24746 15.3103 5.21902 15.921 4.47948 16.8171C3.73994 17.7133 3.33545 18.8389 3.33545 20.0008C3.33545 21.1626 3.73994 22.2882 4.47948 23.1844C5.21902 24.0805 6.24746 24.6912 7.38823 24.9116M11.6666 7.49992C11.6666 6.39485 12.1055 5.33504 12.887 4.55364C13.6684 3.77224 14.7282 3.33325 15.8332 3.33325C16.9383 3.33325 17.9981 3.77224 18.7795 4.55364C19.5609 5.33504 19.9999 6.39485 19.9999 7.49992V32.4999C19.9999 33.605 19.5609 34.6648 18.7795 35.4462C17.9981 36.2276 16.9383 36.6666 15.8332 36.6666C14.7282 36.6666 13.6684 36.2276 12.887 35.4462C12.1055 34.6648 11.6666 33.605 11.6666 32.4999C10.7801 32.5 9.90964 32.2644 9.14423 31.8173C8.37882 31.3702 7.74603 30.7277 7.31069 29.9555C6.87535 29.1834 6.65311 28.3094 6.66673 27.4231C6.68036 26.5367 6.92936 25.67 7.38823 24.9116M11.6666 7.49992C11.6666 8.86325 12.3216 10.0733 13.3332 10.8333M7.38823 24.9116C7.98636 23.9214 8.90934 23.1692 9.9999 22.7833M32.0832 7.91659L28.3332 11.6666H24.9999M32.0832 32.0833L28.3332 28.3333H24.9999M32.0832 19.9999H24.9999M30.8332 7.91659C30.8332 8.24811 30.9649 8.56605 31.1993 8.80047C31.4338 9.03489 31.7517 9.16659 32.0832 9.16659C32.4148 9.16659 32.7327 9.03489 32.9671 8.80047C33.2015 8.56605 33.3332 8.24811 33.3332 7.91659C33.3332 7.58506 33.2015 7.26712 32.9671 7.0327C32.7327 6.79828 32.4148 6.66659 32.0832 6.66659C31.7517 6.66659 31.4338 6.79828 31.1993 7.0327C30.9649 7.26712 30.8332 7.58506 30.8332 7.91659ZM30.8332 32.0833C30.8332 31.7517 30.9649 31.4338 31.1993 31.1994C31.4338 30.9649 31.7517 30.8333 32.0832 30.8333C32.4148 30.8333 32.7327 30.9649 32.9671 31.1994C33.2015 31.4338 33.3332 31.7517 33.3332 32.0833C33.3332 32.4148 33.2015 32.7327 32.9671 32.9671C32.7327 33.2016 32.4148 33.3333 32.0832 33.3333C31.7517 33.3333 31.4338 33.2016 31.1993 32.9671C30.9649 32.7327 30.8332 32.4148 30.8332 32.0833ZM30.8332 19.9999C30.8332 20.3314 30.9649 20.6494 31.1993 20.8838C31.4338 21.1182 31.7517 21.2499 32.0832 21.2499C32.4148 21.2499 32.7327 21.1182 32.9671 20.8838C33.2015 20.6494 33.3332 20.3314 33.3332 19.9999C33.3332 19.6684 33.2015 19.3505 32.9671 19.116C32.7327 18.8816 32.4148 18.7499 32.0832 18.7499C31.7517 18.7499 31.4338 18.8816 31.1993 19.116C30.9649 19.3505 30.8332 19.6684 30.8332 19.9999Z" stroke="#F5F4F2" stroke-width="2.5" stroke-linecap="round" stroke-linejoin="round"/>
</svg>
