<svg width="32" height="32" viewBox="0 0 32 32" fill="none" xmlns="http://www.w3.org/2000/svg">
<path d="M8.26 1.58681C9.62325 0.552515 11.2888 -0.00477685 13 0.000812569C13.5908 -0.011883 14.1753 0.124366 14.6996 0.396997C15.2239 0.669628 15.6711 1.06987 16 1.56081C16.3289 1.06987 16.7761 0.669628 17.3004 0.396997C17.8247 0.124366 18.4092 -0.011883 19 0.000812569C20.7112 -0.00477685 22.3767 0.552515 23.74 1.58681C24.79 2.40281 25.6 3.53281 25.886 4.89881C26.542 4.94881 27.142 5.22081 27.646 5.63081C28.41 6.25081 28.966 7.18081 29.316 8.16481C29.864 9.69481 30.012 11.6448 29.444 13.3048C29.588 13.3728 29.7293 13.4528 29.868 13.5448C30.418 13.9108 30.836 14.4348 31.144 15.0528C31.75 16.2628 32 17.9508 32 20.0008C32 22.2828 31.13 23.8148 30.026 24.7608C29.4147 25.2831 28.6945 25.6624 27.918 25.8708C27.718 26.9868 27.158 28.2788 26.28 29.3748C25.14 30.8048 23.372 32.0008 21 32.0008C19.12 32.0008 17.624 30.9608 16.652 29.9408C16.4187 29.6981 16.2009 29.4409 16 29.1708C15.7991 29.4409 15.5813 29.6981 15.348 29.9408C14.376 30.9608 12.882 32.0008 11 32.0008C8.628 32.0008 6.862 30.8048 5.72 29.3748C4.89972 28.3558 4.33778 27.1537 4.082 25.8708C3.30546 25.6624 2.58527 25.2831 1.974 24.7608C0.87 23.8148 0 22.2808 0 20.0008C0 17.9508 0.252 16.2608 0.856 15.0528C1.14066 14.4457 1.58089 13.9248 2.132 13.5428C2.26843 13.4556 2.41002 13.3768 2.556 13.3068C1.988 11.6428 2.136 9.69481 2.684 8.16481C3.034 7.18081 3.59 6.25081 4.354 5.63081C4.858 5.22081 5.458 4.95081 6.114 4.89881C6.402 3.53281 7.21 2.40281 8.26 1.58681ZM15 5.00081V4.98081L14.996 4.88081C14.9678 4.35926 14.864 3.84457 14.688 3.35281C14.5651 2.98058 14.3529 2.64411 14.07 2.37281C13.7746 2.11557 13.3913 1.98231 13 2.00081C11.7337 1.99501 10.5002 2.40382 9.488 3.16481C8.56 3.88681 8 4.86481 8 6.00081C7.99988 6.15918 7.96215 6.31525 7.88991 6.45619C7.81767 6.59712 7.713 6.71888 7.5845 6.81145C7.456 6.90401 7.30736 6.96474 7.1508 6.98862C6.99424 7.0125 6.83425 6.99886 6.684 6.94881C6.308 6.82481 5.972 6.89481 5.614 7.18281C5.222 7.50281 4.84 8.07081 4.566 8.83681C4.008 10.4008 4.066 12.2948 4.832 13.4468C4.9414 13.6109 4.99985 13.8036 5 14.0008H6.5C7.69347 14.0008 8.83807 14.4749 9.68198 15.3188C10.5259 16.1627 11 17.3073 11 18.5008V19.1708C11.6672 19.4067 12.2296 19.8709 12.5876 20.4813C12.9457 21.0917 13.0765 21.8091 12.9568 22.5065C12.8371 23.204 12.4747 23.8368 11.9337 24.2929C11.3926 24.7491 10.7077 24.9992 10 24.9992C9.29231 24.9992 8.60741 24.7491 8.06634 24.2929C7.52527 23.8368 7.16288 23.204 7.0432 22.5065C6.92353 21.8091 7.05429 21.0917 7.41237 20.4813C7.77045 19.8709 8.33279 19.4067 9 19.1708V18.5008C9 17.1208 7.88 16.0008 6.5 16.0008H3C2.88045 16.0006 2.7619 15.9789 2.65 15.9368L2.644 15.9488C2.248 16.7388 2 18.0508 2 20.0008C2 21.7188 2.63 22.6868 3.276 23.2408C3.97 23.8368 4.74 24.0008 5 24.0008C5.26522 24.0008 5.51957 24.1062 5.70711 24.2937C5.89464 24.4812 6 24.7356 6 25.0008C6 25.7368 6.4 27.0228 7.28 28.1268C8.138 29.1968 9.372 30.0008 11 30.0008C12.12 30.0008 13.124 29.3748 13.9 28.5608C14.282 28.1608 14.58 27.7468 14.774 27.4068C14.8621 27.2559 14.9377 27.0981 15 26.9348V11.0008H12.83C12.5941 11.668 12.1299 12.2304 11.5195 12.5884C10.9091 12.9465 10.1918 13.0773 9.49427 12.9576C8.79677 12.8379 8.16404 12.4755 7.7079 11.9345C7.25175 11.3934 7.00157 10.7085 7.00157 10.0008C7.00157 9.29313 7.25175 8.60822 7.7079 8.06715C8.16404 7.52608 8.79677 7.16369 9.49427 7.04402C10.1918 6.92435 10.9091 7.0551 11.5195 7.41318C12.1299 7.77126 12.5941 8.3336 12.83 9.00081H15V5.00081ZM17 24.9988V26.9328L17.024 26.9988C17.0613 27.0988 17.128 27.2341 17.224 27.4048C17.422 27.7448 17.718 28.1588 18.098 28.5588C18.876 29.3728 19.882 29.9988 21 29.9988C22.628 29.9988 23.862 29.1948 24.72 28.1248C25.6 27.0208 26 25.7348 26 24.9988C26 24.7336 26.1054 24.4792 26.2929 24.2917C26.4804 24.1042 26.7348 23.9988 27 23.9988C27.26 23.9988 28.03 23.8348 28.724 23.2388C29.37 22.6848 30 21.7168 30 19.9988C30 18.0488 29.75 16.7388 29.356 15.9468C29.2261 15.6507 29.0188 15.3951 28.756 15.2068C28.5307 15.0632 28.267 14.9914 28 15.0008C27.8191 15.0007 27.6416 14.9516 27.4865 14.8586C27.3313 14.7656 27.2043 14.6323 27.1189 14.4728C27.0335 14.3133 26.993 14.1337 27.0017 13.953C27.0103 13.7724 27.0678 13.5974 27.168 13.4468C27.936 12.2948 27.992 10.4008 27.434 8.83681C27.16 8.07081 26.778 7.50081 26.386 7.18281C26.028 6.89481 25.692 6.82281 25.316 6.94881C25.1657 6.99886 25.0058 7.0125 24.8492 6.98862C24.6926 6.96474 24.544 6.90401 24.4155 6.81145C24.287 6.71888 24.1823 6.59712 24.1101 6.45619C24.0379 6.31525 24.0001 6.15918 24 6.00081C24 4.86481 23.44 3.88681 22.51 3.16481C21.4983 2.40423 20.2657 1.99544 19 2.00081C18.6087 1.98231 18.2254 2.11557 17.93 2.37281C17.6463 2.64389 17.4335 2.98038 17.31 3.35281C17.1203 3.87542 17.0156 4.42506 17 4.98081V23.0008H18.5C19.88 23.0008 21 21.8808 21 20.5008V16.8308C20.3328 16.5949 19.7704 16.1307 19.4124 15.5203C19.0543 14.9099 18.9235 14.1926 19.0432 13.4951C19.1629 12.7976 19.5253 12.1649 20.0663 11.7087C20.6074 11.2526 21.2923 11.0024 22 11.0024C22.7077 11.0024 23.3926 11.2526 23.9337 11.7087C24.4747 12.1649 24.8371 12.7976 24.9568 13.4951C25.0765 14.1926 24.9457 14.9099 24.5876 15.5203C24.2296 16.1307 23.6672 16.5949 23 16.8308V20.5008C23 21.6943 22.5259 22.8389 21.682 23.6828C20.8381 24.5267 19.6935 25.0008 18.5 25.0008L17 24.9988ZM9 10.0008C9 10.266 9.10536 10.5204 9.29289 10.7079C9.48043 10.8955 9.73478 11.0008 10 11.0008C10.2652 11.0008 10.5196 10.8955 10.7071 10.7079C10.8946 10.5204 11 10.266 11 10.0008C11 9.7356 10.8946 9.48124 10.7071 9.29371C10.5196 9.10617 10.2652 9.00081 10 9.00081C9.73478 9.00081 9.48043 9.10617 9.29289 9.29371C9.10536 9.48124 9 9.7356 9 10.0008ZM22 15.0008C22.2652 15.0008 22.5196 14.8955 22.7071 14.7079C22.8946 14.5204 23 14.266 23 14.0008C23 13.7356 22.8946 13.4812 22.7071 13.2937C22.5196 13.1062 22.2652 13.0008 22 13.0008C21.7348 13.0008 21.4804 13.1062 21.2929 13.2937C21.1054 13.4812 21 13.7356 21 14.0008C21 14.266 21.1054 14.5204 21.2929 14.7079C21.4804 14.8955 21.7348 15.0008 22 15.0008ZM10 21.0008C9.73478 21.0008 9.48043 21.1062 9.29289 21.2937C9.10536 21.4812 9 21.7356 9 22.0008C9 22.266 9.10536 22.5204 9.29289 22.7079C9.48043 22.8955 9.73478 23.0008 10 23.0008C10.2652 23.0008 10.5196 22.8955 10.7071 22.7079C10.8946 22.5204 11 22.266 11 22.0008C11 21.7356 10.8946 21.4812 10.7071 21.2937C10.5196 21.1062 10.2652 21.0008 10 21.0008Z" fill="#F5F4F2"/>
</svg>
