<svg width="40" height="40" viewBox="0 0 40 40" fill="none" xmlns="http://www.w3.org/2000/svg">
<path d="M16.6666 24.9999H26.4666C26.9166 24.4833 27.5833 24.1666 28.3333 24.1666C29.7166 24.1666 30.8333 25.2833 30.8333 26.6666C30.8333 28.0499 29.7166 29.1666 28.3333 29.1666C27.6 29.1666 26.9333 28.8499 26.4666 28.3333H19.8333C19.5319 29.8081 18.8365 31.1738 17.8212 32.2851C16.8059 33.3965 15.5085 34.2121 14.0668 34.6453C12.6251 35.0785 11.093 35.1131 9.6333 34.7454C8.17355 34.3777 6.84066 33.6214 5.77623 32.557C4.71179 31.4926 3.95556 30.1597 3.58786 28.6999C3.22017 27.2402 3.25475 25.7081 3.68793 24.2664C4.12111 22.8248 4.93672 21.5274 6.0481 20.512C7.15948 19.4967 8.52513 18.8014 9.99998 18.4999V21.9499C8.06665 22.6333 6.66665 24.4999 6.66665 26.6666C6.66665 29.4166 8.91665 31.6666 11.6666 31.6666C14.4166 31.6666 16.6666 29.4166 16.6666 26.6666V24.9999ZM20.8333 6.66659C23.5833 6.66659 25.8333 8.91659 25.8333 11.6666H29.1666C29.1666 7.06659 25.4333 3.33325 20.8333 3.33325C19.1686 3.33458 17.5424 3.83428 16.1641 4.76799C14.7859 5.70171 13.7188 7.02666 13.1002 8.57221C12.4816 10.1178 12.3399 11.8131 12.6934 13.4399C13.0468 15.0667 13.8792 16.5504 15.0833 17.6999L11.1666 24.1999C10.0333 24.4333 9.16664 25.4499 9.16664 26.6666C9.16664 28.0499 10.2833 29.1666 11.6666 29.1666C12.0593 29.1671 12.4465 29.0749 12.7969 28.8977C13.1472 28.7204 13.4508 28.463 13.683 28.1464C13.9152 27.8297 14.0694 27.4628 14.1332 27.0754C14.197 26.6879 14.1685 26.2909 14.05 25.9166L19.6833 16.5333C18.5873 16.2742 17.6108 15.6527 16.912 14.7694C16.2132 13.8862 15.8332 12.7928 15.8333 11.6666C15.8333 8.91659 18.0833 6.66659 20.8333 6.66659ZM28.3333 21.6666C27.2666 21.6666 26.2833 21.9999 25.4666 22.5666L20.3833 14.1166C19.2166 13.9166 18.3333 12.8999 18.3333 11.6666C18.3333 10.2833 19.45 9.16659 20.8333 9.16659C22.2166 9.16659 23.3333 10.2833 23.3333 11.6666C23.3333 11.9166 23.3 12.1499 23.2333 12.3833L26.8833 18.4666C27.35 18.3833 27.8333 18.3333 28.3333 18.3333C32.9333 18.3333 36.6666 22.0666 36.6666 26.6666C36.6666 31.2666 32.9333 34.9999 28.3333 34.9999C26.8705 34.9999 25.4336 34.6148 24.1668 33.8834C22.9 33.152 21.848 32.1 21.1166 30.8333H25.5666C26.3666 31.3666 27.3166 31.6666 28.3333 31.6666C31.0833 31.6666 33.3333 29.4166 33.3333 26.6666C33.3333 23.9166 31.0833 21.6666 28.3333 21.6666Z" fill="#F5F4F2"/>
</svg>
