<svg width="41" height="40" viewBox="0 0 41 40" fill="none" xmlns="http://www.w3.org/2000/svg">
<path d="M20.13 13.3333C18.2967 13.3333 16.7273 13.986 15.4217 15.2916C14.1162 16.5971 13.4634 18.1666 13.4634 19.9999C13.4634 21.2499 13.7762 22.4027 14.4017 23.4583C15.0273 24.5138 15.895 25.3333 17.005 25.9166C17.4495 26.1388 17.7623 26.4649 17.9434 26.8949C18.1245 27.3249 18.1173 27.7627 17.9217 28.2083C17.7273 28.5971 17.4356 28.8888 17.0467 29.0833C16.6578 29.2777 16.2689 29.2777 15.88 29.0833C14.13 28.2499 12.7345 27.0138 11.6934 25.3749C10.6523 23.736 10.1312 21.9444 10.13 19.9999C10.13 17.2221 11.1023 14.861 13.0467 12.9166C14.9912 10.9721 17.3523 9.99992 20.13 9.99992C22.1023 9.99992 23.915 10.521 25.5684 11.5633C27.2217 12.6055 28.4506 14.0288 29.255 15.8333C29.4217 16.2221 29.415 16.611 29.235 16.9999C29.055 17.3888 28.77 17.6666 28.38 17.8333C27.9356 18.0277 27.4912 18.0277 27.0467 17.8333C26.6023 17.6388 26.2689 17.3194 26.0467 16.8749C25.4634 15.7638 24.6439 14.896 23.5884 14.2716C22.5328 13.6471 21.38 13.3344 20.13 13.3333ZM20.13 6.66659C16.4078 6.66659 13.255 7.95825 10.6717 10.5416C8.08838 13.1249 6.79671 16.2777 6.79671 19.9999C6.79671 23.4999 7.94949 26.4999 10.255 28.9999C12.5606 31.4999 15.4495 32.9166 18.9217 33.2499C19.3939 33.3055 19.8034 33.5138 20.15 33.8749C20.4967 34.236 20.6567 34.6527 20.63 35.1249C20.6034 35.5971 20.4295 35.986 20.1084 36.2916C19.7873 36.5971 19.3917 36.736 18.9217 36.7083C16.755 36.5694 14.7339 36.0277 12.8584 35.0833C10.9828 34.1388 9.34394 32.9094 7.94171 31.3949C6.53949 29.8805 5.44227 28.1444 4.65005 26.1866C3.85783 24.2288 3.46227 22.1666 3.46338 19.9999C3.46338 17.6944 3.90116 15.5277 4.77671 13.4999C5.65227 11.4721 6.83949 9.70825 8.33838 8.20825C9.83727 6.70825 11.6012 5.52103 13.63 4.64659C15.6589 3.77214 17.8256 3.33436 20.13 3.33325C24.4912 3.33325 28.29 4.81936 31.5267 7.79159C34.7634 10.7638 36.5339 14.4305 36.8384 18.7916C36.8939 19.236 36.7623 19.6183 36.4434 19.9383C36.1245 20.2583 35.7284 20.4316 35.255 20.4583C34.7817 20.4849 34.3584 20.3321 33.985 19.9999C33.6117 19.6677 33.3962 19.2649 33.3384 18.7916C32.9217 15.4583 31.4706 12.6044 28.985 10.2299C26.4995 7.85547 23.5478 6.6677 20.13 6.66659ZM32.7134 35.8333L27.2134 30.3749L25.9634 34.1666C25.8245 34.5555 25.5606 34.7433 25.1717 34.7299C24.7828 34.7166 24.5189 34.5149 24.38 34.1249L20.5884 21.4999C20.4773 21.1944 20.5467 20.9166 20.7967 20.6666C21.0467 20.4166 21.3245 20.3471 21.63 20.4583L34.255 24.2499C34.6439 24.3888 34.8456 24.6527 34.86 25.0416C34.8745 25.4305 34.6867 25.6944 34.2967 25.8333L30.505 27.0833L36.005 32.5833C36.4773 33.0555 36.7134 33.5971 36.7134 34.2083C36.7134 34.8194 36.4773 35.361 36.005 35.8333C35.5328 36.3055 34.9845 36.5416 34.36 36.5416C33.7356 36.5416 33.1867 36.3055 32.7134 35.8333Z" fill="#F5F4F2"/>
</svg>
