<svg width="41" height="40" viewBox="0 0 41 40" fill="none" xmlns="http://www.w3.org/2000/svg">
<path d="M10.1297 33.3334C9.21306 33.3334 8.42861 33.0073 7.77639 32.3551C7.12417 31.7029 6.7975 30.9179 6.79639 30.0001C6.79528 29.0823 7.12194 28.2979 7.77639 27.6468C8.43083 26.9956 9.21528 26.669 10.1297 26.6668C11.0442 26.6645 11.8292 26.9912 12.4847 27.6468C13.1403 28.3023 13.4664 29.0868 13.4631 30.0001C13.4597 30.9134 13.1336 31.6984 12.4847 32.3551C11.8358 33.0118 11.0508 33.3379 10.1297 33.3334ZM20.1297 33.3334C19.2131 33.3334 18.4286 33.0073 17.7764 32.3551C17.1242 31.7029 16.7975 30.9179 16.7964 30.0001C16.7953 29.0823 17.1219 28.2979 17.7764 27.6468C18.4308 26.9956 19.2153 26.669 20.1297 26.6668C21.0442 26.6645 21.8292 26.9912 22.4847 27.6468C23.1403 28.3023 23.4664 29.0868 23.4631 30.0001C23.4597 30.9134 23.1336 31.6984 22.4847 32.3551C21.8358 33.0118 21.0508 33.3379 20.1297 33.3334ZM30.1297 33.3334C29.2131 33.3334 28.4286 33.0073 27.7764 32.3551C27.1242 31.7029 26.7975 30.9179 26.7964 30.0001C26.7953 29.0823 27.1219 28.2979 27.7764 27.6468C28.4308 26.9956 29.2153 26.669 30.1297 26.6668C31.0442 26.6645 31.8292 26.9912 32.4847 27.6468C33.1403 28.3023 33.4664 29.0868 33.4631 30.0001C33.4597 30.9134 33.1336 31.6984 32.4847 32.3551C31.8358 33.0118 31.0508 33.3379 30.1297 33.3334ZM10.1297 23.3334C9.21306 23.3334 8.42861 23.0073 7.77639 22.3551C7.12417 21.7029 6.7975 20.9179 6.79639 20.0001C6.79528 19.0823 7.12194 18.2979 7.77639 17.6468C8.43083 16.9956 9.21528 16.669 10.1297 16.6668C11.0442 16.6645 11.8292 16.9912 12.4847 17.6468C13.1403 18.3023 13.4664 19.0868 13.4631 20.0001C13.4597 20.9134 13.1336 21.6984 12.4847 22.3551C11.8358 23.0118 11.0508 23.3379 10.1297 23.3334ZM20.1297 23.3334C19.2131 23.3334 18.4286 23.0073 17.7764 22.3551C17.1242 21.7029 16.7975 20.9179 16.7964 20.0001C16.7953 19.0823 17.1219 18.2979 17.7764 17.6468C18.4308 16.9956 19.2153 16.669 20.1297 16.6668C21.0442 16.6645 21.8292 16.9912 22.4847 17.6468C23.1403 18.3023 23.4664 19.0868 23.4631 20.0001C23.4597 20.9134 23.1336 21.6984 22.4847 22.3551C21.8358 23.0118 21.0508 23.3379 20.1297 23.3334ZM30.1297 23.3334C29.2131 23.3334 28.4286 23.0073 27.7764 22.3551C27.1242 21.7029 26.7975 20.9179 26.7964 20.0001C26.7953 19.0823 27.1219 18.2979 27.7764 17.6468C28.4308 16.9956 29.2153 16.669 30.1297 16.6668C31.0442 16.6645 31.8292 16.9912 32.4847 17.6468C33.1403 18.3023 33.4664 19.0868 33.4631 20.0001C33.4597 20.9134 33.1336 21.6984 32.4847 22.3551C31.8358 23.0118 31.0508 23.3379 30.1297 23.3334ZM10.1297 13.3334C9.21306 13.3334 8.42861 13.0073 7.77639 12.3551C7.12417 11.7029 6.7975 10.9179 6.79639 10.0001C6.79528 9.08231 7.12194 8.29787 7.77639 7.64676C8.43083 6.99565 9.21528 6.66898 10.1297 6.66676C11.0442 6.66454 11.8292 6.9912 12.4847 7.64676C13.1403 8.30231 13.4664 9.08676 13.4631 10.0001C13.4597 10.9134 13.1336 11.6984 12.4847 12.3551C11.8358 13.0118 11.0508 13.3379 10.1297 13.3334ZM20.1297 13.3334C19.2131 13.3334 18.4286 13.0073 17.7764 12.3551C17.1242 11.7029 16.7975 10.9179 16.7964 10.0001C16.7953 9.08231 17.1219 8.29787 17.7764 7.64676C18.4308 6.99565 19.2153 6.66898 20.1297 6.66676C21.0442 6.66454 21.8292 6.9912 22.4847 7.64676C23.1403 8.30231 23.4664 9.08676 23.4631 10.0001C23.4597 10.9134 23.1336 11.6984 22.4847 12.3551C21.8358 13.0118 21.0508 13.3379 20.1297 13.3334ZM30.1297 13.3334C29.2131 13.3334 28.4286 13.0073 27.7764 12.3551C27.1242 11.7029 26.7975 10.9179 26.7964 10.0001C26.7953 9.08231 27.1219 8.29787 27.7764 7.64676C28.4308 6.99565 29.2153 6.66898 30.1297 6.66676C31.0442 6.66454 31.8292 6.9912 32.4847 7.64676C33.1403 8.30231 33.4664 9.08676 33.4631 10.0001C33.4597 10.9134 33.1336 11.6984 32.4847 12.3551C31.8358 13.0118 31.0508 13.3379 30.1297 13.3334Z" fill="#F5F4F2"/>
</svg>
