<svg width="40" height="40" viewBox="0 0 40 40" fill="none" xmlns="http://www.w3.org/2000/svg">
<path d="M34.0833 28.9833L20.6 36.6166V30.6666L29 26.0499L34.0833 28.9833ZM35 28.1499V12.1833L30.0667 14.9999V25.2999L35 28.1499ZM5.91667 28.9833L19.4 36.5999V30.6666L11 26.0499L5.91667 28.9833ZM5 28.1499V12.1833L9.93333 14.9999V25.2999L5 28.1499ZM5.58333 11.1499L19.4 3.33325V9.08325L10.55 13.9499L10.4667 13.9833L5.58333 11.1499ZM34.4167 11.1499L20.6 3.33325V9.08325L29.45 13.9666L29.5167 13.9999L34.4167 11.1499ZM19.4 29.3166L11.1167 24.7499V15.7333L19.4 20.5166V29.3166ZM20.6 29.3166L28.8833 24.7666V15.7333L20.6 20.5166V29.3166ZM11.6667 14.6833L20 10.0999L28.3333 14.6833L20 19.4833L11.6667 14.6833Z" fill="#F5F4F2"/>
</svg>
