<svg width="40" height="40" viewBox="0 0 40 40" fill="none" xmlns="http://www.w3.org/2000/svg">
<path d="M33.75 6.25H6.25C5.58696 6.25 4.95107 6.51339 4.48223 6.98223C4.01339 7.45107 3.75 8.08696 3.75 8.75V31.25C3.75 31.913 4.01339 32.5489 4.48223 33.0178C4.95107 33.4866 5.58696 33.75 6.25 33.75H33.75C34.413 33.75 35.0489 33.4866 35.5178 33.0178C35.9866 32.5489 36.25 31.913 36.25 31.25V8.75C36.25 8.08696 35.9866 7.45107 35.5178 6.98223C35.0489 6.51339 34.413 6.25 33.75 6.25ZM14.5 22.75C14.7652 22.9489 14.9406 23.245 14.9874 23.5732C15.0343 23.9014 14.9489 24.2348 14.75 24.5C14.5511 24.7652 14.255 24.9406 13.9268 24.9874C13.5986 25.0343 13.2652 24.9489 13 24.75L8 21C7.84476 20.8836 7.71875 20.7326 7.63197 20.559C7.54518 20.3854 7.5 20.1941 7.5 20C7.5 19.8059 7.54518 19.6146 7.63197 19.441C7.71875 19.2674 7.84476 19.1164 8 19L13 15.25C13.2652 15.0511 13.5986 14.9657 13.9268 15.0126C14.255 15.0594 14.5511 15.2348 14.75 15.5C14.9489 15.7652 15.0343 16.0986 14.9874 16.4268C14.9406 16.755 14.7652 17.0511 14.5 17.25L10.8328 20L14.5 22.75ZM23.7016 11.5937L18.7016 29.0937C18.6589 29.2544 18.5847 29.4049 18.4833 29.5365C18.3818 29.6681 18.2551 29.7782 18.1106 29.8602C17.9661 29.9423 17.8066 29.9947 17.6416 30.0144C17.4766 30.0341 17.3093 30.0207 17.1495 29.975C16.9898 29.9293 16.8407 29.8522 16.7111 29.7482C16.5815 29.6442 16.4739 29.5154 16.3946 29.3693C16.3154 29.2232 16.2661 29.0628 16.2495 28.8975C16.233 28.7321 16.2496 28.5651 16.2984 28.4063L21.2984 10.9063C21.3945 10.5933 21.6095 10.3306 21.8973 10.1745C22.185 10.0184 22.5225 9.9814 22.8372 10.0714C23.1519 10.1615 23.4187 10.3714 23.5803 10.656C23.742 10.9407 23.7855 11.2774 23.7016 11.5937ZM32 21L27 24.75C26.7348 24.9489 26.4014 25.0343 26.0732 24.9874C25.745 24.9406 25.4489 24.7652 25.25 24.5C25.0511 24.2348 24.9657 23.9014 25.0126 23.5732C25.0594 23.245 25.2348 22.9489 25.5 22.75L29.1672 20L25.5 17.25C25.3687 17.1515 25.258 17.0281 25.1744 16.8869C25.0908 16.7456 25.0358 16.5893 25.0126 16.4268C24.9893 16.2643 24.9984 16.0988 25.0391 15.9398C25.0798 15.7808 25.1515 15.6313 25.25 15.5C25.3485 15.3687 25.4719 15.258 25.6131 15.1744C25.7544 15.0908 25.9107 15.0358 26.0732 15.0126C26.2357 14.9893 26.4012 14.9984 26.5602 15.0391C26.7192 15.0798 26.8687 15.1515 27 15.25L32 19C32.1552 19.1164 32.2812 19.2674 32.368 19.441C32.4548 19.6146 32.5 19.8059 32.5 20C32.5 20.1941 32.4548 20.3854 32.368 20.559C32.2812 20.7326 32.1552 20.8836 32 21Z" fill="#F5F4F2"/>
</svg>
