<svg width="40" height="40" viewBox="0 0 40 40" fill="none" xmlns="http://www.w3.org/2000/svg">
<path d="M39.9998 22.6567C39.8064 23.3117 39.5164 23.93 39.2681 24.5617C38.5533 26.3592 37.835 28.1553 37.1131 29.95C36.9464 30.3611 36.7814 30.7728 36.6181 31.185C36.5054 31.4676 36.3104 31.7097 36.0584 31.88C35.8064 32.0503 35.5089 32.1409 35.2048 32.14C34.9007 32.1389 34.6041 32.0465 34.3533 31.8747C34.1024 31.7029 33.909 31.4597 33.7981 31.1767C30.5648 23.0884 28.4814 17.8934 25.2964 9.92336C25.2123 9.72113 25.1735 9.50294 25.1827 9.28411C25.1919 9.06528 25.2489 8.85112 25.3498 8.65669C25.4508 8.46302 25.593 8.29377 25.7663 8.16077C25.9396 8.02777 26.1399 7.93423 26.3531 7.88669L26.4398 7.86169H33.5181L33.5848 7.88169C33.833 7.93337 34.0642 8.04716 34.2565 8.21242C34.4489 8.37769 34.5962 8.58903 34.6848 8.82669L35.9231 11.9234L39.1648 20.0317C39.4481 20.745 39.7648 21.4434 39.9981 22.175L39.9998 22.6567ZM8.32976 7.85669C8.40976 7.87669 8.4892 7.89947 8.56809 7.92502C8.77265 7.98888 8.96028 8.09778 9.11719 8.24373C9.2741 8.38968 9.39628 8.56895 9.47476 8.76836C10.1752 10.5076 10.8724 12.2482 11.5664 13.99C12.612 16.6067 13.6598 19.2234 14.7098 21.84C14.7875 22.0244 14.8275 22.2224 14.8275 22.4225C14.8275 22.6226 14.7875 22.8207 14.7098 23.005L11.4164 31.2084C11.3046 31.4832 11.1138 31.7187 10.8681 31.885C10.6144 32.0548 10.3159 32.145 10.0107 32.1442C9.70543 32.1433 9.40741 32.0513 9.15476 31.88C8.89361 31.7046 8.69421 31.4516 8.58476 31.1567C7.92809 29.49 7.25809 27.8284 6.59309 26.165C4.79642 21.62 2.97642 17.085 1.16309 12.5467C0.817536 11.68 0.470313 10.8134 0.121425 9.94669C-0.0308413 9.58612 -0.0378146 9.18064 0.101963 8.81504C0.24174 8.44945 0.517445 8.15204 0.871425 7.98502C1.00084 7.93401 1.13332 7.89115 1.26809 7.85669H8.32976ZM21.0414 7.85669C21.2864 7.90669 21.5181 8.01002 21.7198 8.15669C21.9459 8.33577 22.1187 8.5732 22.2198 8.84336L26.2864 19.01C26.6598 19.9467 27.0353 20.8822 27.4131 21.8167C27.4938 22.0076 27.5353 22.2128 27.5353 22.42C27.5353 22.6273 27.4938 22.8324 27.4131 23.0234L24.1498 31.16C23.9331 31.6984 23.5431 32.0334 22.9664 32.1217C22.2514 32.2284 21.6114 31.875 21.3531 31.2484C19.7181 27.185 18.0964 23.115 16.4698 19.0484C15.5631 16.7706 14.6536 14.4928 13.7414 12.215C13.4398 11.46 13.1481 10.6984 12.8314 9.94836C12.7449 9.7444 12.704 9.52396 12.7118 9.30253C12.7196 9.0811 12.7758 8.86407 12.8764 8.66669C12.9765 8.46898 13.1191 8.2959 13.294 8.15988C13.4689 8.02386 13.6718 7.92828 13.8881 7.88002L13.9631 7.85669H21.0414Z" fill="#F5F4F2"/>
</svg>
