<svg width="40" height="40" viewBox="0 0 40 40" fill="none" xmlns="http://www.w3.org/2000/svg">
<g clip-path="url(#clip0_6731_499)">
<path d="M20.2051 40C19.8684 40 19.5334 39.9906 19.2001 39.9717C19.1294 39.8228 19.1045 39.6564 19.1284 39.4933C19.1441 39.3462 19.1316 39.1975 19.0917 39.055H15.3751C15.0365 39.4289 14.5692 39.6611 14.0667 39.705C13.9074 39.7027 13.7502 39.6678 13.6049 39.6025C13.4596 39.5371 13.3292 39.4427 13.2217 39.325C13.007 39.0727 12.8802 38.7573 12.8607 38.4265C12.8411 38.0957 12.9298 37.7675 13.1134 37.4917C13.224 37.3517 13.3651 37.239 13.5261 37.1622C13.687 37.0853 13.8634 37.0464 14.0417 37.0483C14.4694 37.0696 14.8794 37.2253 15.2134 37.4933H19.0934C19.1461 37.1543 19.1461 36.8091 19.0934 36.47H17.1001C16.7812 36.4759 16.4659 36.4014 16.1834 36.2533C15.3749 35.7728 14.5481 35.3236 13.7051 34.9067C13.3465 34.6953 12.938 34.5836 12.5217 34.5833C12.2577 34.6007 11.9931 34.609 11.7284 34.6083C11.4662 34.6072 11.2084 34.6033 10.9551 34.5967C10.7051 34.5893 10.4551 34.5848 10.2051 34.5833C9.83603 34.937 9.35755 35.1545 8.84841 35.2C8.6858 35.1984 8.52543 35.1619 8.37819 35.0929C8.23095 35.0239 8.10029 34.924 7.99507 34.8C7.76148 34.563 7.63053 34.2436 7.63053 33.9108C7.63053 33.5781 7.76148 33.2587 7.99507 33.0217C8.10271 32.886 8.23843 32.7752 8.39292 32.697C8.54742 32.6187 8.71701 32.5748 8.89007 32.5683C9.36005 32.6133 9.80248 32.8105 10.1501 33.13H12.9517C13.2705 33.1236 13.5857 33.1976 13.8684 33.345C14.1017 33.4817 14.3567 33.615 14.6034 33.7433C15.0395 33.9569 15.4595 34.202 15.8601 34.4767C16.4096 34.845 17.0585 35.0369 17.7201 35.0267C17.8191 35.0257 17.918 35.0218 18.0167 35.015C18.1379 35.0005 18.2597 34.9928 18.3817 34.9917C18.494 34.9917 18.6095 34.9956 18.7284 35.0033C18.8595 35.0111 18.999 35.015 19.1467 35.015V33.2917H17.2067C16.8736 33.5769 16.4601 33.7516 16.0234 33.7917C15.8228 33.7784 15.6275 33.7221 15.4506 33.6267C15.2738 33.5312 15.1195 33.3987 14.9984 33.2383C14.3817 32.565 14.7751 31.9 15.2151 31.46C15.3815 31.3251 15.5892 31.2515 15.8034 31.2517C16.3464 31.3215 16.8454 31.587 17.2067 31.9983H19.0401V30.49C18.9476 30.4452 18.8461 30.4224 18.7434 30.4233C18.699 30.4233 18.6528 30.4256 18.6051 30.43C18.5562 30.4333 18.5034 30.4356 18.4467 30.4367H8.26507C8.02508 30.4525 7.78507 30.4062 7.56817 30.3022C7.35127 30.1983 7.1648 30.0403 7.02674 29.8433C6.74007 29.4633 6.41007 29.0783 6.11841 28.7383L6.00174 28.605C4.76341 28.4967 4.38507 28.13 4.44007 27.0967C4.45469 26.9293 4.50291 26.7665 4.58186 26.6182C4.6608 26.4698 4.76885 26.3389 4.89954 26.2333C5.03023 26.1276 5.18088 26.0494 5.34248 26.0033C5.50408 25.9572 5.67332 25.9442 5.84007 25.965C6.66007 25.965 7.02507 26.515 7.02507 27.7433C7.12507 27.86 7.22674 27.9822 7.33007 28.11C7.55674 28.3833 7.79007 28.6683 8.05007 28.9283H19.1467C19.2009 28.3552 19.2009 27.7782 19.1467 27.205H11.0667C10.7082 27.5555 10.2408 27.7731 9.74174 27.8217C9.5827 27.819 9.42613 27.7818 9.28284 27.7128C9.13955 27.6437 9.01294 27.5444 8.91174 27.4217C8.78463 27.3052 8.68313 27.1635 8.6137 27.0057C8.54426 26.8479 8.50841 26.6774 8.50841 26.505C8.50841 26.3326 8.54426 26.1621 8.6137 26.0043C8.68313 25.8465 8.78463 25.7048 8.91174 25.5883C9.01325 25.4582 9.1412 25.3512 9.28715 25.2742C9.4331 25.1972 9.59372 25.152 9.75841 25.1417C10.2179 25.1957 10.6432 25.4113 10.9584 25.75H19.0917V24.08H5.35841C5.09841 24.3678 4.81952 24.665 4.52174 24.9717C4.25841 25.2483 3.98674 25.5333 3.68841 25.8567C3.65389 26.1886 3.50192 26.4973 3.25989 26.7271C3.01787 26.9569 2.7017 27.0927 2.36841 27.11C2.30487 27.1092 2.24143 27.1047 2.17841 27.0967C1.81485 27.0168 1.49763 26.7964 1.29593 26.4835C1.09423 26.1707 1.02443 25.7908 1.10174 25.4267C1.20007 24.7883 1.72174 24.4233 2.53507 24.4233C2.68621 24.4242 2.83711 24.4353 2.98674 24.4567C3.28174 24.1133 3.72674 23.61 4.17174 23.1633C4.33237 22.9814 4.53229 22.8384 4.75636 22.7451C4.98043 22.6518 5.22278 22.6108 5.46507 22.625H19.0934V20.7933H2.71674C2.38111 21.1206 1.94347 21.323 1.47674 21.3667C1.29326 21.3607 1.11396 21.3103 0.954286 21.2197C0.794609 21.1291 0.659325 21.0011 0.560072 20.8467C0.35066 20.5677 0.251529 20.2213 0.281668 19.8738C0.311806 19.5263 0.469095 19.2021 0.723406 18.9633C0.942568 18.7638 1.22551 18.6486 1.52174 18.6383C1.79232 18.669 2.05326 18.7569 2.28719 18.8963C2.52112 19.0357 2.72267 19.2233 2.87841 19.4467H8.21174L8.04174 19.285C7.10841 18.405 6.14507 17.4933 4.97841 16.43C4.80254 16.4353 4.6275 16.4037 4.46461 16.3372C4.30171 16.2707 4.15457 16.1708 4.03269 16.0439C3.91082 15.917 3.81691 15.7659 3.75703 15.6005C3.69715 15.435 3.67264 15.2588 3.68507 15.0833C3.68507 14.2267 4.05174 13.845 4.87007 13.845C5.97341 13.845 6.27007 14.1983 6.32507 15.5683C6.73841 15.965 7.14507 16.35 7.57507 16.7567C8.5179 17.6399 9.44799 18.5367 10.3651 19.4467H19.0917V18.2083H15.2684C14.9285 18.4671 14.5197 18.6196 14.0934 18.6467C13.9033 18.6444 13.7162 18.5988 13.5464 18.5133C13.3766 18.4278 13.2285 18.3047 13.1134 18.1533C12.9108 17.8778 12.8203 17.5356 12.8602 17.196C12.9001 16.8563 13.0674 16.5444 13.3284 16.3233C13.5271 16.1414 13.7873 16.0413 14.0567 16.0433C14.5797 16.0859 15.0686 16.3197 15.4301 16.7H19.0934V15.3C18.7134 15.2989 18.3406 15.2944 17.9751 15.2867H17.9634C17.599 15.2797 17.2345 15.2758 16.8701 15.275C16.4567 15.275 16.0917 15.2833 15.7534 15.2983C15.6897 15.3048 15.6257 15.3076 15.5617 15.3067C15.0266 15.3003 14.5152 15.085 14.1367 14.7067L13.1367 13.8617L13.1167 13.845L13.1034 13.8333C12.4263 13.2601 11.7474 12.689 11.0667 12.12H5.08674C4.74877 12.4054 4.32816 12.5748 3.88674 12.6033C3.70124 12.6009 3.51876 12.5561 3.35323 12.4723C3.18771 12.3886 3.04354 12.268 2.93174 12.12C2.82122 11.9895 2.73768 11.8384 2.68595 11.6754C2.63422 11.5124 2.61532 11.3408 2.63035 11.1704C2.64539 11.0001 2.69406 10.8344 2.77354 10.683C2.85302 10.5316 2.96174 10.3975 3.09341 10.2883C3.29871 10.0669 3.58189 9.93364 3.88341 9.91667C4.41271 9.99759 4.89627 10.2633 5.24841 10.6667H10.4734C10.8308 10.6558 11.1867 10.7169 11.5199 10.8463C11.8532 10.9757 12.1571 11.1708 12.4134 11.42C13.0351 12.005 13.7384 12.57 14.4184 13.1183H14.4201C14.7367 13.3733 15.0667 13.6367 15.3751 13.895H19.0384V12.1183C18.8084 12.1183 18.5684 12.1117 18.3384 12.1067H18.3334C18.089 12.0992 17.8446 12.0948 17.6001 12.0933C17.3334 12.0933 17.0956 12.1017 16.8867 12.1183C16.8231 12.1248 16.7591 12.1276 16.6951 12.1267C16.1702 12.1183 15.6651 11.9253 15.2684 11.5817C15.1013 11.4454 14.9319 11.312 14.7601 11.1817C14.5884 11.0483 14.4067 10.9117 14.2434 10.7733C12.9101 10.6667 12.4134 10.29 12.4667 9.42667C12.4809 9.09328 12.6234 8.77827 12.8645 8.54749C13.1055 8.31672 13.4264 8.18803 13.7601 8.18833C14.5884 8.18833 15.0517 8.69167 15.1067 9.64167C15.3217 9.80333 15.5367 9.98167 15.7534 10.1533L15.7551 10.1567C15.9667 10.3283 16.1867 10.5067 16.4017 10.6667H19.0417V8.56667H18.1251C17.7753 8.89802 17.3284 9.10834 16.8501 9.16667C16.6755 9.15673 16.5056 9.10713 16.3531 9.02165C16.2006 8.93616 16.0696 8.81704 15.9701 8.67333C15.7429 8.41874 15.622 8.08675 15.6323 7.74571C15.6425 7.40466 15.7831 7.08052 16.0251 6.84C16.1332 6.72796 16.2626 6.63868 16.4057 6.57742C16.5488 6.51617 16.7027 6.48418 16.8584 6.48333C17.1002 6.49901 17.3365 6.56246 17.5536 6.67003C17.7708 6.77759 17.9644 6.92713 18.1234 7.11H18.9851C19.0774 6.9326 19.1028 6.72793 19.0567 6.53333C19.0459 6.45714 19.0403 6.38029 19.0401 6.30333V5.44167C18.8783 5.45624 18.7159 5.46291 18.5534 5.46167C18.3561 5.46 18.1588 5.45445 17.9617 5.445H17.9501C17.748 5.43484 17.5457 5.42929 17.3434 5.42833C16.753 5.40246 16.1666 5.53725 15.6467 5.81833C15.0463 6.17684 14.4258 6.50071 13.7884 6.78833H13.7834C13.5284 6.91 13.2634 7.035 13.0067 7.16167C12.7854 7.25314 12.5454 7.29029 12.3067 7.27H8.70007C8.39182 7.58592 7.97994 7.78003 7.54007 7.81667C7.34353 7.80718 7.15171 7.75319 6.97906 7.65879C6.80642 7.56438 6.65746 7.43201 6.54341 7.27167C6.43349 7.14906 6.34999 7.00514 6.29809 6.84888C6.24619 6.69261 6.22701 6.52733 6.24174 6.36333C6.25804 6.17423 6.31218 5.99033 6.40093 5.82255C6.48969 5.65478 6.61125 5.50655 6.75841 5.38667C6.9737 5.18684 7.25325 5.07041 7.54674 5.05833C7.79845 5.0883 8.04088 5.17159 8.25786 5.30264C8.47484 5.4337 8.66139 5.6095 8.80507 5.81833H12.3067C12.4352 5.81305 12.5613 5.78305 12.6784 5.73C12.7505 5.7004 12.8246 5.6759 12.9001 5.65667C13.119 5.54667 13.3356 5.44111 13.5501 5.34C14.0835 5.09595 14.6037 4.8239 15.1084 4.525C15.7894 4.11818 16.5703 3.90925 17.3634 3.92167C17.4712 3.92167 17.5812 3.925 17.6934 3.93167C17.8361 3.9487 17.9797 3.9565 18.1234 3.955C18.2645 3.955 18.409 3.95167 18.5567 3.945H18.5584C18.7117 3.93722 18.8706 3.93278 19.0351 3.93167C19.1019 3.60844 19.1227 3.27738 19.0967 2.94833C19.0923 2.83167 19.0901 2.71056 19.0901 2.585H15.6934C15.3308 2.88978 14.8871 3.08208 14.4167 3.13833C14.2419 3.12838 14.0718 3.07805 13.9197 2.9913C13.7676 2.90455 13.6376 2.78373 13.5401 2.63833C13.3317 2.37264 13.2276 2.0399 13.2476 1.70281C13.2675 1.36573 13.4101 1.04758 13.6484 0.808333C13.8659 0.595696 14.156 0.473576 14.4601 0.466667C14.95 0.509623 15.4086 0.725912 15.7534 1.07667H19.0934C19.0956 0.928889 19.1034 0.775556 19.1167 0.616667C19.1317 0.426667 19.1467 0.231667 19.1467 0H19.3567C26.3501 0 31.8434 2.73667 35.6851 8.13333C38.0268 11.2617 39.4198 14.9972 39.6984 18.895C39.8984 22.5667 38.9651 26.3233 36.9234 30.0583C35.2105 33.1902 32.6499 35.7762 29.5351 37.52C26.6876 39.1292 23.4757 39.9829 20.2051 40ZM20.8167 30.705V38.1383C20.9654 38.1633 21.116 38.1755 21.2667 38.175C21.5409 38.1693 21.8144 38.1442 22.0851 38.1C22.2684 38.075 22.4517 38.045 22.6467 38.0317C24.3765 35.8299 25.7242 33.3532 26.6334 30.705H20.8167ZM28.5734 30.705C27.8053 33.0065 26.7752 35.2121 25.5034 37.2783C29.0852 36.1077 32.1868 33.7997 34.3367 30.705H28.5734ZM30.2984 21.0633C30.2195 23.6838 29.8392 26.2865 29.1651 28.82H35.5234C36.7974 26.422 37.5328 23.7749 37.6784 21.0633H30.2984ZM20.8151 21.0633V28.7667H27.2817C27.9877 26.2581 28.3675 23.669 28.4117 21.0633H20.8151ZM20.8701 11.42V19.1767H28.4651C28.399 16.5516 28.0014 13.9454 27.2817 11.42H20.8701ZM29.1117 11.3667C29.7908 13.9008 30.1882 16.5021 30.2967 19.1233H37.6767C37.5311 16.405 36.7764 13.7541 35.4684 11.3667H29.1117ZM25.4501 2.96333C26.7284 5.03328 27.7763 7.23697 28.5751 9.535H34.3401C32.1565 6.45008 29.0395 4.14674 25.4501 2.96333ZM20.8717 1.99333C20.8717 4.59667 20.8717 7.05667 20.9251 9.48167H26.6901C26.6698 9.4603 26.6546 9.43474 26.6453 9.40679C26.6361 9.37885 26.6332 9.34921 26.6367 9.32C25.7349 6.87185 24.483 4.56734 22.9201 2.47833L22.8567 2.41167C22.8211 2.35784 22.7748 2.31197 22.7206 2.27697C22.6663 2.24198 22.6054 2.2186 22.5417 2.20833C21.9891 2.10802 21.4317 2.03737 20.8717 1.99333Z" fill="#F5F4F2"/>
</g>
<defs>
<clipPath id="clip0_6731_499">
<rect width="40" height="40" fill="white"/>
</clipPath>
</defs>
</svg>
