<svg width="34" height="34" viewBox="0 0 34 34" fill="none" xmlns="http://www.w3.org/2000/svg">
<path d="M0.98 14.7067C1.30333 11.96 2.18667 9.97 3.735 7.84333H4.90167C3.24533 9.78264 2.20438 12.1715 1.91167 14.705L0.98 14.7067ZM9.10833 3.92167H7.35333C9.54282 2.39386 12.0614 1.40323 14.705 1.03V1.96C12.7363 2.27051 10.8401 2.93513 9.10833 3.92167ZM31.4217 14.705C31.0683 11.9217 30.4017 9.92167 28.735 7.84333H29.9017C31.4517 9.97 32.03 11.96 32.3517 14.705H31.4217ZM24.225 3.92167H25.98C23.7929 2.37918 21.2742 1.3716 18.6267 0.98V1.91167C20.5383 2.14667 22.6067 3.02833 24.225 3.92167ZM7.35333 29.4117C9.53998 30.9539 12.058 31.9615 14.705 32.3533V31.4217C12.7331 31.0961 10.8368 30.4151 9.10833 29.4117H7.35333ZM3.73667 25.49H4.90333C3.22656 23.5162 2.16912 21.0918 1.86333 18.52H0.921667C1.245 21.265 2.18833 23.3633 3.73667 25.49ZM24.2233 29.4117C22.6067 30.3033 20.5367 31.1767 18.625 31.4217V32.3533C21.2333 32.05 23.92 30.8333 25.9783 29.4117H24.2233ZM28.43 25.49H29.5967C31.1329 23.5015 32.0867 21.1254 32.3517 18.6267H31.42C31.1276 21.1608 30.0866 23.5502 28.43 25.49ZM5.88167 4.90167H7.84333V6.86333H5.88167V4.90167ZM25.49 4.90167H27.4517V6.86333H25.49V4.90167ZM5.88333 26.47H7.845V28.4317H5.88167L5.88333 26.47ZM0 15.6867H1.96V17.6467H0V15.6867ZM31.3733 15.6867H33.3333V17.6467H31.3717L31.3733 15.6867ZM15.685 33.3333V31.3717H17.645V33.3333H15.685ZM15.685 1.96V0H17.645V1.96H15.685ZM25.4883 26.47H27.45V28.4317H25.4883V26.47ZM17.7667 10.785L19.61 11.4117L15.57 22.5483L13.7267 21.9217L17.7667 10.785ZM11.54 12.745L6.86333 16.6667L11.54 20.5883L12.745 18.9217L9.95167 16.6667L12.745 14.4117L11.54 12.745ZM21.795 12.745L26.47 16.6667L21.7933 20.5883L20.5883 18.9217L23.3817 16.6667L20.5883 14.4117L21.795 12.745Z" fill="#F5F4F2"/>
</svg>
