<svg width="34" height="34" viewBox="0 0 34 34" fill="none" xmlns="http://www.w3.org/2000/svg">
<path d="M16.6667 10C14.8333 10 13.2639 10.6528 11.9583 11.9583C10.6528 13.2639 10 14.8333 10 16.6667C10 17.9167 10.3128 19.0694 10.9383 20.125C11.5639 21.1806 12.4317 22 13.5417 22.5833C13.9861 22.8056 14.2989 23.1317 14.48 23.5617C14.6611 23.9917 14.6539 24.4294 14.4583 24.875C14.2639 25.2639 13.9722 25.5556 13.5833 25.75C13.1944 25.9444 12.8056 25.9444 12.4167 25.75C10.6667 24.9167 9.27111 23.6806 8.23 22.0417C7.18889 20.4028 6.66778 18.6111 6.66667 16.6667C6.66667 13.8889 7.63889 11.5278 9.58334 9.58333C11.5278 7.63889 13.8889 6.66667 16.6667 6.66667C18.6389 6.66667 20.4517 7.18778 22.105 8.23C23.7583 9.27222 24.9872 10.6956 25.7917 12.5C25.9583 12.8889 25.9517 13.2778 25.7717 13.6667C25.5917 14.0556 25.3067 14.3333 24.9167 14.5C24.4722 14.6944 24.0278 14.6944 23.5833 14.5C23.1389 14.3056 22.8056 13.9861 22.5833 13.5417C22 12.4306 21.1806 11.5628 20.125 10.9383C19.0694 10.3139 17.9167 10.0011 16.6667 10ZM16.6667 3.33333C12.9444 3.33333 9.79167 4.625 7.20834 7.20833C4.625 9.79167 3.33334 12.9444 3.33334 16.6667C3.33334 20.1667 4.48611 23.1667 6.79167 25.6667C9.09722 28.1667 11.9861 29.5833 15.4583 29.9167C15.9306 29.9722 16.34 30.1806 16.6867 30.5417C17.0333 30.9028 17.1933 31.3194 17.1667 31.7917C17.14 32.2639 16.9661 32.6528 16.645 32.9583C16.3239 33.2639 15.9283 33.4028 15.4583 33.375C13.2917 33.2361 11.2706 32.6944 9.395 31.75C7.51945 30.8056 5.88056 29.5761 4.47834 28.0617C3.07611 26.5472 1.97889 24.8111 1.18667 22.8533C0.394447 20.8956 -0.00110878 18.8333 2.33427e-06 16.6667C2.33427e-06 14.3611 0.43778 12.1944 1.31334 10.1667C2.18889 8.13889 3.37611 6.375 4.875 4.875C6.37389 3.375 8.13778 2.18778 10.1667 1.31333C12.1956 0.438889 14.3622 0.00111111 16.6667 0C21.0278 0 24.8267 1.48611 28.0633 4.45833C31.3 7.43056 33.0706 11.0972 33.375 15.4583C33.4306 15.9028 33.2989 16.285 32.98 16.605C32.6611 16.925 32.265 17.0983 31.7917 17.125C31.3183 17.1517 30.895 16.9989 30.5217 16.6667C30.1483 16.3344 29.9328 15.9317 29.875 15.4583C29.4583 12.125 28.0072 9.27111 25.5217 6.89667C23.0361 4.52222 20.0844 3.33444 16.6667 3.33333ZM29.25 32.5L23.75 27.0417L22.5 30.8333C22.3611 31.2222 22.0972 31.41 21.7083 31.3967C21.3194 31.3833 21.0556 31.1817 20.9167 30.7917L17.125 18.1667C17.0139 17.8611 17.0833 17.5833 17.3333 17.3333C17.5833 17.0833 17.8611 17.0139 18.1667 17.125L30.7917 20.9167C31.1806 21.0556 31.3822 21.3194 31.3967 21.7083C31.4111 22.0972 31.2233 22.3611 30.8333 22.5L27.0417 23.75L32.5417 29.25C33.0139 29.7222 33.25 30.2639 33.25 30.875C33.25 31.4861 33.0139 32.0278 32.5417 32.5C32.0694 32.9722 31.5211 33.2083 30.8967 33.2083C30.2722 33.2083 29.7233 32.9722 29.25 32.5Z" fill="#F5F4F2"/>
</svg>
