<svg width="40" height="40" viewBox="0 0 40 40" fill="none" xmlns="http://www.w3.org/2000/svg">
<path d="M4.3135 18.0399C4.63683 15.2933 5.52016 13.3033 7.0685 11.1766H8.23516C6.57883 13.1159 5.53788 15.5047 5.24516 18.0383L4.3135 18.0399ZM12.4418 7.25492H10.6868C12.8763 5.72712 15.3949 4.73648 18.0385 4.36325V5.29325C16.0698 5.60376 14.1736 6.26838 12.4418 7.25492ZM34.7552 18.0383C34.4018 15.2549 33.7352 13.2549 32.0685 11.1766H33.2352C34.7852 13.3033 35.3635 15.2933 35.6852 18.0383H34.7552ZM27.5585 7.25492H29.3135C27.1264 5.71243 24.6077 4.70486 21.9602 4.31325V5.24492C23.8718 5.47992 25.9402 6.36159 27.5585 7.25492ZM10.6868 32.7449C12.8735 34.2872 15.3915 35.2947 18.0385 35.6866V34.7549C16.0666 34.4294 14.1703 33.7483 12.4418 32.7449H10.6868ZM7.07016 28.8233H8.23683C6.56005 26.8495 5.50261 24.425 5.19683 21.8533H4.25516C4.5785 24.5983 5.52183 26.6966 7.07016 28.8233ZM27.5568 32.7449C25.9402 33.6366 23.8702 34.5099 21.9585 34.7549V35.6866C24.5668 35.3833 27.2535 34.1666 29.3118 32.7449H27.5568ZM31.7635 28.8233H32.9302C34.4664 26.8348 35.4202 24.4587 35.6852 21.9599H34.7535C34.4611 24.494 33.4201 26.8835 31.7635 28.8233ZM9.21516 8.23492H11.1768V10.1966H9.21516V8.23492ZM28.8235 8.23492H30.7852V10.1966H28.8235V8.23492ZM9.21683 29.8033H11.1785V31.7649H9.21516L9.21683 29.8033ZM3.3335 19.0199H5.2935V20.9799H3.3335V19.0199ZM34.7068 19.0199H36.6668V20.9799H34.7052L34.7068 19.0199ZM19.0185 36.6666V34.7049H20.9785V36.6666H19.0185ZM19.0185 5.29325V3.33325H20.9785V5.29325H19.0185ZM28.8218 29.8033H30.7835V31.7649H28.8218V29.8033ZM21.1002 14.1183L22.9435 14.7449L18.9035 25.8816L17.0602 25.2549L21.1002 14.1183ZM14.8735 16.0783L10.1968 19.9999L14.8735 23.9216L16.0785 22.2549L13.2852 19.9999L16.0785 17.7449L14.8735 16.0783ZM25.1285 16.0783L29.8035 19.9999L25.1268 23.9216L23.9218 22.2549L26.7152 19.9999L23.9218 17.7449L25.1285 16.0783Z" fill="#F5F4F2"/>
</svg>
