<svg width="40" height="40" viewBox="0 0 40 40" fill="none" xmlns="http://www.w3.org/2000/svg">
<path d="M19.9287 40C19.592 40 19.257 39.9906 18.9237 39.9717C18.8531 39.8228 18.8281 39.6564 18.852 39.4933C18.8677 39.3462 18.8553 39.1975 18.8154 39.055H15.0987C14.7602 39.4289 14.2928 39.6611 13.7904 39.705C13.631 39.7027 13.4739 39.6678 13.3285 39.6025C13.1832 39.5371 13.0528 39.4427 12.9454 39.325C12.7306 39.0727 12.6038 38.7573 12.5843 38.4265C12.5647 38.0957 12.6535 37.7675 12.837 37.4917C12.9476 37.3517 13.0888 37.239 13.2497 37.1622C13.4106 37.0853 13.587 37.0464 13.7654 37.0483C14.193 37.0696 14.6031 37.2253 14.937 37.4933H18.817C18.8697 37.1543 18.8697 36.8091 18.817 36.47H16.8237C16.5048 36.4759 16.1896 36.4014 15.907 36.2533C15.0985 35.7728 14.2718 35.3236 13.4287 34.9067C13.0702 34.6953 12.6616 34.5836 12.2454 34.5833C11.9813 34.6007 11.7167 34.609 11.452 34.6083C11.1898 34.6072 10.932 34.6033 10.6787 34.5967C10.4288 34.5893 10.1787 34.5848 9.92871 34.5833C9.55966 34.937 9.08118 35.1545 8.57204 35.2C8.40943 35.1984 8.24906 35.1619 8.10182 35.0929C7.95458 35.0239 7.82392 34.924 7.71871 34.8C7.48511 34.563 7.35416 34.2436 7.35416 33.9108C7.35416 33.5781 7.48511 33.2587 7.71871 33.0217C7.82634 32.886 7.96206 32.7752 8.11656 32.697C8.27105 32.6187 8.44065 32.5748 8.61371 32.5683C9.08368 32.6133 9.52612 32.8105 9.87371 33.13H12.6754C12.9941 33.1236 13.3094 33.1976 13.592 33.345C13.8254 33.4817 14.0804 33.615 14.327 33.7433C14.7632 33.9569 15.1832 34.202 15.5837 34.4767C16.1333 34.845 16.7822 35.0369 17.4437 35.0267C17.5427 35.0257 17.6416 35.0218 17.7404 35.015C17.8615 35.0005 17.9834 34.9928 18.1054 34.9917C18.2176 34.9917 18.3331 34.9956 18.452 35.0033C18.5831 35.0111 18.7226 35.015 18.8704 35.015V33.2917H16.9304C16.5972 33.5769 16.1838 33.7516 15.747 33.7917C15.5465 33.7784 15.3511 33.7221 15.1743 33.6267C14.9974 33.5312 14.8432 33.3987 14.722 33.2383C14.1054 32.565 14.4987 31.9 14.9387 31.46C15.1051 31.3251 15.3128 31.2515 15.527 31.2517C16.0701 31.3215 16.569 31.587 16.9304 31.9983H18.7637V30.49C18.6713 30.4452 18.5697 30.4224 18.467 30.4233C18.4226 30.4233 18.3765 30.4256 18.3287 30.43C18.2798 30.4333 18.227 30.4356 18.1704 30.4367H7.98871C7.74871 30.4525 7.5087 30.4062 7.2918 30.3022C7.0749 30.1983 6.88843 30.0403 6.75037 29.8433C6.46371 29.4633 6.13371 29.0783 5.84204 28.7383L5.72537 28.605C4.48704 28.4967 4.10871 28.13 4.16371 27.0967C4.17832 26.9293 4.22654 26.7665 4.30549 26.6182C4.38443 26.4698 4.49248 26.3389 4.62317 26.2333C4.75386 26.1276 4.90451 26.0494 5.06611 26.0033C5.22771 25.9572 5.39695 25.9442 5.56371 25.965C6.38371 25.965 6.74871 26.515 6.74871 27.7433C6.84871 27.86 6.95037 27.9822 7.0537 28.11C7.28037 28.3833 7.51371 28.6683 7.77371 28.9283H18.8704C18.9245 28.3552 18.9245 27.7782 18.8704 27.205H10.7904C10.4319 27.5555 9.96441 27.7731 9.46537 27.8217C9.30633 27.819 9.14977 27.7818 9.00647 27.7128C8.86318 27.6437 8.73657 27.5444 8.63537 27.4217C8.50826 27.3052 8.40677 27.1635 8.33733 27.0057C8.2679 26.8479 8.23204 26.6774 8.23204 26.505C8.23204 26.3326 8.2679 26.1621 8.33733 26.0043C8.40677 25.8465 8.50826 25.7048 8.63537 25.5883C8.73688 25.4582 8.86484 25.3512 9.01078 25.2742C9.15673 25.1972 9.31735 25.152 9.48204 25.1417C9.94154 25.1957 10.3669 25.4113 10.682 25.75H18.8154V24.08H5.08204C4.82204 24.3678 4.54315 24.665 4.24537 24.9717C3.98204 25.2483 3.71037 25.5333 3.41204 25.8567C3.37752 26.1886 3.22555 26.4973 2.98353 26.7271C2.7415 26.9569 2.42534 27.0927 2.09204 27.11C2.0285 27.1092 1.96507 27.1047 1.90204 27.0967C1.53848 27.0168 1.22126 26.7964 1.01956 26.4835C0.817867 26.1707 0.748062 25.7908 0.825372 25.4267C0.923705 24.7883 1.44537 24.4233 2.25871 24.4233C2.40984 24.4242 2.56075 24.4353 2.71037 24.4567C3.00537 24.1133 3.45037 23.61 3.89537 23.1633C4.056 22.9814 4.25592 22.8384 4.47999 22.7451C4.70406 22.6518 4.94642 22.6108 5.18871 22.625H18.817V20.7933H2.44037C2.10475 21.1206 1.6671 21.323 1.20037 21.3667C1.01689 21.3607 0.837596 21.3103 0.677919 21.2197C0.518242 21.1291 0.382958 21.0011 0.283705 20.8467C0.0742932 20.5677 -0.024838 20.2213 0.0053004 19.8738C0.0354388 19.5263 0.192728 19.2021 0.447039 18.9633C0.666201 18.7638 0.949145 18.6486 1.24537 18.6383C1.51595 18.669 1.7769 18.7569 2.01083 18.8963C2.24476 19.0357 2.4463 19.2233 2.60204 19.4467H7.93537L7.76537 19.285C6.83204 18.405 5.86871 17.4933 4.70204 16.43C4.52617 16.4353 4.35113 16.4037 4.18824 16.3372C4.02534 16.2707 3.87821 16.1708 3.75633 16.0439C3.63445 15.917 3.54054 15.7659 3.48066 15.6005C3.42079 15.435 3.39627 15.2588 3.40871 15.0833C3.40871 14.2267 3.77537 13.845 4.59371 13.845C5.69704 13.845 5.99371 14.1983 6.04871 15.5683C6.46204 15.965 6.86871 16.35 7.29871 16.7567C8.24153 17.6399 9.17162 18.5367 10.0887 19.4467H18.8154V18.2083H14.992C14.6521 18.4671 14.2434 18.6196 13.817 18.6467C13.6269 18.6444 13.4398 18.5988 13.27 18.5133C13.1002 18.4278 12.9521 18.3047 12.837 18.1533C12.6344 17.8778 12.5439 17.5356 12.5838 17.196C12.6237 16.8563 12.7911 16.5444 13.052 16.3233C13.2507 16.1414 13.5109 16.0413 13.7804 16.0433C14.3033 16.0859 14.7923 16.3197 15.1537 16.7H18.817V15.3C18.437 15.2989 18.0643 15.2944 17.6987 15.2867H17.687C17.3226 15.2797 16.9582 15.2758 16.5937 15.275C16.1804 15.275 15.8154 15.2833 15.477 15.2983C15.4134 15.3048 15.3494 15.3076 15.2854 15.3067C14.7503 15.3003 14.2389 15.085 13.8604 14.7067L12.8604 13.8617L12.8404 13.845L12.827 13.8333C12.1499 13.2601 11.471 12.689 10.7904 12.12H4.81037C4.4724 12.4054 4.05179 12.5748 3.61037 12.6033C3.42487 12.6009 3.24239 12.5561 3.07687 12.4723C2.91135 12.3886 2.76717 12.268 2.65537 12.12C2.54485 11.9895 2.46131 11.8384 2.40958 11.6754C2.35785 11.5124 2.33895 11.3408 2.35399 11.1704C2.36902 11.0001 2.41769 10.8344 2.49717 10.683C2.57665 10.5316 2.68537 10.3975 2.81704 10.2883C3.02234 10.0669 3.30553 9.93364 3.60704 9.91667C4.13634 9.99759 4.61991 10.2633 4.97204 10.6667H10.197C10.5544 10.6558 10.9103 10.7169 11.2436 10.8463C11.5768 10.9757 11.8807 11.1708 12.137 11.42C12.7587 12.005 13.462 12.57 14.142 13.1183H14.1437C14.4604 13.3733 14.7904 13.6367 15.0987 13.895H18.762V12.1183C18.532 12.1183 18.292 12.1117 18.062 12.1067H18.057C17.8127 12.0992 17.5682 12.0948 17.3237 12.0933C17.057 12.0933 16.8193 12.1017 16.6104 12.1183C16.5467 12.1248 16.4827 12.1276 16.4187 12.1267C15.8939 12.1183 15.3888 11.9253 14.992 11.5817C14.825 11.4454 14.6555 11.312 14.4837 11.1817C14.312 11.0483 14.1304 10.9117 13.967 10.7733C12.6337 10.6667 12.137 10.29 12.1904 9.42667C12.2046 9.09328 12.3471 8.77827 12.5881 8.54749C12.8291 8.31672 13.15 8.18803 13.4837 8.18833C14.312 8.18833 14.7754 8.69167 14.8304 9.64167C15.0454 9.80333 15.2604 9.98167 15.477 10.1533L15.4787 10.1567C15.6904 10.3283 15.9104 10.5067 16.1254 10.6667H18.7654V8.56667H17.8487C17.4989 8.89802 17.052 9.10834 16.5737 9.16667C16.3992 9.15673 16.2292 9.10713 16.0767 9.02165C15.9242 8.93616 15.7932 8.81704 15.6937 8.67333C15.4666 8.41874 15.3457 8.08675 15.3559 7.74571C15.3661 7.40466 15.5067 7.08052 15.7487 6.84C15.8568 6.72796 15.9862 6.63868 16.1293 6.57743C16.2724 6.51617 16.4264 6.48418 16.582 6.48333C16.8238 6.49901 17.0601 6.56246 17.2773 6.67002C17.4944 6.77759 17.6881 6.92713 17.847 7.11H18.7087C18.801 6.9326 18.8264 6.72793 18.7804 6.53333C18.7695 6.45714 18.7639 6.38029 18.7637 6.30333V5.44167C18.6019 5.45624 18.4395 5.46291 18.277 5.46167C18.0797 5.46 17.8825 5.45445 17.6854 5.445H17.6737C17.4716 5.43484 17.2694 5.42929 17.067 5.42833C16.4766 5.40246 15.8902 5.53725 15.3704 5.81833C14.7699 6.17685 14.1495 6.50071 13.512 6.78833H13.507C13.252 6.91 12.987 7.035 12.7304 7.16167C12.509 7.25314 12.269 7.29029 12.0304 7.27H8.42371C8.11545 7.58592 7.70357 7.78003 7.26371 7.81667C7.06716 7.80718 6.87534 7.75319 6.70269 7.65879C6.53005 7.56438 6.38109 7.43201 6.26704 7.27167C6.15713 7.14906 6.07362 7.00514 6.02173 6.84888C5.96983 6.69261 5.95064 6.52733 5.96537 6.36333C5.98167 6.17423 6.03581 5.99033 6.12456 5.82255C6.21332 5.65478 6.33488 5.50655 6.48204 5.38667C6.69733 5.18684 6.97688 5.07041 7.27037 5.05833C7.52208 5.0883 7.76451 5.17159 7.98149 5.30264C8.19847 5.4337 8.38502 5.6095 8.52871 5.81833H12.0304C12.1588 5.81305 12.285 5.78305 12.402 5.73C12.4741 5.7004 12.5482 5.6759 12.6237 5.65667C12.8426 5.54667 13.0593 5.44111 13.2737 5.34C13.8071 5.09595 14.3273 4.8239 14.832 4.525C15.513 4.11818 16.2939 3.90925 17.087 3.92167C17.1948 3.92167 17.3048 3.925 17.417 3.93167C17.5597 3.9487 17.7034 3.9565 17.847 3.955C17.9881 3.955 18.1326 3.95167 18.2804 3.945H18.282C18.4354 3.93722 18.5943 3.93278 18.7587 3.93167C18.8255 3.60844 18.8463 3.27738 18.8204 2.94833C18.8159 2.83167 18.8137 2.71056 18.8137 2.585H15.417C15.0544 2.88978 14.6107 3.08208 14.1404 3.13833C13.9655 3.12838 13.7954 3.07805 13.6433 2.9913C13.4912 2.90455 13.3613 2.78373 13.2637 2.63833C13.0553 2.37264 12.9513 2.0399 12.9712 1.70281C12.9912 1.36573 13.1337 1.04758 13.372 0.808333C13.5895 0.595696 13.8796 0.473576 14.1837 0.466667C14.6737 0.509623 15.1322 0.725912 15.477 1.07667H18.817C18.8193 0.928889 18.827 0.775556 18.8404 0.616667C18.8554 0.426667 18.8704 0.231667 18.8704 0H19.0804C26.0737 0 31.567 2.73667 35.4087 8.13333C37.7504 11.2617 39.1435 14.9972 39.422 18.895C39.622 22.5667 38.6887 26.3233 36.647 30.0583C34.9341 33.1902 32.3735 35.7762 29.2587 37.52C26.4112 39.1292 23.1994 39.9829 19.9287 40ZM20.5404 30.705V38.1383C20.6891 38.1633 20.8396 38.1755 20.9904 38.175C21.2646 38.1693 21.538 38.1442 21.8087 38.1C21.992 38.075 22.1754 38.045 22.3704 38.0317C24.1002 35.8299 25.4478 33.3532 26.357 30.705H20.5404ZM28.297 30.705C27.5289 33.0065 26.4988 35.2121 25.227 37.2783C28.8088 36.1077 31.9104 33.7997 34.0604 30.705H28.297ZM30.022 21.0633C29.9431 23.6838 29.5628 26.2865 28.8887 28.82H35.247C36.521 26.422 37.2564 23.7749 37.402 21.0633H30.022ZM20.5387 21.0633V28.7667H27.0054C27.7114 26.2581 28.0912 23.669 28.1354 21.0633H20.5387ZM20.5937 11.42V19.1767H28.1887C28.1226 16.5516 27.725 13.9454 27.0054 11.42H20.5937ZM28.8354 11.3667C29.5144 13.9008 29.9118 16.5021 30.0204 19.1233H37.4004C37.2547 16.405 36.5 13.7541 35.192 11.3667H28.8354ZM25.1737 2.96333C26.4521 5.03328 27.5 7.23697 28.2987 9.535H34.0637C31.8802 6.45008 28.7632 4.14674 25.1737 2.96333ZM20.5954 1.99333C20.5954 4.59667 20.5954 7.05667 20.6487 9.48167H26.4137C26.3935 9.4603 26.3782 9.43474 26.369 9.40679C26.3598 9.37885 26.3568 9.34921 26.3604 9.32C25.4585 6.87185 24.2066 4.56734 22.6437 2.47833L22.5804 2.41167C22.5448 2.35784 22.4984 2.31197 22.4442 2.27697C22.39 2.24198 22.3291 2.2186 22.2654 2.20833C21.7127 2.10802 21.1553 2.03737 20.5954 1.99333Z" fill="#F5F4F2"/>
</svg>
